<svg id="Calque_8" data-name="Calque 8" xmlns="http://www.w3.org/2000/svg" viewBox="0 0 2048 2048"><defs><style>.cls-1{fill:#29a1fd;}.cls-2{fill:#db2ade;}.cls-3{fill:#9820ff;}</style></defs><path class="cls-1" d="M1530.11,651.14,1063.39,381.68c-22.74-13.13-59.49-13.13-82.09,0L517.61,651.15c-22.59,13.13-22.47,34.42.27,47.55l82.36,47.55,50-29.06c22.6-13.13,59.36-13.13,82.1,0s22.86,34.42.27,47.55l-50,29.06,137.27,79.25,50-29.06c22.59-13.13,59.35-13.13,82.09,0s22.86,34.42.27,47.55l-50,29.07,82.36,47.55c22.75,13.13,59.5,13.13,82.09,0l81.83-47.56-50.33-29.05c-22.74-13.13-22.86-34.43-.27-47.56s59.36-13.13,82.1,0l50.33,29.06,136.38-79.25-50.33-29.06c-22.75-13.13-22.87-34.42-.27-47.55s59.35-13.13,82.09,0l50.33,29.06,81.83-47.56c22.6-13.13,22.48-34.42-.27-47.55"/><path class="cls-2" d="M1093.85,1648.74l466.72-269.46c22.74-13.13,41.12-45,41-71.1l-1.52-536.3c-.07-26.13-18.57-36.67-41.31-23.54l-82.36,47.55.16,57.84c.07,26.13-18.3,58-41,71.1s-41.24,2.59-41.31-23.55l-.17-57.84L1256.78,922.7l.17,57.84c.07,26.13-18.31,58-41,71.09s-41.24,2.59-41.31-23.54l-.17-57.84-82.36,47.55c-22.75,13.13-41.12,45-41,71.1l.27,94.64,50.33-29.06c22.74-13.13,41.24-2.59,41.32,23.54s-18.31,58-41,71.1l-50.33,29.06.45,157.73,50.33-29.06c22.74-13.13,41.24-2.59,41.31,23.55s-18.3,58-41,71.09l-50.33,29.06.26,94.64c.08,26.14,18.57,36.68,41.32,23.55"/><path class="cls-3" d="M448,772.12V1311c0,26.26,18.37,58.09,41,71.1L954.29,1649c22.67,13,41.05,2.25,41.05-24v-95.1l-50.18-28.78c-22.66-13-41-44.84-41-71.1s18.38-37,41-24l50.18,28.77v-158.5l-50.18-28.78c-22.66-13-41-44.84-41-71.1s18.38-37,41-24l50.18,28.77V1086c0-26.27-18.38-58.09-41.05-71.09L872.2,967.86V1026c0,26.26-18.38,37-41.05,24s-41-44.83-41-71.09V920.77L653.28,842.29v58.12c0,26.26-18.38,37-41,24s-41.05-44.83-41.05-71.09V795.2l-82.09-47.09c-22.68-13-41-2.26-41,24"/></svg>