<?xml version="1.0" encoding="UTF-8" standalone="no"?>
<svg
   xml:space="preserve"
   width="128"
   height="128"
   version="1.1"
   id="svg38"
   sodipodi:docname="cozy-blobfox.svg"
   inkscape:version="1.2.2 (b0a8486541, 2022-12-01)"
   xmlns:inkscape="http://www.inkscape.org/namespaces/inkscape"
   xmlns:sodipodi="http://sodipodi.sourceforge.net/DTD/sodipodi-0.dtd"
   xmlns="http://www.w3.org/2000/svg"
   xmlns:svg="http://www.w3.org/2000/svg"><defs
     id="defs42" /><sodipodi:namedview
     id="namedview40"
     pagecolor="#20172e"
     bordercolor="#999999"
     borderopacity="1"
     inkscape:showpageshadow="0"
     inkscape:pageopacity="0"
     inkscape:pagecheckerboard="0"
     inkscape:deskcolor="#d1d1d1"
     showgrid="false"
     inkscape:zoom="4.8447863"
     inkscape:cx="99.591596"
     inkscape:cy="60.477384"
     inkscape:window-width="2560"
     inkscape:window-height="1411"
     inkscape:window-x="1920"
     inkscape:window-y="0"
     inkscape:window-maximized="1"
     inkscape:current-layer="svg38" /><g
     style="display:inline"
     id="g24"
     inkscape:label="Base"><path
       d="m 69.97,33.403 c 0.309,0.08 0.617,0.159 0.92,0.245 -0.304,-0.084 -0.61,-0.167 -0.92,-0.245 z m -10.94,2.823 a 40.22,40.22 0 0 0 -2.45,0.085 c -4.41,0.288 -9.1,1.314 -13.974,3.297 -9.635,3.92 -14.51,10.494 -16.938,17.354 -2.427,6.86 -2.22,14.043 -1.405,18.535 0.74,4.083 4.469,7.918 8.59,11.868 4.122,3.95 8.724,8.034 9.88,12.727 0.125,0.513 0.178,1.064 0.272,1.597 3.277,-3.772 7.687,-6.694 12.756,-6.923 9.494,-0.427 25.36,-2.151 33.17,-12.255 3.754,-4.859 5.03,-11.254 4.383,-17.648 C 92.646,58.244 89.993,52.171 86.223,47.816 80.883,41.648 71.129,36.175 59.03,36.226 Z"
       style="display:inline;fill:#ff8702;fill-opacity:1;stroke:none;stroke-width:0.711682px;stroke-linecap:butt;stroke-linejoin:miter;stroke-opacity:0.4501"
       transform="matrix(1.05013,0,0,1.05013,-3.68,-2.216)"
       id="path2"
       inkscape:label="face" /><path
       d="M 24.895,38.67 C 17.663,21.941 18.165,5.851 19.715,3.716 20.938,2.033 21.761,1.62 23.767,2.731 c 2.367,1.31 11.58,10.337 23.627,18.339 5.21,3.46 -7.137,2.429 -0.574,4.855 -11.475,0.78 -16.004,6.074 -21.925,12.745 z"
       style="display:inline;fill:#313131;fill-opacity:1;stroke:none;stroke-width:0.821268px;stroke-linecap:butt;stroke-linejoin:miter;stroke-opacity:1"
       transform="matrix(1.05013,0,0,1.05013,-3.68,-2.216)"
       id="path4"
       inkscape:label="left-ear" /><path
       d="m 6.739,93.22 c -1.364,16.525 12.158,24.205 25.774,26.067 7.673,1.05 10.125,-10.756 8.175,-18.693 C 38.738,92.657 24.026,85.54 22.195,75.889 20.364,66.237 21.457,45.941 41.813,37.659 c 20.305,-8.261 37.8,-0.694 46.001,8.779 8.201,9.473 11.124,26.62 2.779,37.364 -8.346,10.744 -25.079,12.631 -34.737,13.067 -13.014,0.586 -24.29,23.065 -8.144,24.276 28.845,2.163 76.993,-1.217 74.099,-22.195"
       style="display:inline;fill:none;stroke:#ffffff;stroke-width:4.5727;stroke-linecap:round;stroke-linejoin:round;stroke-dasharray:none;stroke-opacity:1"
       transform="matrix(1.05013,0,0,1.05013,-3.68,-2.216)"
       id="path6"
       inkscape:label="blanket-border" /><path
       d="M 73.455,16.604 C 49.501,16.617 35.084,21.264 21.089,39.961 7.095,58.659 4.705,78.068 4.523,87.122 c 0.138,5.605 -1.17,12.767 7.936,20.771 6.335,5.569 11.122,7.191 15.953,8.457 4.83,1.267 7.48,1.634 9.182,-2.332 0.162,-2.51 0.678,-4.875 1.588,-6.636 0.695,-9.05 -3.811,-11.521 -6.13,-14.02 C 31.162,91.325 24.101,85.787 21.281,79.299 18.248,72.32 18.807,58.51 24.898,48.738 31.243,38.558 48.16,29.588 66.385,32.646 88.213,36.309 98.86,53.889 97.5,71.135 96.383,85.293 85.958,94.372 67.752,97.7 c -6.906,1.263 -9.79,0.905 -13.571,1.421 -3.347,0.456 -11.083,6.347 -12.092,12.004 -1.103,6.186 1.404,7.337 5.997,8.1 3.495,0.58 24.936,0.717 38.816,-0.81 15.443,-1.698 26.048,-6.713 30.312,-10.854 5.775,-5.608 8.075,-7.974 5.885,-15.353 -1.795,-6.044 -1.121,-13.266 0.55,-18.223 1.672,-4.958 1.988,-20.391 -3.695,-30.832 -5.684,-10.44 -22.545,-26.562 -46.5,-26.55 z"
       style="display:inline;fill:#1b112b;stroke-width:0.178526"
       transform="matrix(1.05013,0,0,1.05013,-3.68,-2.216)"
       id="path8"
       inkscape:label="blanket" /><g
       style="display:inline"
       id="g18"
       inkscape:label="patches"><path
         d="M-41.36-22.582h-3.589v3.207a1.887 1.887 0 0 1-3.774 0v-3.208l-5.5.001a1.672 1.672 0 0 0-1.671 1.673v5.5h3.208a1.887 1.887 0 0 1 .001 3.774h-3.209l.001 7.173 3.21-.002a1.887 1.887 0 0 1-.002 3.774h-3.207v5.5a1.674 1.674 0 0 0 1.672 1.673l15.656-.002c1.364-6.206 1.984-13.595.491-20.048-.615-2.658-1.725-5.751-3.288-9.015zm-103.063 0-8.314-.003a1.67 1.67 0 0 0-1.674 1.674l-.006 25.729a1.67 1.67 0 0 0 1.674 1.673l8.917.002c-1.822-3.28-3.693-7.28-4.246-11.241-.654-4.679.647-11.416 3.65-17.835zm104.885 32.859-14.682-.001a1.674 1.674 0 0 0-1.67 1.67l-.002 5.502h3.21a1.887 1.887 0 0 1-.002 3.774h-3.209v7.172h3.208a1.887 1.887 0 0 1 0 3.774l-3.21-.002v5.502a1.672 1.672 0 0 0 1.672 1.673h5.46c.016-.188.03-.381.04-.578l.001-2.63a1.887 1.887 0 0 1 .067-.154c.146-6.338 2.714-12.987 5.65-17.313 1.095-1.614 2.38-4.65 3.467-8.39zm-102.081-.012-11.13-.003a1.67 1.67 0 0 0-1.674 1.674l-.004 20.85a57.27 57.27 0 0 0 3.15 1.958c4.53 2.64 7.108 3.756 9.945.223.87-2.494 2.057-4.742 3.474-6.268 3.248-8.96-.617-12.728-2.26-15.909-.302-.584-.868-1.493-1.501-2.525zm49.115 16.42c-4.14.614-8.719.708-13.726.255-7.343-.665-10.159-1.838-14.13-2.38-.346-.047-.76-.042-1.208-.009l-.002 13.105a1.672 1.672 0 0 0 1.672 1.671l5.501.001V36.12a1.889 1.889 0 0 1 3.775.001v3.21h7.17l.002-3.209a1.889 1.889 0 0 1 1.886-1.886 1.889 1.889 0 0 1 1.892 1.886v3.21h5.495a1.67 1.67 0 0 0 1.671-1.672l.001-5.501h-3.207a1.887 1.887 0 1 1 .001-3.774l3.207.001zm-32.846-1.261c-4.057 1.374-8.87 4.237-10.62 7.88-1.316 2.741-1.544 4.61-.987 6.037l9.93.002c.927 0 1.673-.745 1.674-1.672z"
         style="stroke-width:.182314;fill:#9722ff"
         transform="rotate(-15.535 249.834 -573.05)"
         id="path10"
         inkscape:label="purple" /><path
         d="m -60.701,-22.454 a 1.672,1.672 0 0 0 -0.64,-0.127 h -9.506 c 4.995,9.019 5.732,19.517 2.801,29.064 h 6.708 a 1.674,1.674 0 0 0 1.673,-1.672 l -10e-4,-5.5 h -3.21 a 1.887,1.887 0 0 1 10e-4,-3.772 l 3.208,-0.003 -10e-4,-7.172 -3.208,0.002 a 1.8875,1.8875 0 1 1 0,-3.775 h 3.208 l -10e-4,-5.5 a 1.672,1.672 0 0 0 -1.032,-1.545 z m 0.003,32.855 a 1.674,1.674 0 0 0 -0.64,-0.127 h -8.09 c -3.584,8.172 -10.155,13.41 -19.308,15.662 v 2.453 h 3.212 a 1.8875001,1.8875001 0 1 1 -0.001,3.775 l -3.207,-0.001 -0.002,5.5 a 1.67,1.67 0 0 0 1.672,1.672 l 25.722,0.004 a 1.672,1.672 0 0 0 1.67,-1.672 v -5.5 h -3.206 a 1.8870001,1.8870001 0 1 1 -0.001,-3.774 h 3.209 V 21.22 h -3.208 a 1.8875001,1.8875001 0 0 1 10e-4,-3.775 h 3.209 v -5.5 A 1.674,1.674 0 0 0 -60.698,10.4 Z m 11.102,32.711 h -4.626 a 1.672,1.672 0 0 0 -1.673,1.671 v 4.324 c 3.182,-1.851 5.238,-3.45 6.3,-5.995 z"
         style="display:inline;fill:#dc29dd;stroke-width:0.182314"
         transform="rotate(-15.535,249.834,-573.05)"
         id="path12"
         inkscape:label="pink" /><path
         d="M-77.652-53.507c-.047-.014-.091-.024-.138-.037v1.33a1.887 1.887 0 0 1-3.776 0v-2.325c-1.269-.32-2.509-.608-3.734-.882h-1.766a1.672 1.672 0 0 0-1.673 1.672l.003 5.504h3.207a1.887 1.887 0 1 1 .001 3.773h-3.213v5.49c1.103.533 2.17 1.091 3.188 1.683h.022a1.889 1.889 0 0 1 1.427.89c4.492 2.847 8.09 6.27 10.844 10.054l11.918-.001a1.672 1.672 0 0 0 1.671-1.672v-16.684c-2.953-2.177-6.19-4.156-9.774-5.796a1.887 1.887 0 0 1-.3-.135 55.025 55.025 0 0 0-7.907-2.865zm16.95 96.75a1.672 1.672 0 0 0-.64-.128l-25.724-.003a1.67 1.67 0 0 0-1.673 1.67v5.5h3.21a1.889 1.889 0 0 1 0 3.776h-1.284c12.568 1.253 22.128-.445 27.143-2.874v-6.398a1.672 1.672 0 0 0-1.032-1.544z"
         style="display:inline;stroke-width:.182314;fill:#27a2fd"
         transform="rotate(-15.535 249.834 -573.05)"
         id="path14"
         inkscape:label="light-blue" /><path
         d="m -93.545,-55.294 a 1.672,1.672 0 0 0 -0.64,-0.127 l -23.15,0.003 c -1.391,0.43 -2.782,0.934 -4.171,1.502 a 1.674,1.674 0 0 0 -0.072,0.17 l 0.002,11.706 c 8.628,-2.347 19.053,-2.365 29.066,1.43 l -10e-4,-3.861 h -3.207 a 1.887,1.887 0 1 1 -0.002,-3.773 h 3.207 v -5.502 a 1.672,1.672 0 0 0 -1.032,-1.548 z m -31.8,3.127 c -3.871,1.945 -7.786,4.422 -11.857,7.563 a 87.278,87.278 0 0 0 -16.918,17.284 1.672,1.672 0 0 0 1.383,0.974 h 10.305 c 1.812,-3.055 4.017,-5.923 6.614,-8.305 2.707,-2.484 6.312,-4.592 10.472,-6.155 z m -32.918,30.967 c -4.863,7.881 -7.58,15.035 -8.964,19.653 -0.605,2.403 -1.54,5.019 -1.908,8.03 h 9.29 a 1.674,1.674 0 0 0 1.671,-1.671 l -0.003,-25.726 a 1.672,1.672 0 0 0 -0.087,-0.286 z m -0.942,31.59 a 1.674,1.674 0 0 0 -0.64,-0.128 h -9.394 c 0.223,3.294 1.327,7.04 4.2,11.439 2.374,3.636 4.638,6.198 6.864,8.186 l 0.001,-17.952 a 1.674,1.674 0 0 0 -1.032,-1.546 z m 65.663,32.848 a 1.67,1.67 0 0 0 -0.64,-0.127 h -5.499 v 3.207 a 1.889,1.889 0 1 1 -3.776,-0.002 l 10e-4,-3.206 -7.172,-10e-4 v 3.207 a 1.889,1.889 0 1 1 -3.775,-0.002 v -3.206 l -5.5,-10e-4 a 1.672,1.672 0 0 0 -1.672,1.672 v 1.792 c 6.943,1.962 16.011,4.254 23.99,5.817 a 1.889,1.889 0 0 1 1.866,-2.106 h 3.207 l 0.002,-5.5 a 1.67,1.67 0 0 0 -1.032,-1.544 z m -32.833,0.004 a 1.674,1.674 0 0 0 -0.639,-0.13 h -5.317 c 0.053,0.025 0.096,0.05 0.15,0.074 0.96,0.447 3.502,1.286 6.839,2.285 v -0.686 a 1.674,1.674 0 0 0 -1.033,-1.543 z"
         style="display:inline;fill:#3344ff;stroke-width:0.182314"
         transform="rotate(-15.535,249.834,-573.05)"
         id="path16"
         inkscape:label="dark-blue" /></g><path
       d="M111.282 2.992c-7.624.784-21.834 6.294-34.513 23.696-.9 1.236 2.597 2.668 4.67 2.795 16.78 3.532 20.31-18.515 27.211-17.89-.69 13.48-3.663 22.213-3.504 34.425.026.73.044 1.414.165 1.991.164.218.342.43.534.63 2.35 2.471 4.051-.569 5.14-3.41.329-.872.663-1.805 1.036-3.004 3.123-10.043 4.852-22.763 5.004-28.437.218-8.083 1.264-11.517-5.743-10.796z"
       style="display:inline;fill:#313131;fill-opacity:1;stroke:none;stroke-width:.833509px;stroke-linecap:butt;stroke-linejoin:miter;stroke-opacity:.4501"
       transform="matrix(1.05013 0 0 1.05013 -3.68 -2.216)"
       id="path20"
       inkscape:label="right-ear" /><path
       d="M111.604 5.58c-2.818.03-7.633 2.355-9.873 4.561-2.987 2.943-6.88 5.344-8.526 12.412-.748 3.21-3.068 5.421-6.06 6.35-2.146.549-3.771.697-6.108.529 1.864 2.176 7.9 1.25 15.733 10.661 2.693 3.236 7.108 6.733 8.443 7.19-.726-8.988 5.248-15.904 7.407-22.381 1.387-4.16 2.222-15.414 1.103-18.248-.372-.942-.975-1.085-2.119-1.073z"
       style="display:inline;fill:#ebdccc;fill-opacity:1;stroke:none;stroke-width:.833509px;stroke-linecap:butt;stroke-linejoin:miter;stroke-opacity:1"
       transform="matrix(1.05013 0 0 1.05013 -3.68 -2.216)"
       id="path22"
       inkscape:label="right-ear-fluff" /></g><g
     style="display:inline"
     id="g36"
     inkscape:label="Features"><path
       d="M34.511 54.972c.357-4.744 4.121-8.231 7.165-8.254 3.167-.024 5.296 3.136 5.223 5.522-.144 4.723-2.609 9.009-7.147 9.154-2.753.089-5.506-2.887-5.24-6.422z"
       style="display:inline;fill:#313131;fill-opacity:1;stroke:none;stroke-width:.800271;stroke-linecap:butt;stroke-linejoin:miter;stroke-miterlimit:4;stroke-dasharray:none;stroke-opacity:.46432"
       id="path26"
       inkscape:label="left-eye" /><path
       d="M68.463 58.96c.772-5.319 4.736-8.06 7.713-7.83 3.097.239 5.526 3.852 5.178 6.99-.566 5.11-3.593 8.37-8.04 8.138-2.699-.14-5.35-3.857-4.85-7.299z"
       style="display:inline;fill:#313131;fill-opacity:1;stroke:none;stroke-width:.783767px;stroke-linecap:butt;stroke-linejoin:miter;stroke-opacity:.46432"
       id="path28"
       inkscape:label="right-eye" /><path
       d="M39.232 73.635c-1.366-2.817-1.385-5.583.39-7.44 1.776-1.858 5.7-4.33 5.448-13.072"
       style="display:inline;fill:none;fill-opacity:1;stroke:#313131;stroke-width:3.25786;stroke-linecap:round;stroke-linejoin:miter;stroke-miterlimit:4;stroke-dasharray:none;stroke-opacity:1"
       id="path30"
       inkscape:label="nose-outline" /><path
       d="M43.963 67.784c2.671-1.458 10.76-1.975 12.626 1.905.299.62-4.523 5.284-7.475 5.277-2.854-.006-5.821-6.817-5.151-7.182z"
       style="display:inline;fill:#313131;fill-opacity:1;stroke:none;stroke-width:.739644px;stroke-linecap:butt;stroke-linejoin:miter;stroke-opacity:1"
       id="path32"
       inkscape:label="nose" /><path
       d="M36.492 77.69c1.614 4.75 3.11 7.743 4.585 9.624 2.776-2.38 6.316-5.677 7.717-7.116 2.263 3.576 5.352 7.694 6.611 9.377 3.598-2.946 7.044-6.075 8.457-7.716"
       style="display:inline;fill:none;stroke:#313131;stroke-width:3.29458;stroke-linecap:round;stroke-linejoin:round;stroke-miterlimit:4;stroke-dasharray:none;stroke-opacity:1"
       id="path34"
       inkscape:label="mouth" /></g></svg>
