<?xml version="1.0" encoding="UTF-8" standalone="no"?>
<svg
   xml:space="preserve"
   width="128"
   height="128"
   version="1.1"
   id="svg38"
   sodipodi:docname="cozy-discord-github.svg"
   inkscape:version="1.2.2 (b0a8486541, 2022-12-01)"
   xmlns:inkscape="http://www.inkscape.org/namespaces/inkscape"
   xmlns:sodipodi="http://sodipodi.sourceforge.net/DTD/sodipodi-0.dtd"
   xmlns="http://www.w3.org/2000/svg"
   xmlns:svg="http://www.w3.org/2000/svg"><defs
     id="defs42" /><sodipodi:namedview
     id="namedview40"
     pagecolor="#20172e"
     bordercolor="#999999"
     borderopacity="1"
     inkscape:showpageshadow="0"
     inkscape:pageopacity="0"
     inkscape:pagecheckerboard="0"
     inkscape:deskcolor="#d1d1d1"
     showgrid="false"
     showguides="true"
     inkscape:zoom="2.4223932"
     inkscape:cx="32.199562"
     inkscape:cy="24.562486"
     inkscape:window-width="1441"
     inkscape:window-height="1080"
     inkscape:window-x="2185"
     inkscape:window-y="79"
     inkscape:window-maximized="0"
     inkscape:current-layer="svg38" /><rect
     style="opacity:1;fill:#ffffff;stroke-width:1.11118"
     id="rect570"
     width="128"
     height="128"
     x="0"
     y="0" /><path
     id="path412"
     style="opacity:1;fill:#000000;stroke-width:1.11118"
     d="M 63.810547,13.03125 C 35.661329,13.031359 12.841906,35.850782 12.841797,64 c 0.0068,10.848939 3.475134,21.412695 9.900391,30.154297 -0.01253,-0.93754 0.01089,-1.844798 -0.0098,-2.683594 0.12195,-6.066688 1.722847,-19.072856 11.099609,-31.601562 0.637164,-0.851236 1.276283,-1.655589 1.917969,-2.421875 -4.170516,-10.632061 -3.828207,-20.4992 -2.837891,-21.863282 0.819481,-1.127705 1.370709,-1.404589 2.714844,-0.660156 1.532596,0.848204 7.367356,6.520775 15.041016,11.740234 5.170005,-1.812364 11.070219,-2.441414 18.251953,-2.445312 2.56273,-0.0013 4.98957,0.296733 7.298828,0.787109 6.984146,-7.007601 13.942754,-9.48596 18.048828,-9.908203 0.293443,-0.03019 0.565574,-0.04857 0.81836,-0.05664 0.252781,-0.0081 0.486233,-0.0058 0.701171,0.0078 3.009183,0.190823 2.455939,2.544159 2.328125,7.283203 -0.07828,2.921961 -0.787528,8.630003 -2.058593,14.171875 1.744484,1.919639 3.105453,3.821373 4.021479,5.503906 3.80795,6.996059 3.59495,17.338018 2.47461,20.660157 -1.11963,3.321466 -1.56994,8.161118 -0.36718,12.210937 0.21071,0.709974 0.34103,1.335998 0.42968,1.923828 C 110.41314,87.646129 114.72182,76.026947 114.7793,64 114.77919,35.850781 91.959766,13.031358 63.810547,13.03125 Z"
     sodipodi:nodetypes="cccccccccccssscccccccc" /></svg>
