<?xml version="1.0" encoding="UTF-8" standalone="no"?>
<!DOCTYPE svg PUBLIC "-//W3C//DTD SVG 1.1//EN" "http://www.w3.org/Graphics/SVG/1.1/DTD/svg11.dtd">
<svg width="100%" height="100%" viewBox="0 0 200 200" version="1.1" xmlns="http://www.w3.org/2000/svg" xmlns:xlink="http://www.w3.org/1999/xlink" xml:space="preserve" xmlns:serif="http://www.serif.com/" style="fill-rule:evenodd;clip-rule:evenodd;stroke-linejoin:round;stroke-miterlimit:2;">
    <g id="pluraljourneyvectorsimple.svg" transform="matrix(0.0292778,0,0,0.0472949,100.015,100.015)">
        <clipPath id="_clip1">
            <path d="M2044.73,-734.646C2044.73,-595.456 2229.75,-480.919 2454.59,-480.919L3150,-480.919L3150,481.342L2453.57,481.342C2443.93,480.919 2434.27,480.708 2424.6,480.708C2199.76,480.708 2014.74,595.244 2014.74,734.435C2014.74,873.625 2199.76,988.162 2424.6,988.162C2434.27,988.162 2443.93,987.951 2453.57,987.528L3148.97,987.528L3148.97,1725.66C3148.97,1848.72 2985.37,1950 2786.58,1950L1594.55,1950L1594.55,1518.88C1595.24,1512.91 1595.58,1506.93 1595.58,1500.94C1595.58,1361.75 1410.56,1247.22 1185.71,1247.22C960.865,1247.22 775.844,1361.75 775.844,1500.94C775.844,1506.93 776.186,1512.91 776.869,1518.88L776.869,1949.37L-777.894,1949.37L-777.894,1518.88C-777.108,1512.43 -776.698,1505.98 -776.698,1499.51C-776.698,1360.32 -961.719,1245.78 -1186.57,1245.78C-1411.41,1245.78 -1596.43,1360.32 -1596.43,1499.51C-1596.43,1505.98 -1596.02,1512.43 -1595.24,1518.88L-1595.24,1949.37L-2787.27,1949.37C-2986.19,1949.26 -3149.83,1847.96 -3150,1724.82L-3150,987.316L-2454.59,987.316C-2229.75,987.316 -2044.73,872.78 -2044.73,733.589C-2044.73,594.398 -2229.75,479.862 -2454.59,479.862L-3150,479.862L-3150,-481.342L-2454.59,-481.342C-2241.19,-490.709 -2073.69,-601.989 -2073.69,-734.435C-2073.69,-866.88 -2241.19,-978.161 -2454.59,-987.528L-3150,-987.528L-3150,-1725.66C-3150,-1848.72 -2986.39,-1950 -2787.61,-1950L-1595.58,-1950L-1595.58,-1519.51C-1596.26,-1513.55 -1596.6,-1507.56 -1596.6,-1501.58C-1596.6,-1362.39 -1411.58,-1247.85 -1186.74,-1247.85C-961.89,-1247.85 -776.869,-1362.39 -776.869,-1501.58C-776.869,-1507.56 -777.211,-1513.55 -777.894,-1519.51L-777.894,-1950L776.869,-1950L776.869,-1519.51C776.083,-1513.06 775.674,-1506.61 775.674,-1500.14C775.674,-1360.95 960.694,-1246.41 1185.54,-1246.41C1410.39,-1246.41 1595.41,-1360.95 1595.41,-1500.14C1595.41,-1506.61 1595,-1513.06 1594.21,-1519.51L1594.21,-1950L2786.93,-1950C2985.54,-1950 3148.97,-1848.83 3148.97,-1725.87L3148.97,-987.951L2453.57,-987.951C2229.37,-987.612 2045.1,-873.435 2044.73,-734.646Z" clip-rule="nonzero"/>
        </clipPath>
        <g clip-path="url(#_clip1)">
            <g transform="matrix(1,0,0,1,-3150,-1950)">
                <clipPath id="_clip2">
                    <rect x="0" y="0" width="6300" height="3900"/>
                </clipPath>
                <g clip-path="url(#_clip2)">
                    <g id="g85" transform="matrix(6.15234,0,0,0.951167,3150,1465.01)">
                        <rect id="rect83" x="-512" y="-512" width="1024" height="1024" style="fill:rgb(52,125,222);"/>
                    </g>
                    <g id="g89" transform="matrix(6.15234,0,0,0.951168,3150,3413)">
                        <rect id="rect87" x="-512" y="-512" width="1024" height="1024"/>
                    </g>
                    <g transform="matrix(13.7729,0,0,18.7297,3150,488.605)">
                        <g id="g105">
                            <g id="g103">
                                <g id="g101">
                                    <rect id="rect101096" x="-228.71" y="-26.13" width="457.42" height="52.26" style="fill:rgb(49,198,158);"/>
                                </g>
                            </g>
                        </g>
                    </g>
                    <g transform="matrix(13.7729,0,0,18.6375,3150,2439.01)">
                        <g id="g137">
                            <g id="g135">
                                <g id="g133">
                                    <rect id="rect131" x="-228.71" y="-26.13" width="457.42" height="52.26" style="fill:rgb(107,63,189);"/>
                                </g>
                            </g>
                        </g>
                    </g>
                </g>
            </g>
        </g>
    </g>
    <path d="M166.896,65.276C166.904,62.553 169.141,60.315 171.864,60.306L199.226,60.306L199.226,18.4C199.226,18.401 199.226,18.396 199.226,18.39C199.226,8.726 191.274,0.774 181.61,0.774L181.593,0.774C181.6,0.774 139.674,0.774 139.674,0.774L139.674,28.418L139.694,28.685C139.704,28.812 139.709,28.939 139.709,29.066C139.709,31.8 137.459,34.05 134.725,34.05C131.991,34.05 129.741,31.8 129.741,29.066C129.741,28.939 129.746,28.812 129.756,28.685L129.776,28.418L129.776,0.774L70.224,0.774L70.224,28.398L70.242,28.646C70.25,28.763 70.254,28.88 70.254,28.998C70.254,31.732 68.004,33.982 65.27,33.982C62.536,33.982 60.286,31.732 60.286,28.998C60.286,28.88 60.29,28.763 60.298,28.646L60.316,28.398L60.316,0.774L18.41,0.774C18.411,0.774 18.406,0.774 18.4,0.774C8.731,0.774 0.774,8.731 0.774,18.4L0.774,60.326L27.848,60.326C30.354,60.607 32.286,62.746 32.286,65.28C32.286,67.814 30.353,69.954 27.855,70.233C27.848,70.234 0.774,70.234 0.774,70.234L0.774,129.726L28.15,129.726C30.884,129.726 33.134,131.976 33.134,134.71C33.134,137.444 30.884,139.694 28.15,139.694L0.774,139.694L0.774,181.593C0.783,191.264 8.736,199.217 18.403,199.226L60.326,199.226L60.326,171.582L60.306,171.315C60.296,171.188 60.291,171.061 60.291,170.934C60.291,168.2 62.541,165.95 65.275,165.95C68.009,165.95 70.259,168.2 70.259,170.934C70.259,171.061 70.254,171.188 70.244,171.315L70.224,171.582L70.224,199.226L129.776,199.226L129.776,171.602L129.758,171.354C129.75,171.237 129.746,171.12 129.746,171.002C129.746,168.268 131.996,166.018 134.73,166.018C137.464,166.018 139.714,168.268 139.714,171.002C139.714,171.12 139.71,171.237 139.702,171.354L139.684,171.602L139.684,199.256L181.6,199.256C191.269,199.256 199.226,191.299 199.226,181.63L199.226,181.613C199.226,181.62 199.226,139.704 199.226,139.704L171.602,139.704L171.354,139.722C171.237,139.73 171.12,139.734 171.002,139.734C168.268,139.734 166.018,137.484 166.018,134.75C166.018,132.016 168.268,129.766 171.002,129.766C171.12,129.766 171.237,129.77 171.354,129.778L171.602,129.796L199.256,129.796L199.256,70.254L171.88,70.254C169.148,70.254 166.899,68.007 166.896,65.276ZM159.88,65.27C159.88,71.853 165.297,77.27 171.88,77.27L192.24,77.27L192.24,122.78L171.85,122.78C171.568,122.76 171.285,122.75 171.002,122.75C164.419,122.75 159.002,128.167 159.002,134.75C159.002,141.333 164.419,146.75 171.002,146.75C171.285,146.75 171.568,146.74 171.85,146.72L192.21,146.72L192.21,181.63C192.21,187.45 187.42,192.24 181.6,192.24L146.7,192.24L146.7,171.85C146.72,171.568 146.73,171.285 146.73,171.002C146.73,164.419 141.313,159.002 134.73,159.002C128.147,159.002 122.73,164.419 122.73,171.002C122.73,171.285 122.74,171.568 122.76,171.85L122.76,192.21L77.24,192.21L77.24,171.85C77.263,171.545 77.275,171.24 77.275,170.934C77.275,164.351 71.858,158.934 65.275,158.934C58.692,158.934 53.275,164.351 53.275,170.934C53.275,171.24 53.287,171.545 53.31,171.85L53.31,192.21L18.41,192.21C12.586,192.205 7.795,187.414 7.79,181.59L7.79,146.71L28.15,146.71C34.733,146.71 40.15,141.293 40.15,134.71C40.15,128.127 34.733,122.71 28.15,122.71L7.79,122.71L7.79,77.25L28.15,77.25C34.398,76.807 39.302,71.544 39.302,65.28C39.302,59.016 34.398,53.753 28.15,53.31L7.79,53.31L7.79,18.4C7.79,12.58 12.58,7.79 18.4,7.79L53.3,7.79L53.3,28.15C53.28,28.432 53.27,28.715 53.27,28.998C53.27,35.581 58.687,40.998 65.27,40.998C71.853,40.998 77.27,35.581 77.27,28.998C77.27,28.715 77.26,28.432 77.24,28.15L77.24,7.79L122.76,7.79L122.76,28.15C122.737,28.455 122.725,28.76 122.725,29.066C122.725,35.649 128.142,41.066 134.725,41.066C141.308,41.066 146.725,35.649 146.725,29.066C146.725,28.76 146.713,28.455 146.69,28.15L146.69,7.79L181.61,7.79C187.425,7.79 192.21,12.575 192.21,18.39L192.21,53.29L171.85,53.29C165.286,53.306 159.891,58.706 159.88,65.27Z"/>
</svg>
