<?xml version="1.0" encoding="UTF-8" standalone="no"?>
<!DOCTYPE svg PUBLIC "-//W3C//DTD SVG 1.1//EN" "http://www.w3.org/Graphics/SVG/1.1/DTD/svg11.dtd">
<svg width="100%" height="100%" viewBox="0 0 200 200" version="1.1" xmlns="http://www.w3.org/2000/svg" xmlns:xlink="http://www.w3.org/1999/xlink" xml:space="preserve" xmlns:serif="http://www.serif.com/" style="fill-rule:evenodd;clip-rule:evenodd;stroke-linejoin:round;stroke-miterlimit:2;">
    <g id="Nonbinary_flag.svg" transform="matrix(0.614833,0,0,0.92225,100.015,100.015)">
        <clipPath id="_clip1">
            <path d="M97.368,-37.674C97.368,-30.536 106.178,-24.663 116.885,-24.663L150,-24.663L150,24.684L116.837,24.684C116.378,24.663 115.918,24.652 115.457,24.652C104.75,24.652 95.94,30.525 95.94,37.663C95.94,44.801 104.75,50.675 115.457,50.675C115.918,50.675 116.378,50.664 116.837,50.642L149.951,50.642L149.951,88.496C149.951,94.806 142.16,100 132.694,100L75.931,100L75.931,77.891C75.964,77.585 75.98,77.278 75.98,76.972C75.98,69.834 67.169,63.96 56.462,63.96C45.755,63.96 36.945,69.834 36.945,76.972C36.945,77.278 36.961,77.585 36.994,77.891L36.994,99.967L-37.043,99.967L-37.043,77.891C-37.005,77.56 -36.986,77.23 -36.986,76.898C-36.986,69.76 -45.796,63.886 -56.503,63.886C-67.21,63.886 -76.021,69.76 -76.021,76.898C-76.021,77.23 -76.001,77.56 -75.964,77.891L-75.964,99.967L-132.727,99.967C-142.2,99.962 -149.992,94.767 -150,88.452L-150,50.632L-116.885,50.632C-106.178,50.632 -97.368,44.758 -97.368,37.62C-97.368,30.482 -106.178,24.608 -116.885,24.608L-150,24.608L-150,-24.684L-116.885,-24.684C-106.723,-25.165 -98.747,-30.871 -98.747,-37.663C-98.747,-44.455 -106.723,-50.162 -116.885,-50.642L-150,-50.642L-150,-88.496C-150,-94.806 -142.209,-100 -132.743,-100L-75.98,-100L-75.98,-77.924C-76.012,-77.618 -76.029,-77.311 -76.029,-77.004C-76.029,-69.866 -67.218,-63.992 -56.511,-63.992C-45.804,-63.992 -36.994,-69.866 -36.994,-77.004C-36.994,-77.311 -37.01,-77.618 -37.043,-77.924L-37.043,-100L36.994,-100L36.994,-77.924C36.956,-77.593 36.937,-77.262 36.937,-76.93C36.937,-69.792 45.747,-63.919 56.454,-63.919C67.161,-63.919 75.972,-69.792 75.972,-76.93C75.972,-77.262 75.952,-77.593 75.915,-77.924L75.915,-100L132.711,-100C142.169,-100 149.951,-94.812 149.951,-88.506L149.951,-50.664L116.837,-50.664C106.16,-50.647 97.386,-44.792 97.368,-37.674Z" clip-rule="nonzero"/>
        </clipPath>
        <g clip-path="url(#_clip1)">
            <g transform="matrix(1,0,0,1,-150,-100)">
                <path d="M0,0L300,0L300,200L0,200" style="fill:rgb(44,44,44);fill-rule:nonzero;"/>
                <path d="M0,0L300,0L300,150L0,150" style="fill:rgb(156,89,209);fill-rule:nonzero;"/>
                <path d="M0,0L300,0L300,100L0,100" style="fill:rgb(252,252,252);fill-rule:nonzero;"/>
                <path d="M0,0L300,0L300,50L0,50" style="fill:rgb(252,244,52);fill-rule:nonzero;"/>
            </g>
        </g>
    </g>
    <path d="M166.896,65.276C166.904,62.553 169.141,60.315 171.864,60.306L199.226,60.306L199.226,18.4C199.226,18.401 199.226,18.396 199.226,18.39C199.226,8.726 191.274,0.774 181.61,0.774L181.593,0.774C181.6,0.774 139.674,0.774 139.674,0.774L139.674,28.418L139.694,28.685C139.704,28.812 139.709,28.939 139.709,29.066C139.709,31.8 137.459,34.05 134.725,34.05C131.991,34.05 129.741,31.8 129.741,29.066C129.741,28.939 129.746,28.812 129.756,28.685L129.776,28.418L129.776,0.774L70.224,0.774L70.224,28.398L70.242,28.646C70.25,28.763 70.254,28.88 70.254,28.998C70.254,31.732 68.004,33.982 65.27,33.982C62.536,33.982 60.286,31.732 60.286,28.998C60.286,28.88 60.29,28.763 60.298,28.646L60.316,28.398L60.316,0.774L18.41,0.774C18.411,0.774 18.406,0.774 18.4,0.774C8.731,0.774 0.774,8.731 0.774,18.4L0.774,60.326L27.848,60.326C30.354,60.607 32.286,62.746 32.286,65.28C32.286,67.814 30.353,69.954 27.855,70.233C27.848,70.234 0.774,70.234 0.774,70.234L0.774,129.726L28.15,129.726C30.884,129.726 33.134,131.976 33.134,134.71C33.134,137.444 30.884,139.694 28.15,139.694L0.774,139.694L0.774,181.593C0.783,191.264 8.736,199.217 18.403,199.226L60.326,199.226L60.326,171.582L60.306,171.315C60.296,171.188 60.291,171.061 60.291,170.934C60.291,168.2 62.541,165.95 65.275,165.95C68.009,165.95 70.259,168.2 70.259,170.934C70.259,171.061 70.254,171.188 70.244,171.315L70.224,171.582L70.224,199.226L129.776,199.226L129.776,171.602L129.758,171.354C129.75,171.237 129.746,171.12 129.746,171.002C129.746,168.268 131.996,166.018 134.73,166.018C137.464,166.018 139.714,168.268 139.714,171.002C139.714,171.12 139.71,171.237 139.702,171.354L139.684,171.602L139.684,199.256L181.6,199.256C191.269,199.256 199.226,191.299 199.226,181.63L199.226,181.613C199.226,181.62 199.226,139.704 199.226,139.704L171.602,139.704L171.354,139.722C171.237,139.73 171.12,139.734 171.002,139.734C168.268,139.734 166.018,137.484 166.018,134.75C166.018,132.016 168.268,129.766 171.002,129.766C171.12,129.766 171.237,129.77 171.354,129.778L171.602,129.796L199.256,129.796L199.256,70.254L171.88,70.254C169.148,70.254 166.899,68.007 166.896,65.276ZM159.88,65.27C159.88,71.853 165.297,77.27 171.88,77.27L192.24,77.27L192.24,122.78L171.85,122.78C171.568,122.76 171.285,122.75 171.002,122.75C164.419,122.75 159.002,128.167 159.002,134.75C159.002,141.333 164.419,146.75 171.002,146.75C171.285,146.75 171.568,146.74 171.85,146.72L192.21,146.72L192.21,181.63C192.21,187.45 187.42,192.24 181.6,192.24L146.7,192.24L146.7,171.85C146.72,171.568 146.73,171.285 146.73,171.002C146.73,164.419 141.313,159.002 134.73,159.002C128.147,159.002 122.73,164.419 122.73,171.002C122.73,171.285 122.74,171.568 122.76,171.85L122.76,192.21L77.24,192.21L77.24,171.85C77.263,171.545 77.275,171.24 77.275,170.934C77.275,164.351 71.858,158.934 65.275,158.934C58.692,158.934 53.275,164.351 53.275,170.934C53.275,171.24 53.287,171.545 53.31,171.85L53.31,192.21L18.41,192.21C12.586,192.205 7.795,187.414 7.79,181.59L7.79,146.71L28.15,146.71C34.733,146.71 40.15,141.293 40.15,134.71C40.15,128.127 34.733,122.71 28.15,122.71L7.79,122.71L7.79,77.25L28.15,77.25C34.398,76.807 39.302,71.544 39.302,65.28C39.302,59.016 34.398,53.753 28.15,53.31L7.79,53.31L7.79,18.4C7.79,12.58 12.58,7.79 18.4,7.79L53.3,7.79L53.3,28.15C53.28,28.432 53.27,28.715 53.27,28.998C53.27,35.581 58.687,40.998 65.27,40.998C71.853,40.998 77.27,35.581 77.27,28.998C77.27,28.715 77.26,28.432 77.24,28.15L77.24,7.79L122.76,7.79L122.76,28.15C122.737,28.455 122.725,28.76 122.725,29.066C122.725,35.649 128.142,41.066 134.725,41.066C141.308,41.066 146.725,35.649 146.725,29.066C146.725,28.76 146.713,28.455 146.69,28.15L146.69,7.79L181.61,7.79C187.425,7.79 192.21,12.575 192.21,18.39L192.21,53.29L171.85,53.29C165.286,53.306 159.891,58.706 159.88,65.27Z"/>
</svg>
