<?xml version="1.0" encoding="UTF-8" standalone="no"?>
<!DOCTYPE svg PUBLIC "-//W3C//DTD SVG 1.1//EN" "http://www.w3.org/Graphics/SVG/1.1/DTD/svg11.dtd">
<svg width="100%" height="100%" viewBox="0 0 200 200" version="1.1" xmlns="http://www.w3.org/2000/svg" xmlns:xlink="http://www.w3.org/1999/xlink" xml:space="preserve" xmlns:serif="http://www.serif.com/" style="fill-rule:evenodd;clip-rule:evenodd;stroke-linejoin:round;stroke-miterlimit:2;">
    <g id="Disability_flag.svg" transform="matrix(0.153708,0,0,0.230563,100.015,100.015)">
        <clipPath id="_clip1">
            <path d="M389.471,-150.697C389.471,-122.145 424.713,-98.65 467.541,-98.65L600,-98.65L600,98.737L467.346,98.737C465.512,98.65 463.67,98.607 461.829,98.607C419.001,98.607 383.759,122.101 383.759,150.653C383.759,179.205 419.001,202.7 461.829,202.7C463.67,202.7 465.512,202.657 467.346,202.57L599.805,202.57L599.805,353.982C599.805,379.225 568.642,400 530.778,400L303.725,400L303.725,311.564C303.855,310.341 303.92,309.114 303.92,307.886C303.92,279.334 268.678,255.84 225.85,255.84C183.022,255.84 147.78,279.334 147.78,307.886C147.78,309.114 147.845,310.341 147.975,311.564L147.975,399.87L-148.17,399.87L-148.17,311.564C-148.021,310.241 -147.943,308.918 -147.943,307.591C-147.943,279.039 -183.185,255.545 -226.012,255.545C-268.84,255.545 -304.082,279.039 -304.082,307.591C-304.082,308.918 -304.004,310.241 -303.855,311.564L-303.855,399.87L-530.908,399.87C-568.798,399.848 -599.967,379.069 -600,353.809L-600,202.526L-467.541,202.526C-424.713,202.526 -389.471,179.032 -389.471,150.48C-389.471,121.928 -424.713,98.433 -467.541,98.433L-600,98.433L-600,-98.737L-467.541,-98.737C-426.893,-100.658 -394.988,-123.485 -394.988,-150.653C-394.988,-177.822 -426.893,-200.648 -467.541,-202.57L-600,-202.57L-600,-353.982C-600,-379.225 -568.837,-400 -530.973,-400L-303.92,-400L-303.92,-311.694C-304.05,-310.471 -304.115,-309.244 -304.115,-308.016C-304.115,-279.464 -268.873,-255.97 -226.045,-255.97C-183.217,-255.97 -147.975,-279.464 -147.975,-308.016C-147.975,-309.244 -148.04,-310.471 -148.17,-311.694L-148.17,-400L147.975,-400L147.975,-311.694C147.825,-310.371 147.747,-309.049 147.747,-307.721C147.747,-279.169 182.989,-255.675 225.817,-255.675C268.645,-255.675 303.887,-279.169 303.887,-307.721C303.887,-309.049 303.809,-310.371 303.66,-311.694L303.66,-400L530.843,-400C568.674,-400 599.805,-379.246 599.805,-354.025L599.805,-202.657L467.346,-202.657C424.642,-202.587 389.543,-179.166 389.471,-150.697Z" clip-rule="nonzero"/>
        </clipPath>
        <g clip-path="url(#_clip1)">
            <g transform="matrix(1,0,0,1,-600,-400)">
                <rect x="0" y="0" width="1200" height="800" style="fill:rgb(211,152,74);fill-rule:nonzero;"/>
                <rect x="0" y="0" width="1200" height="533.333" style="fill:rgb(207,209,208);fill-rule:nonzero;"/>
                <rect x="0" y="0" width="1200" height="266.667" style="fill:rgb(234,191,63);fill-rule:nonzero;"/>
            </g>
        </g>
    </g>
    <path d="M166.896,65.276C166.904,62.553 169.141,60.315 171.864,60.306L199.226,60.306L199.226,18.4C199.226,18.401 199.226,18.396 199.226,18.39C199.226,8.726 191.274,0.774 181.61,0.774L181.593,0.774C181.6,0.774 139.674,0.774 139.674,0.774L139.674,28.418L139.694,28.685C139.704,28.812 139.709,28.939 139.709,29.066C139.709,31.8 137.459,34.05 134.725,34.05C131.991,34.05 129.741,31.8 129.741,29.066C129.741,28.939 129.746,28.812 129.756,28.685L129.776,28.418L129.776,0.774L70.224,0.774L70.224,28.398L70.242,28.646C70.25,28.763 70.254,28.88 70.254,28.998C70.254,31.732 68.004,33.982 65.27,33.982C62.536,33.982 60.286,31.732 60.286,28.998C60.286,28.88 60.29,28.763 60.298,28.646L60.316,28.398L60.316,0.774L18.41,0.774C18.411,0.774 18.406,0.774 18.4,0.774C8.731,0.774 0.774,8.731 0.774,18.4L0.774,60.326L27.848,60.326C30.354,60.607 32.286,62.746 32.286,65.28C32.286,67.814 30.353,69.954 27.855,70.233C27.848,70.234 0.774,70.234 0.774,70.234L0.774,129.726L28.15,129.726C30.884,129.726 33.134,131.976 33.134,134.71C33.134,137.444 30.884,139.694 28.15,139.694L0.774,139.694L0.774,181.593C0.783,191.264 8.736,199.217 18.403,199.226L60.326,199.226L60.326,171.582L60.306,171.315C60.296,171.188 60.291,171.061 60.291,170.934C60.291,168.2 62.541,165.95 65.275,165.95C68.009,165.95 70.259,168.2 70.259,170.934C70.259,171.061 70.254,171.188 70.244,171.315L70.224,171.582L70.224,199.226L129.776,199.226L129.776,171.602L129.758,171.354C129.75,171.237 129.746,171.12 129.746,171.002C129.746,168.268 131.996,166.018 134.73,166.018C137.464,166.018 139.714,168.268 139.714,171.002C139.714,171.12 139.71,171.237 139.702,171.354L139.684,171.602L139.684,199.256L181.6,199.256C191.269,199.256 199.226,191.299 199.226,181.63L199.226,181.613C199.226,181.62 199.226,139.704 199.226,139.704L171.602,139.704L171.354,139.722C171.237,139.73 171.12,139.734 171.002,139.734C168.268,139.734 166.018,137.484 166.018,134.75C166.018,132.016 168.268,129.766 171.002,129.766C171.12,129.766 171.237,129.77 171.354,129.778L171.602,129.796L199.256,129.796L199.256,70.254L171.88,70.254C169.148,70.254 166.899,68.007 166.896,65.276ZM159.88,65.27C159.88,71.853 165.297,77.27 171.88,77.27L192.24,77.27L192.24,122.78L171.85,122.78C171.568,122.76 171.285,122.75 171.002,122.75C164.419,122.75 159.002,128.167 159.002,134.75C159.002,141.333 164.419,146.75 171.002,146.75C171.285,146.75 171.568,146.74 171.85,146.72L192.21,146.72L192.21,181.63C192.21,187.45 187.42,192.24 181.6,192.24L146.7,192.24L146.7,171.85C146.72,171.568 146.73,171.285 146.73,171.002C146.73,164.419 141.313,159.002 134.73,159.002C128.147,159.002 122.73,164.419 122.73,171.002C122.73,171.285 122.74,171.568 122.76,171.85L122.76,192.21L77.24,192.21L77.24,171.85C77.263,171.545 77.275,171.24 77.275,170.934C77.275,164.351 71.858,158.934 65.275,158.934C58.692,158.934 53.275,164.351 53.275,170.934C53.275,171.24 53.287,171.545 53.31,171.85L53.31,192.21L18.41,192.21C12.586,192.205 7.795,187.414 7.79,181.59L7.79,146.71L28.15,146.71C34.733,146.71 40.15,141.293 40.15,134.71C40.15,128.127 34.733,122.71 28.15,122.71L7.79,122.71L7.79,77.25L28.15,77.25C34.398,76.807 39.302,71.544 39.302,65.28C39.302,59.016 34.398,53.753 28.15,53.31L7.79,53.31L7.79,18.4C7.79,12.58 12.58,7.79 18.4,7.79L53.3,7.79L53.3,28.15C53.28,28.432 53.27,28.715 53.27,28.998C53.27,35.581 58.687,40.998 65.27,40.998C71.853,40.998 77.27,35.581 77.27,28.998C77.27,28.715 77.26,28.432 77.24,28.15L77.24,7.79L122.76,7.79L122.76,28.15C122.737,28.455 122.725,28.76 122.725,29.066C122.725,35.649 128.142,41.066 134.725,41.066C141.308,41.066 146.725,35.649 146.725,29.066C146.725,28.76 146.713,28.455 146.69,28.15L146.69,7.79L181.61,7.79C187.425,7.79 192.21,12.575 192.21,18.39L192.21,53.29L171.85,53.29C165.286,53.306 159.891,58.706 159.88,65.27Z"/>
</svg>
