<?xml version="1.0" encoding="UTF-8" standalone="no"?>
<!DOCTYPE svg PUBLIC "-//W3C//DTD SVG 1.1//EN" "http://www.w3.org/Graphics/SVG/1.1/DTD/svg11.dtd">
<svg width="100%" height="100%" viewBox="0 0 200 200" version="1.1" xmlns="http://www.w3.org/2000/svg" xmlns:xlink="http://www.w3.org/1999/xlink" xml:space="preserve" xmlns:serif="http://www.serif.com/" style="fill-rule:evenodd;clip-rule:evenodd;stroke-linejoin:round;stroke-miterlimit:2;">
    <g id="Disability_Pride_Flag_Ann_Magill_copyrights_waived.svg" transform="matrix(0.200103,0,0,0.204944,100,100)">
        <clipPath id="_clip1">
            <path d="M299.246,-169.461C299.246,-137.34 326.317,-110.908 359.215,-110.908L460.962,-110.908L460.962,111.152L359.065,111.152C357.656,111.054 356.241,111.006 354.827,111.006C321.929,111.006 294.858,137.437 294.858,169.558C294.858,201.679 321.929,228.111 354.827,228.111C356.241,228.111 357.656,228.062 359.065,227.964L460.812,227.964L460.812,398.303C460.812,426.701 436.875,450.073 407.79,450.073L233.38,450.073L233.38,350.583C233.48,349.207 233.53,347.826 233.53,346.445C233.53,314.324 206.459,287.893 173.561,287.893C140.662,287.893 113.591,314.324 113.591,346.445C113.591,347.826 113.641,349.207 113.741,350.583L113.741,449.927L-113.741,449.927L-113.741,350.583C-113.626,349.095 -113.566,347.606 -113.566,346.113C-113.566,313.992 -140.637,287.561 -173.536,287.561C-206.434,287.561 -233.505,313.992 -233.505,346.113C-233.505,347.606 -233.445,349.095 -233.33,350.583L-233.33,449.927L-407.74,449.927C-436.845,449.902 -460.787,426.525 -460.812,398.108L-460.812,227.915L-359.065,227.915C-326.167,227.915 -299.096,201.484 -299.096,169.363C-299.096,137.242 -326.167,110.811 -359.065,110.811L-460.812,110.811L-460.812,-111.006L-359.065,-111.006C-327.841,-113.167 -303.334,-138.847 -303.334,-169.412C-303.334,-199.976 -327.841,-225.656 -359.065,-227.818L-460.812,-227.818L-460.812,-398.157C-460.812,-426.555 -436.875,-449.927 -407.79,-449.927L-233.38,-449.927L-233.38,-350.583C-233.48,-349.207 -233.53,-347.826 -233.53,-346.445C-233.53,-314.324 -206.459,-287.893 -173.561,-287.893C-140.662,-287.893 -113.591,-314.324 -113.591,-346.445C-113.591,-347.826 -113.641,-349.207 -113.741,-350.583L-113.741,-449.927L113.741,-449.927L113.741,-350.583C113.626,-349.095 113.566,-347.606 113.566,-346.113C113.566,-313.992 140.637,-287.561 173.536,-287.561C206.434,-287.561 233.505,-313.992 233.505,-346.113C233.505,-347.606 233.445,-349.095 233.33,-350.583L233.33,-449.927L407.84,-449.927C436.9,-449.927 460.812,-426.579 460.812,-398.205L460.812,-227.915L359.065,-227.915C326.262,-227.837 299.301,-201.489 299.246,-169.461Z" clip-rule="nonzero"/>
        </clipPath>
        <g clip-path="url(#_clip1)">
            <g transform="matrix(1,0,0,1,-600,-450)">
                <clipPath id="_clip2">
                    <rect x="0" y="0" width="1200" height="900"/>
                </clipPath>
                <g clip-path="url(#_clip2)">
                    <g id="g10">
                        <g id="g837">
                            <path id="path849" d="M0,900L0,0L1200,0L1200,900L0,900Z" style="fill:rgb(254,254,254);fill-rule:nonzero;"/>
                            <path id="path847" d="M0,900L0,50.843L44.25,73.29C68.588,85.636 181.41,142.464 294.967,199.573L501.434,303.407L426.467,340.589L351.5,377.77L391,397.273C534.45,468.099 796.65,598.196 798.851,599.639L801.5,601.374L651.5,675.721L708.5,704.12C812.79,756.081 1086.32,894.322 1088.01,895.923C1088.93,896.79 1090.54,898.036 1091.59,898.691C1093.07,899.614 970.178,899.896 546.75,899.941L0,900ZM1163.91,888.916C1151.58,882.819 1049.72,831.652 937.535,775.211L733.569,672.591L883.495,598.37L880.863,596.646C878.685,595.219 635.646,474.63 475,395.268L433.5,374.767L583.427,300.404L348.463,182.013C219.234,116.898 87.963,50.77 56.751,35.061L0.003,6.5L0,0L1200,0L1200,900L1193.16,900C1186.46,900 1185.84,899.765 1163.91,888.916Z" style="fill:rgb(251,220,2);fill-rule:nonzero;"/>
                            <path id="path845" d="M0,505.5C0,288.525 0.234,111 0.521,111C0.807,111 87.077,154.293 192.233,207.206L383.424,303.412L308.462,340.591L233.5,377.77L273,397.273C416.45,468.099 678.65,598.196 680.851,599.639L683.5,601.374L533.5,675.721L590.5,704.123C621.85,719.744 722.2,770.201 813.5,816.248L979.5,899.97L489.75,899.985L0,900L0,505.5ZM844.522,787.283L620.545,674.603L695.52,637.487L770.495,600.37L767.863,598.646C765.685,597.219 522.646,476.63 362,397.268L320.5,376.767L470.428,302.404L235.214,184.059L0,65.714L0,50.843L44.25,73.29C68.588,85.636 181.41,142.464 294.967,199.573L501.434,303.407L426.467,340.589L351.5,377.77L391,397.273C534.45,468.099 796.65,598.196 798.851,599.639L801.5,601.374L651.5,675.721L708.5,704.12C812.79,756.081 1086.32,894.322 1088.01,895.923C1088.93,896.79 1090.54,898.036 1091.59,898.691C1093.13,899.652 1091.09,899.89 1081,899.923L1068.5,899.963L844.522,787.283L844.522,787.283ZM1163.91,888.916C1151.58,882.819 1049.72,831.652 937.535,775.211L733.569,672.591L883.495,598.37L880.863,596.646C878.685,595.219 635.646,474.63 475,395.268L433.5,374.767L583.427,300.404L348.463,182.013C219.234,116.898 87.963,50.77 56.751,35.061L0.003,6.5L0,0L1200,0L1200,900L1193.16,900C1186.46,900 1185.84,899.765 1163.91,888.916Z" style="fill:rgb(0,161,231);fill-rule:nonzero;"/>
                            <path id="path843" d="M0,535.5C0,335.025 0.263,171 0.584,171C0.905,171 60.411,200.788 132.819,237.195L264.47,303.389L189.485,340.58L114.5,377.77L154,397.273C297.45,468.099 559.65,598.196 561.851,599.639L564.5,601.374L414.5,675.721L471.5,704.123C502.85,719.744 603.2,770.201 694.5,816.248L860.5,899.97L430.25,899.985L0,900L0,535.5ZM729.523,787.782L506.546,675.603L581.521,638.486L656.495,601.37L653.863,599.646C651.685,598.219 408.646,477.63 248,398.268L206.5,377.767L356.422,303.406L178.461,213.862L0.5,124.318L0.204,117.659C0.042,113.997 0.163,111 0.475,111C0.786,111 87.077,154.293 192.233,207.206L383.424,303.412L308.462,340.591L233.5,377.77L273,397.273C416.45,468.099 678.65,598.196 680.851,599.639L683.5,601.374L533.5,675.721L590.5,704.123C621.85,719.744 722.2,770.201 813.5,816.248L979.5,899.97L952.5,899.962L729.523,787.783L729.523,787.782ZM844.522,787.283L620.545,674.603L695.52,637.487L770.495,600.37L767.863,598.646C765.685,597.219 522.646,476.63 362,397.268L320.5,376.767L470.428,302.404L235.214,184.059L0,65.714L0,50.843L44.25,73.29C68.588,85.636 181.41,142.464 294.967,199.573L501.434,303.407L426.467,340.589L351.5,377.77L391,397.273C534.45,468.099 796.65,598.196 798.851,599.639L801.5,601.374L651.5,675.721L708.5,704.12C812.79,756.081 1086.32,894.322 1088.01,895.923C1088.93,896.79 1090.54,898.036 1091.59,898.691C1093.13,899.652 1091.09,899.89 1081,899.923L1068.5,899.963L844.522,787.283L844.522,787.283ZM1163.91,888.916C1151.58,882.819 1049.72,831.652 937.535,775.211L733.569,672.591L883.495,598.37L880.863,596.646C878.685,595.219 635.646,474.63 475,395.268L433.5,374.767L583.427,300.404L348.463,182.013C219.234,116.898 87.963,50.77 56.751,35.061L0.003,6.5L0,0L1200,0L1200,900L1193.16,900C1186.46,900 1185.84,899.765 1163.91,888.916Z" style="fill:rgb(236,27,35);fill-rule:nonzero;"/>
                            <path id="path841" d="M0,535.5C0,335.025 0.263,171 0.584,171C0.905,171 60.411,200.788 132.819,237.195L264.47,303.389L189.485,340.58L114.5,377.77L154,397.273C297.45,468.099 559.65,598.196 561.851,599.639L564.5,601.374L414.5,675.721L471.5,704.123C502.85,719.744 603.2,770.201 694.5,816.248L860.5,899.97L430.25,899.985L0,900L0,535.5ZM729.523,787.782L506.546,675.603L581.521,638.486L656.495,601.37L653.863,599.646C651.685,598.219 408.646,477.63 248,398.268L206.5,377.767L356.422,303.406L178.461,213.862L0.5,124.318L0.204,117.659C0.042,113.997 0.163,111 0.475,111C0.786,111 87.077,154.293 192.233,207.206L383.424,303.412L308.462,340.591L233.5,377.77L273,397.273C416.45,468.099 678.65,598.196 680.851,599.639L683.5,601.374L533.5,675.721L590.5,704.123C621.85,719.744 722.2,770.201 813.5,816.248L979.5,899.97L952.5,899.962L729.523,787.783L729.523,787.782ZM844.522,787.283L620.545,674.603L695.52,637.487L770.495,600.37L767.863,598.646C765.685,597.219 522.646,476.63 362,397.268L320.5,376.767L470.428,302.404L235.214,184.059L0,65.714L0,50.843L44.25,73.29C68.588,85.636 181.41,142.464 294.967,199.573L501.434,303.407L426.467,340.589L351.5,377.77L391,397.273C534.45,468.099 796.65,598.196 798.851,599.639L801.5,601.374L651.5,675.721L708.5,704.12C812.79,756.081 1086.32,894.322 1088.01,895.923C1088.93,896.79 1090.54,898.036 1091.59,898.691C1093.13,899.652 1091.09,899.89 1081,899.923L1068.5,899.963L844.522,787.283L844.522,787.283ZM1163.91,888.916C1151.58,882.819 1049.72,831.652 937.535,775.211L733.569,672.591L883.495,598.37L880.863,596.646C878.685,595.219 635.646,474.63 475,395.268L433.5,374.767L583.427,300.404L348.463,182.013C219.234,116.898 87.963,50.77 56.751,35.061L0.003,6.5L0,-0.158L14.5,0.5L614.435,302.407L539.468,339.589L464.5,376.77L504,396.273C647.45,467.099 909.65,597.196 911.851,598.639L914.5,600.374L839.521,637.493L764.542,674.611L838.223,711.556C878.747,731.875 976.717,781.125 1055.93,821L1199.96,893.5L1200,900L1193.16,900C1186.46,900 1185.84,899.765 1163.91,888.916L1163.91,888.916ZM1027.35,762.027C932.662,714.385 854.411,674.756 853.454,673.962C851.886,672.66 859.052,668.887 926.525,635.484L1001.34,598.449L778.418,488.136C655.813,427.464 554.7,377.051 553.723,376.107C552.036,374.478 555.694,372.536 626.223,337.632L700.498,300.874L554.499,227.411C474.2,187.007 339.65,119.423 255.5,77.225L102.5,0.5L650.916,0.249C952.544,0.111 1199.48,0.149 1199.67,0.334C1199.85,0.518 1199.89,191.464 1199.75,424.659L1199.5,848.648L1027.35,762.027Z" style="fill:rgb(33,176,75);fill-rule:nonzero;"/>
                            <path id="path839" d="M0,535.5C0,335.025 0.263,171 0.584,171C0.905,171 60.411,200.788 132.819,237.195L264.47,303.389L189.485,340.58L114.5,377.77L154,397.273C297.45,468.099 559.65,598.196 561.851,599.639L564.5,601.374L414.5,675.721L471.5,704.123C502.85,719.744 603.2,770.201 694.5,816.248L860.5,899.97L430.25,899.985L0,900L0,535.5ZM729.523,787.782L506.546,675.603L581.521,638.486L656.495,601.37L653.863,599.646C651.685,598.219 408.646,477.63 248,398.268L206.5,377.767L356.422,303.406L178.461,213.862L0.5,124.318L0.204,117.659C0.042,113.997 0.163,111 0.475,111C0.786,111 87.077,154.293 192.233,207.206L383.424,303.412L308.462,340.591L233.5,377.77L273,397.273C416.45,468.099 678.65,598.196 680.851,599.639L683.5,601.374L533.5,675.721L590.5,704.123C621.85,719.744 722.2,770.201 813.5,816.248L979.5,899.97L952.5,899.962L729.523,787.783L729.523,787.782ZM844.522,787.283L620.545,674.603L695.52,637.487L770.495,600.37L767.863,598.646C765.685,597.219 522.646,476.63 362,397.268L320.5,376.767L470.428,302.404L235.214,184.059L0,65.714L0,50.843L44.25,73.29C68.588,85.636 181.41,142.464 294.967,199.573L501.434,303.407L426.467,340.589L351.5,377.77L391,397.273C534.45,468.099 796.65,598.196 798.851,599.639L801.5,601.374L651.5,675.721L708.5,704.12C812.79,756.081 1086.32,894.322 1088.01,895.923C1088.93,896.79 1090.54,898.036 1091.59,898.691C1093.13,899.652 1091.09,899.89 1081,899.923L1068.5,899.963L844.522,787.283L844.522,787.283ZM1163.91,888.916C1151.58,882.819 1049.72,831.652 937.535,775.211L733.569,672.591L883.495,598.37L880.863,596.646C878.685,595.219 635.646,474.63 475,395.268L433.5,374.767L583.427,300.404L348.463,182.013C219.234,116.898 87.963,50.77 56.751,35.061L0.003,6.5L0,-0.158L14.5,0.5L614.435,302.407L539.468,339.589L464.5,376.77L504,396.273C647.45,467.099 909.65,597.196 911.851,598.639L914.5,600.374L839.521,637.493L764.542,674.611L838.223,711.556C878.747,731.875 976.717,781.125 1055.93,821L1199.96,893.5L1200,900L1193.16,900C1186.46,900 1185.84,899.765 1163.91,888.916L1163.91,888.916ZM1027.35,762.031C932.662,714.387 854.411,674.756 853.454,673.962C851.886,672.66 859.052,668.887 926.525,635.484L1001.34,598.449L778.418,488.136C655.813,427.464 554.7,377.051 553.723,376.107C552.036,374.478 555.694,372.536 626.223,337.632L700.498,300.874L554.499,227.411C474.2,187.007 339.65,119.423 255.5,77.225L102.5,0.5L130.247,-0.058L428.548,150.028C592.614,232.575 727.324,300.685 727.904,301.384C728.723,302.372 712.394,310.854 654.828,339.343C614.056,359.521 580.877,376.196 581.098,376.398C581.319,376.6 681.169,426.098 802.986,486.392C924.804,546.687 1025.51,597.051 1026.77,598.312L1029.06,600.606L880.5,674.165L941,704.383C1025.98,746.827 1198.28,833.879 1199.27,834.871C1199.73,835.326 1199.96,838.614 1199.8,842.177L1199.5,848.657L1027.35,762.031ZM1085.02,731.748L971.545,674.603L1046.52,637.487L1121.5,600.37L1118.83,598.624C1117.36,597.663 1016.56,547.586 894.832,487.342C773.099,427.098 673.157,377.484 672.737,377.09C672.317,376.696 705.51,359.78 746.498,339.498C787.486,319.216 820.679,302.328 820.261,301.969C819.503,301.319 281.773,30.753 241.169,10.592L219.838,0L1200,0L1200,394.5C1200,611.475 1199.66,788.976 1199.25,788.946C1198.84,788.917 1147.43,763.177 1085.02,731.748Z" style="fill-rule:nonzero;"/>
                        </g>
                    </g>
                </g>
            </g>
        </g>
    </g>
    <path d="M166.896,65.276C166.904,62.553 169.141,60.315 171.864,60.306L199.226,60.306L199.226,18.4C199.226,18.401 199.226,18.396 199.226,18.39C199.226,8.726 191.274,0.774 181.61,0.774L181.593,0.774C181.6,0.774 139.674,0.774 139.674,0.774L139.674,28.418L139.694,28.685C139.704,28.812 139.709,28.939 139.709,29.066C139.709,31.8 137.459,34.05 134.725,34.05C131.991,34.05 129.741,31.8 129.741,29.066C129.741,28.939 129.746,28.812 129.756,28.685L129.776,28.418L129.776,0.774L70.224,0.774L70.224,28.398L70.242,28.646C70.25,28.763 70.254,28.88 70.254,28.998C70.254,31.732 68.004,33.982 65.27,33.982C62.536,33.982 60.286,31.732 60.286,28.998C60.286,28.88 60.29,28.763 60.298,28.646L60.316,28.398L60.316,0.774L18.41,0.774C18.411,0.774 18.406,0.774 18.4,0.774C8.731,0.774 0.774,8.731 0.774,18.4L0.774,60.326L27.848,60.326C30.354,60.607 32.286,62.746 32.286,65.28C32.286,67.814 30.353,69.954 27.855,70.233C27.848,70.234 0.774,70.234 0.774,70.234L0.774,129.726L28.15,129.726C30.884,129.726 33.134,131.976 33.134,134.71C33.134,137.444 30.884,139.694 28.15,139.694L0.774,139.694L0.774,181.593C0.783,191.264 8.736,199.217 18.403,199.226L60.326,199.226L60.326,171.582L60.306,171.315C60.296,171.188 60.291,171.061 60.291,170.934C60.291,168.2 62.541,165.95 65.275,165.95C68.009,165.95 70.259,168.2 70.259,170.934C70.259,171.061 70.254,171.188 70.244,171.315L70.224,171.582L70.224,199.226L129.776,199.226L129.776,171.602L129.758,171.354C129.75,171.237 129.746,171.12 129.746,171.002C129.746,168.268 131.996,166.018 134.73,166.018C137.464,166.018 139.714,168.268 139.714,171.002C139.714,171.12 139.71,171.237 139.702,171.354L139.684,171.602L139.684,199.256L181.6,199.256C191.269,199.256 199.226,191.299 199.226,181.63L199.226,181.613C199.226,181.62 199.226,139.704 199.226,139.704L171.602,139.704L171.354,139.722C171.237,139.73 171.12,139.734 171.002,139.734C168.268,139.734 166.018,137.484 166.018,134.75C166.018,132.016 168.268,129.766 171.002,129.766C171.12,129.766 171.237,129.77 171.354,129.778L171.602,129.796L199.256,129.796L199.256,70.254L171.88,70.254C169.148,70.254 166.899,68.007 166.896,65.276ZM159.88,65.27C159.88,71.853 165.297,77.27 171.88,77.27L192.24,77.27L192.24,122.78L171.85,122.78C171.568,122.76 171.285,122.75 171.002,122.75C164.419,122.75 159.002,128.167 159.002,134.75C159.002,141.333 164.419,146.75 171.002,146.75C171.285,146.75 171.568,146.74 171.85,146.72L192.21,146.72L192.21,181.63C192.21,187.45 187.42,192.24 181.6,192.24L146.7,192.24L146.7,171.85C146.72,171.568 146.73,171.285 146.73,171.002C146.73,164.419 141.313,159.002 134.73,159.002C128.147,159.002 122.73,164.419 122.73,171.002C122.73,171.285 122.74,171.568 122.76,171.85L122.76,192.21L77.24,192.21L77.24,171.85C77.263,171.545 77.275,171.24 77.275,170.934C77.275,164.351 71.858,158.934 65.275,158.934C58.692,158.934 53.275,164.351 53.275,170.934C53.275,171.24 53.287,171.545 53.31,171.85L53.31,192.21L18.41,192.21C12.586,192.205 7.795,187.414 7.79,181.59L7.79,146.71L28.15,146.71C34.733,146.71 40.15,141.293 40.15,134.71C40.15,128.127 34.733,122.71 28.15,122.71L7.79,122.71L7.79,77.25L28.15,77.25C34.398,76.807 39.302,71.544 39.302,65.28C39.302,59.016 34.398,53.753 28.15,53.31L7.79,53.31L7.79,18.4C7.79,12.58 12.58,7.79 18.4,7.79L53.3,7.79L53.3,28.15C53.28,28.432 53.27,28.715 53.27,28.998C53.27,35.581 58.687,40.998 65.27,40.998C71.853,40.998 77.27,35.581 77.27,28.998C77.27,28.715 77.26,28.432 77.24,28.15L77.24,7.79L122.76,7.79L122.76,28.15C122.737,28.455 122.725,28.76 122.725,29.066C122.725,35.649 128.142,41.066 134.725,41.066C141.308,41.066 146.725,35.649 146.725,29.066C146.725,28.76 146.713,28.455 146.69,28.15L146.69,7.79L181.61,7.79C187.425,7.79 192.21,12.575 192.21,18.39L192.21,53.29L171.85,53.29C165.286,53.306 159.891,58.706 159.88,65.27Z"/>
</svg>
