<?xml version="1.0" encoding="UTF-8" standalone="no"?>
<!DOCTYPE svg PUBLIC "-//W3C//DTD SVG 1.1//EN" "http://www.w3.org/Graphics/SVG/1.1/DTD/svg11.dtd">
<svg width="100%" height="100%" viewBox="0 0 200 200" version="1.1" xmlns="http://www.w3.org/2000/svg" xmlns:xlink="http://www.w3.org/1999/xlink" xml:space="preserve" xmlns:serif="http://www.serif.com/" style="fill-rule:evenodd;clip-rule:evenodd;stroke-linejoin:round;stroke-miterlimit:2;">
    <path d="M166.896,65.276C166.904,62.553 169.141,60.315 171.864,60.306L199.226,60.306L199.226,18.4C199.226,18.401 199.226,18.396 199.226,18.39C199.226,8.726 191.274,0.774 181.61,0.774L181.593,0.774C181.6,0.774 139.674,0.774 139.674,0.774L139.674,28.418L139.694,28.685C139.704,28.812 139.709,28.939 139.709,29.066C139.709,31.8 137.459,34.05 134.725,34.05C131.991,34.05 129.741,31.8 129.741,29.066C129.741,28.939 129.746,28.812 129.756,28.685L129.776,28.418L129.776,0.774L70.224,0.774L70.224,28.398L70.242,28.646C70.25,28.763 70.254,28.88 70.254,28.998C70.254,31.732 68.004,33.982 65.27,33.982C62.536,33.982 60.286,31.732 60.286,28.998C60.286,28.88 60.29,28.763 60.298,28.646L60.316,28.398L60.316,0.774L18.41,0.774C18.411,0.774 18.406,0.774 18.4,0.774C8.731,0.774 0.774,8.731 0.774,18.4L0.774,60.326L27.848,60.326C30.354,60.607 32.286,62.746 32.286,65.28C32.286,67.814 30.353,69.954 27.855,70.233C27.848,70.234 0.774,70.234 0.774,70.234L0.774,129.726L28.15,129.726C30.884,129.726 33.134,131.976 33.134,134.71C33.134,137.444 30.884,139.694 28.15,139.694L0.774,139.694L0.774,181.593C0.783,191.264 8.736,199.217 18.403,199.226L60.326,199.226L60.326,171.582L60.306,171.315C60.296,171.188 60.291,171.061 60.291,170.934C60.291,168.2 62.541,165.95 65.275,165.95C68.009,165.95 70.259,168.2 70.259,170.934C70.259,171.061 70.254,171.188 70.244,171.315L70.224,171.582L70.224,199.226L129.776,199.226L129.776,171.602L129.758,171.354C129.75,171.237 129.746,171.12 129.746,171.002C129.746,168.268 131.996,166.018 134.73,166.018C137.464,166.018 139.714,168.268 139.714,171.002C139.714,171.12 139.71,171.237 139.702,171.354L139.684,171.602L139.684,199.256L181.6,199.256C191.269,199.256 199.226,191.299 199.226,181.63L199.226,181.613C199.226,181.62 199.226,139.704 199.226,139.704L171.602,139.704L171.354,139.722C171.237,139.73 171.12,139.734 171.002,139.734C168.268,139.734 166.018,137.484 166.018,134.75C166.018,132.016 168.268,129.766 171.002,129.766C171.12,129.766 171.237,129.77 171.354,129.778L171.602,129.796L199.256,129.796L199.256,70.254L171.88,70.254C169.148,70.254 166.899,68.007 166.896,65.276ZM159.88,65.27C159.88,71.853 165.297,77.27 171.88,77.27L192.24,77.27L192.24,122.78L171.85,122.78C171.568,122.76 171.285,122.75 171.002,122.75C164.419,122.75 159.002,128.167 159.002,134.75C159.002,141.333 164.419,146.75 171.002,146.75C171.285,146.75 171.568,146.74 171.85,146.72L192.21,146.72L192.21,181.63C192.21,187.45 187.42,192.24 181.6,192.24L146.7,192.24L146.7,171.85C146.72,171.568 146.73,171.285 146.73,171.002C146.73,164.419 141.313,159.002 134.73,159.002C128.147,159.002 122.73,164.419 122.73,171.002C122.73,171.285 122.74,171.568 122.76,171.85L122.76,192.21L77.24,192.21L77.24,171.85C77.263,171.545 77.275,171.24 77.275,170.934C77.275,164.351 71.858,158.934 65.275,158.934C58.692,158.934 53.275,164.351 53.275,170.934C53.275,171.24 53.287,171.545 53.31,171.85L53.31,192.21L18.41,192.21C12.586,192.205 7.795,187.414 7.79,181.59L7.79,146.71L28.15,146.71C34.733,146.71 40.15,141.293 40.15,134.71C40.15,128.127 34.733,122.71 28.15,122.71L7.79,122.71L7.79,77.25L28.15,77.25C34.398,76.807 39.302,71.544 39.302,65.28C39.302,59.016 34.398,53.753 28.15,53.31L7.79,53.31L7.79,18.4C7.79,12.58 12.58,7.79 18.4,7.79L53.3,7.79L53.3,28.15C53.28,28.432 53.27,28.715 53.27,28.998C53.27,35.581 58.687,40.998 65.27,40.998C71.853,40.998 77.27,35.581 77.27,28.998C77.27,28.715 77.26,28.432 77.24,28.15L77.24,7.79L122.76,7.79L122.76,28.15C122.737,28.455 122.725,28.76 122.725,29.066C122.725,35.649 128.142,41.066 134.725,41.066C141.308,41.066 146.725,35.649 146.725,29.066C146.725,28.76 146.713,28.455 146.69,28.15L146.69,7.79L181.61,7.79C187.425,7.79 192.21,12.575 192.21,18.39L192.21,53.29L171.85,53.29C165.286,53.306 159.891,58.706 159.88,65.27Z"/>
    <g transform="matrix(0.0474912,0,0,0.0474912,-49.5822,7.0245)">
        <clipPath id="_clip1">
            <path d="M4410.55,1226.45C4410.55,1365.06 4524.62,1479.13 4663.23,1479.13L5091.94,1479.13L5091.94,2437.41L4662.6,2437.41C4656.66,2436.99 4650.7,2436.78 4644.74,2436.78C4506.13,2436.78 4392.07,2550.84 4392.07,2689.46C4392.07,2828.07 4506.13,2942.14 4644.74,2942.14C4650.7,2942.14 4656.66,2941.93 4662.6,2941.51L5091.31,2941.51L5091.31,3676.59C5091.31,3799.14 4990.45,3900 4867.9,3900L4133.02,3900L4133.02,3470.66C4133.45,3464.72 4133.66,3458.76 4133.66,3452.8C4133.66,3314.18 4019.6,3200.12 3880.98,3200.12C3742.36,3200.12 3628.3,3314.18 3628.3,3452.8C3628.3,3458.76 3628.51,3464.72 3628.93,3470.66L3628.93,3899.37L2670.44,3899.37L2670.44,3470.66C2670.92,3464.24 2671.17,3457.82 2671.17,3451.37C2671.17,3312.76 2557.11,3198.69 2418.49,3198.69C2279.88,3198.69 2165.82,3312.76 2165.82,3451.37C2165.82,3457.82 2166.07,3464.24 2166.55,3470.66L2166.55,3899.37L1431.68,3899.37C1309.05,3899.26 1208.16,3798.38 1208.06,3675.75L1208.06,2941.3L1636.77,2941.3C1775.38,2941.3 1889.45,2827.23 1889.45,2688.62C1889.45,2550 1775.38,2435.94 1636.77,2435.94L1208.06,2435.94L1208.06,1478.71L1636.77,1478.71C1768.33,1469.38 1871.59,1358.56 1871.59,1226.66C1871.59,1094.76 1768.33,983.94 1636.77,974.612L1208.06,974.612L1208.06,239.531C1208.06,116.979 1308.92,16.118 1431.47,16.118L2166.34,16.118L2166.34,444.829C2165.92,450.764 2165.71,456.729 2165.71,462.684C2165.71,601.299 2279.78,715.366 2418.39,715.366C2557.01,715.366 2671.07,601.299 2671.07,462.684C2671.07,456.729 2670.86,450.764 2670.44,444.829L2670.44,16.118L3628.93,16.118L3628.93,444.829C3628.45,451.252 3628.2,457.675 3628.2,464.119C3628.2,602.733 3742.26,716.8 3880.87,716.8C4019.49,716.8 4133.55,602.733 4133.55,464.119C4133.55,457.675 4133.3,451.252 4132.81,444.829L4132.81,16.118L4868.11,16.118C4990.55,16.118 5091.31,116.87 5091.31,239.321L5091.31,974.191L4662.6,974.191C4524.38,974.528 4410.78,1088.23 4410.55,1226.45Z"/>
        </clipPath>
        <g clip-path="url(#_clip1)">
            <rect id="rect28784" x="0" y="1114.12" width="6300" height="1656.82" style="fill:rgb(49,198,158);"/>
            <g id="g103">
            </g>
            <g id="g111">
            </g>
            <g id="g127">
            </g>
            <rect id="rect80" x="0" y="2770.94" width="6300" height="572.548" style="fill:rgb(52,125,222);"/>
            <rect id="rect83" x="0" y="548.799" width="6300" height="565.32" style="fill:rgb(52,125,222);"/>
            <path id="rect87" d="M4633.44,1667.52L6300,1667.52L6300,2217.54L4633.44,2217.54L4896.92,1942.53L4633.44,1667.52Z" style="fill-rule:nonzero;"/>
            <path id="rect87-3" d="M-0,1667.52L1669.25,1667.52L1932.74,1942.53L1669.25,2217.54L-0,2217.54L-0,1667.52Z" style="fill-rule:nonzero;"/>
            <rect id="rect123" x="0" y="3343.49" width="6300" height="556.511" style="fill:rgb(107,63,189);"/>
            <rect id="rect131" x="0" y="0" width="6300" height="548.799" style="fill:rgb(107,63,189);"/>
            <path id="path3104" d="M2554.55,294.156C2121.37,295.524 1915.41,540.817 1822.01,806.373C1720.58,1094.74 1822.36,1480.04 1991.69,1667.52L3728.35,3552.51L4285.55,3552.51L2336.76,1425.53C2081.57,1120.74 2228.24,690.014 2554.55,690.136C2935.65,690.279 3081.65,1178 2800.62,1425.53L1991.69,2217.54C1722.58,2467.35 1675.16,2771.68 1748.45,2992.48C2046.16,3889.47 3360.38,3569.06 3626.52,3320.57C3875.06,3088.53 4183.01,2678.85 4028.16,2217.54L4311,2217.54L4582.53,1942.53L4311,1667.52L3547.33,1667.52L3275.8,1942.53L3637.84,2347.59C3679.23,2680.51 3432.48,2829.49 3222.72,3003.7C2993.56,3194.03 2472.62,3210.47 2301.04,2992.48C2115.47,2756.71 2287.21,2464.72 2554.55,2217.54L3117.41,1667.52C3314.94,1467.29 3440.68,1124.23 3321.91,806.373C3239.93,586.968 2972.87,302.418 2554.55,294.156Z" style="fill-rule:nonzero;"/>
        </g>
    </g>
</svg>
