<?xml version="1.0" encoding="UTF-8" standalone="no"?>
<!-- Created with Inkscape (http://www.inkscape.org/) -->

<svg
   width="250"
   height="250"
   viewBox="0 0 250 250"
   version="1.1"
   id="svg5"
   inkscape:version="1.2.2 (b0a8486541, 2022-12-01)"
   sodipodi:docname="build-tools.svg"
   inkscape:export-filename="500px/build-tools.png"
   inkscape:export-xdpi="192"
   inkscape:export-ydpi="192"
   xmlns:inkscape="http://www.inkscape.org/namespaces/inkscape"
   xmlns:sodipodi="http://sodipodi.sourceforge.net/DTD/sodipodi-0.dtd"
   xmlns="http://www.w3.org/2000/svg"
   xmlns:svg="http://www.w3.org/2000/svg">
  <sodipodi:namedview
     id="namedview7"
     pagecolor="#20172e"
     bordercolor="#999999"
     borderopacity="1"
     inkscape:showpageshadow="0"
     inkscape:pageopacity="0"
     inkscape:pagecheckerboard="0"
     inkscape:deskcolor="#d1d1d1"
     inkscape:document-units="mm"
     showgrid="false"
     inkscape:zoom="1.7"
     inkscape:cx="133.52941"
     inkscape:cy="228.52941"
     inkscape:window-width="1441"
     inkscape:window-height="1080"
     inkscape:window-x="2162"
     inkscape:window-y="71"
     inkscape:window-maximized="0"
     inkscape:current-layer="svg5" />
  <defs
     id="defs2" />
  <path
     id="path729-5-6"
     mask="none"
     style="display:inline;fill:#3b38fa;fill-opacity:1;stroke:none;stroke-width:24.8624;stroke-dasharray:none;stroke-opacity:1"
     d="m 138.1481,11.387942 c 5.49721,6.264591 10.31137,13.165635 13.58055,20.847984 1.73989,4.344832 3.39681,8.904992 3.55897,13.617665 a 85.590711,85.590711 0 0 1 54.84474,75.452359 85.590711,85.590711 0 0 1 -8.28946,40.17643 c 7.55156,6.8954 15.2074,13.67593 22.9206,20.39042 0.28171,-0.50092 0.59266,-0.98454 0.86439,-1.4913 12.1394,-22.2703 16.67081,-48.64011 12.39181,-73.66174 -3.94326,-23.809932 -15.52596,-46.341528 -32.84168,-63.187195 -17.97108,-17.684057 -41.8852,-29.275642 -66.95666,-32.139383 -0.0243,-0.0029 -0.049,-0.0023 -0.0733,-0.0053 z M 40.158207,137.50968 c -0.430115,2.22988 -0.768494,4.47827 -0.931541,6.73217 -0.58629,8.2984 -0.09461,16.67426 -0.0021,24.93828 0.07424,4.6352 0.06552,9.42661 -0.140494,13.95018 -0.258929,5.98927 -0.632082,11.97329 -1.031325,17.95982 15.894264,18.21923 37.624762,31.31917 61.252624,36.54741 24.060189,5.44728 49.890199,2.97903 72.372799,-7.23207 3.49461,-1.56628 6.86853,-3.37967 10.18346,-5.29652 -4.20222,-4.53763 -8.40021,-9.07903 -12.62414,-13.59608 -2.77825,-2.95077 -5.56499,-5.89832 -8.34721,-8.84774 a 85.590711,85.590711 0 0 1 -32.03701,8.33416 85.590711,85.590711 0 0 1 -88.695027,-73.48961 z"
     inkscape:label="outer-ring" />
  <path
     id="path729-5"
     mask="none"
     style="display:inline;fill:#499bf9;fill-opacity:1;stroke:none;stroke-width:24.8624;stroke-dasharray:none;stroke-opacity:1"
     d="m 155.2877,45.900035 c 0.0209,0.648713 0.0164,1.299855 -0.0231,1.954174 -0.19394,5.010591 -2.29826,9.837621 -5.602,13.57982 -1.10445,1.313544 -2.29781,2.530844 -3.52656,3.71029 a 64.380323,64.380323 0 0 1 42.78859,57.218891 64.380323,64.380323 0 0 1 -3.67668,23.66601 c 0.42101,0.40132 0.83931,0.80925 1.26058,1.20974 5.11117,4.83926 10.27509,9.62202 15.4733,14.36709 a 85.568697,85.568697 0 0 0 8.1072,-40.28471 85.568697,85.568697 0 0 0 -54.80119,-75.421305 z M 52.026482,115.57704 c -2.667864,2.68378 -5.130743,5.5966 -7.059534,8.86298 -2.434909,3.96505 -3.937252,8.38434 -4.826617,12.93119 a 85.568697,85.568697 0 0 0 88.690509,73.62255 85.568697,85.568697 0 0 0 32.12004,-8.26525 c -5.21787,-5.53173 -10.47196,-11.02987 -15.76159,-16.49395 a 64.380323,64.380323 0 0 1 -17.4003,3.59478 64.380323,64.380323 0 0 1 -67.468357,-61.13538 64.380323,64.380323 0 0 1 0.470546,-9.62685 c -2.966498,-1.02513 -5.841736,-2.37684 -8.764697,-3.49007 z"
     inkscape:label="inner-ring" />
  <path
     id="path4597"
     style="display:inline;fill:#8f13fa;fill-opacity:1;stroke:none;stroke-width:10.0504;stroke-dasharray:none"
     d="m 108.56802,84.504585 c -5.79677,8.362031 -12.638128,16.094705 -20.855093,22.152965 -2.470535,1.85048 -5.037662,3.57004 -7.660212,5.19752 7.974557,4.66442 15.464535,10.11682 22.520015,16.07309 9.45428,7.9455 18.87865,15.9386 27.83425,24.44911 14.54616,13.73379 28.36397,28.21241 42.09318,42.75521 13.71044,14.54057 27.19451,29.29255 40.81004,43.92263 3.07206,3.0677 7.5856,4.77658 11.91355,3.98072 5.97331,-0.98341 11.07198,-4.94037 14.64931,-9.67837 2.83628,-3.81024 4.90277,-8.52803 4.47558,-13.3616 -0.31107,-2.89191 -1.95176,-5.53262 -4.29763,-7.22504 -27.77866,-23.12491 -54.76184,-47.23056 -80.44019,-72.67444 -15.17582,-15.06202 -29.90875,-30.60798 -43.43165,-47.183362 -2.31663,-2.978479 -5.17584,-5.601488 -7.42947,-8.671737 -0.0607,0.08777 -0.12112,0.175536 -0.18168,0.263304 z"
     inkscape:label="hammer-handle" />
  <path
     id="path352"
     style="display:inline;fill:#d034d8;fill-opacity:1;stroke:none;stroke-width:9.79817;stroke-dasharray:none"
     d="m 94.187098,0.04004151 c -3.757603,0.45080756 -6.606933,3.32766509 -8.808666,6.18522499 -2.200715,2.8962638 -3.929229,6.1148485 -5.527715,9.3728285 -0.223899,0.491441 -0.64867,1.362418 -0.897256,1.902092 2.740622,3.164227 5.154873,6.998631 5.342315,11.293735 0.157963,2.878989 -1.409294,5.799621 -4.038612,7.061322 -3.558812,1.762253 -7.71673,1.307458 -11.476078,0.536585 -1.522028,-0.323076 -3.023571,-0.738581 -4.504321,-1.215613 -13.745063,15.861878 -27.521938,31.6971 -41.24714,47.575619 -0.553406,0.679984 -1.166635,1.596268 -1.529445,2.185173 -3.441337,5.742928 -5.081106,12.345819 -6.304659,18.867712 -0.344551,1.90566 -0.625957,3.82192 -0.880938,5.74141 -0.08912,0.81642 -0.242934,1.97885 -0.334818,2.93212 -0.438683,4.09425 -0.689097,8.26465 -0.806062,12.29584 -0.09137,3.09631 -0.100089,6.16424 -0.04115,9.31257 0.07659,3.81585 0.268228,7.8496 0.572803,11.74182 0.23036,2.96799 0.556648,6.17033 0.940245,9.21825 1.141618,8.47462 2.652513,16.98654 5.750946,24.99075 1.197164,2.8788 2.513635,5.87841 4.881649,7.99702 0.551495,-7.66559 0.484382,-15.35876 0.286155,-22.99068 -0.221329,-10.92423 -0.781639,-22.02817 1.744017,-32.75306 1.971919,-8.63335 6.295703,-16.65624 12.205096,-23.23061 2.430775,-2.753 5.109613,-5.62459 8.77432,-6.63001 3.94383,-1.20063 8.079391,0.0901 11.703545,1.70219 2.966697,1.21095 5.930114,2.97644 9.239074,2.82771 2.37979,-0.18034 4.154039,-1.95814 6.040079,-3.21872 7.449708,-5.594253 14.11275,-12.22059 19.917802,-19.499839 2.800253,-3.660977 5.603846,-7.46153 7.135046,-11.853472 0.67663,-1.960316 0.20737,-4.062911 0.55761,-6.077952 0.34468,-3.331819 1.64726,-6.93434 4.70126,-8.684435 3.24027,-1.869308 7.21337,-1.242822 10.61276,-0.181512 3.64044,1.148208 7.06569,2.869413 10.41409,4.681269 3.85883,-3.046138 7.90603,-5.975778 11.03627,-9.808562 1.54277,-1.861358 2.42411,-4.311652 2.02767,-6.735287 -0.7503,-4.841422 -2.81778,-9.378853 -5.19734,-13.622663 -1.30477,-2.287081 -2.75699,-4.478997 -4.27381,-6.536588 C 126.25802,17.463092 118.91147,10.471849 110.38703,5.3326548 105.69763,2.5902034 100.53254,0.25595901 95.029678,2.1994548e-4 94.748306,-0.00188448 94.466945,0.01109281 94.187056,0.03999358 Z"
     inkscape:label="hammer-head" />
</svg>
