<?xml version="1.0" encoding="UTF-8" standalone="no"?>
<!-- Created with Inkscape (http://www.inkscape.org/) -->

<svg
   width="250"
   height="250"
   viewBox="0 0 250 250"
   version="1.1"
   id="svg5"
   inkscape:version="1.2.2 (b0a8486541, 2022-12-01)"
   sodipodi:docname="chasm.svg"
   inkscape:export-filename="500px/chasm.png"
   inkscape:export-xdpi="192"
   inkscape:export-ydpi="192"
   xml:space="preserve"
   xmlns:inkscape="http://www.inkscape.org/namespaces/inkscape"
   xmlns:sodipodi="http://sodipodi.sourceforge.net/DTD/sodipodi-0.dtd"
   xmlns="http://www.w3.org/2000/svg"
   xmlns:svg="http://www.w3.org/2000/svg"><sodipodi:namedview
     id="namedview7"
     pagecolor="#20172e"
     bordercolor="#999999"
     borderopacity="1"
     inkscape:showpageshadow="0"
     inkscape:pageopacity="0"
     inkscape:pagecheckerboard="0"
     inkscape:deskcolor="#d1d1d1"
     inkscape:document-units="mm"
     showgrid="false"
     inkscape:zoom="0.5"
     inkscape:cx="-447"
     inkscape:cy="-3"
     inkscape:window-width="1374"
     inkscape:window-height="1034"
     inkscape:window-x="2507"
     inkscape:window-y="71"
     inkscape:window-maximized="0"
     inkscape:current-layer="svg5"
     showguides="false" /><defs
     id="defs2"><style
       id="style40072">.cls-1{fill:#34f;}</style></defs><path
     id="path31217"
     style="display:inline;opacity:1;fill:#3b38fa;stroke-width:1.23952"
     d="M 131.59136,13.803593 C 120.91909,13.493326 110.25855,14.739563 99.945607,17.503042 51.889122,30.379663 18.4728,73.928563 18.472763,123.68028 c 3.9e-5,49.75171 33.41636,93.30061 81.472844,106.17723 32.532063,8.63794 67.228533,1.89487 94.157303,-18.29897 2.23244,-2.23068 1.52584,-4.47675 -2.89769,-3.44019 -5.72291,2.08412 -11.77276,3.26198 -17.85888,3.48812 -10.76768,0.45172 -21.58862,-2.29945 -30.9355,-7.62985 -11.68218,2.11774 -23.68545,1.66572 -35.17527,-1.32466 -35.742987,-9.57724 -60.596896,-41.96784 -60.596449,-78.97168 -4.48e-4,-37.003853 24.853462,-69.394449 60.596449,-78.971691 35.74262,-9.577199 73.46166,6.046579 91.96334,38.09256 L 223.59174,68.71797 C 204.52559,35.6949 169.70714,14.91201 131.59136,13.803593 Z"
     sodipodi:nodetypes="cccccccccccccc"
     inkscape:label="outer-ring" /><path
     id="path31158"
     style="display:inline;opacity:1;fill:#499bf9;stroke-width:1.23952"
     d="m 130.77217,41.959057 c -7.93742,-0.231379 -15.86622,0.694859 -23.5366,2.749532 -35.742987,9.577242 -60.596897,41.967838 -60.596449,78.971691 -4.47e-4,37.00384 24.853462,69.39444 60.596449,78.97168 11.57968,3.099 23.69917,3.6137 35.4999,1.50767 -3.15385,-1.77203 -6.1448,-3.83222 -8.91092,-6.16575 -4.58399,-3.81148 -8.50537,-8.37233 -11.67571,-13.40777 -31.261191,-3.197 -55.062709,-29.48171 -55.151856,-60.90583 2.02e-4,-33.909218 27.489002,-61.398017 61.398216,-61.398219 21.93199,0.0067 42.195,11.711534 53.15834,30.706734 L 199.19891,82.801149 C 185.01788,58.240182 159.12114,42.783105 130.77217,41.959057 Z"
     sodipodi:nodetypes="cccccccccccc"
     inkscape:label="inner-ring" /><path
     id="circle14421"
     style="display:inline;fill:#8f13fa;fill-opacity:1;stroke-width:1.75403"
     inkscape:label="magnifying-glass"
     d="M 209.64453 187.75586 L 193.16992 200.06055 L 232.58594 246.8457 C 235.18091 249.92576 239.74807 250.31565 242.82812 247.7207 L 247.40625 243.86328 C 250.48631 241.26831 250.87815 236.69724 248.2832 233.61719 L 209.64453 187.75586 z " /><path
     id="path4493"
     style="display:inline;fill:#d034d8;fill-opacity:1;stroke-width:1.75403"
     inkscape:label="magnifying-glass"
     d="m 169.91602,102.08008 c -11.61127,0.29142 -23.07346,4.64965 -31.91016,12.19336 -9.82615,8.25848 -16.32349,20.3348 -17.81445,33.08203 -1.51016,12.19005 1.56191,24.87635 8.48828,35.02148 6.88393,10.23823 17.59596,17.81574 29.54101,20.90039 11.5497,3.07938 24.1488,1.89177 34.94922,-3.21679 6.20041,-4.63102 11.48018,-8.57441 16.47461,-12.30469 3.85931,-4.32346 7.00434,-9.28195 9.19727,-14.65234 4.83244,-11.6775 5.19552,-25.15968 0.83593,-37.03711 -4.20282,-11.79941 -12.89548,-21.92517 -23.94921,-27.82422 -7.87114,-4.25436 -16.86171,-6.4486 -25.8125,-6.16211 z m 2.11328,18.49609 c 4.1558,0.10508 8.2955,0.99868 12.11914,2.62891 9.11478,3.74644 16.1779,11.90435 18.85156,21.35742 0.15109,0.52517 0.34054,1.34842 0.42773,1.70117 0.76511,3.46096 0.96484,7.04287 0.60352,10.56836 -0.57986,6.08803 -2.97242,11.95169 -6.69141,16.79102 -0.35612,0.46359 -0.72356,0.91722 -1.10351,1.36133 -0.14053,0.16399 -0.28009,0.32904 -0.42383,0.49023 -0.17083,0.19189 -0.34424,0.37861 -0.51953,0.56641 -0.19176,0.20509 -0.38892,0.40739 -0.58594,0.60742 -0.15616,0.15886 -0.30932,0.32098 -0.46875,0.47656 -0.34261,0.33369 -0.69344,0.6585 -1.05078,0.97656 -0.11996,0.10698 -0.24363,0.21125 -0.36523,0.31641 -0.29212,0.25218 -0.58733,0.49885 -0.88868,0.74023 -0.11936,0.0957 -0.23857,0.19117 -0.35937,0.28516 -0.41277,0.32079 -0.83079,0.63572 -1.25977,0.93555 -0.39521,0.28399 -0.79743,0.55932 -1.20507,0.82421 -0.13499,0.0877 -0.27388,0.16835 -0.41016,0.25391 -0.26635,0.16731 -0.53358,0.33297 -0.80469,0.49219 -0.10084,0.0591 -0.20326,0.11581 -0.30469,0.17383 -0.77764,0.44522 -1.57501,0.85587 -2.38672,1.23437 -0.12009,0.0559 -0.24057,0.10962 -0.36132,0.16406 -0.80082,0.36155 -1.61606,0.69038 -2.44336,0.98633 -0.11336,0.0405 -0.22604,0.0838 -0.33985,0.12305 -4.77277,1.64864 -9.92268,2.20663 -14.9375,1.55273 -1.95557,-0.23814 -4.00725,-0.7013 -5.80273,-1.27929 -8.34234,-2.55818 -15.47595,-8.68585 -19.40625,-16.45899 -4.69509,-8.9926 -4.71376,-20.16158 -0.30273,-29.26562 5.11839,-10.86831 16.65679,-18.27045 28.63867,-18.59961 0.59349,-0.0173 1.18755,-0.0189 1.78125,-0.004 z"
     sodipodi:nodetypes="cccccccccccccccccccccccccccscccccsccccccc" /></svg>
