<?xml version="1.0" encoding="UTF-8" standalone="no"?>
<!-- Created with Inkscape (http://www.inkscape.org/) -->

<svg
   width="250"
   height="250"
   viewBox="0 0 250 250"
   version="1.1"
   id="svg5"
   inkscape:version="1.2.2 (b0a8486541, 2022-12-01)"
   sodipodi:docname="comm-tools.svg"
   inkscape:export-filename="500px/commtools.png"
   inkscape:export-xdpi="192"
   inkscape:export-ydpi="192"
   xml:space="preserve"
   xmlns:inkscape="http://www.inkscape.org/namespaces/inkscape"
   xmlns:sodipodi="http://sodipodi.sourceforge.net/DTD/sodipodi-0.dtd"
   xmlns="http://www.w3.org/2000/svg"
   xmlns:svg="http://www.w3.org/2000/svg"><sodipodi:namedview
     id="namedview7"
     pagecolor="#20172e"
     bordercolor="#c9c9c9"
     borderopacity="0.58039216"
     inkscape:showpageshadow="false"
     inkscape:pageopacity="0"
     inkscape:pagecheckerboard="0"
     inkscape:deskcolor="#20172e"
     inkscape:document-units="mm"
     showgrid="false"
     inkscape:zoom="2"
     inkscape:cx="66.25"
     inkscape:cy="97"
     inkscape:window-width="2320"
     inkscape:window-height="1411"
     inkscape:window-x="1920"
     inkscape:window-y="0"
     inkscape:window-maximized="0"
     inkscape:current-layer="svg5"
     showguides="true" /><defs
     id="defs2"><style
       id="style40072">.cls-1{fill:#34f;}</style><style
       id="style44279">.cls-1{fill:#1b112b;}.cls-2{fill:#9722ff;}.cls-3{fill:#dc29dd;}.cls-4{fill:#27a2fd;}.cls-5{fill:#34f;}</style><style
       id="style44432">.cls-1{fill:#1b112b;}.cls-2{fill:#9722ff;}.cls-3{fill:#dc29dd;}.cls-4{fill:#27a2fd;}.cls-5{fill:#34f;}</style><style
       id="style44505">.cls-1{fill:#1b112b;}.cls-2{fill:#9722ff;}.cls-3{fill:#dc29dd;}.cls-4{fill:#27a2fd;}.cls-5{fill:#34f;}</style></defs><path
     id="path41301"
     style="display:inline;fill:#3b38fa;fill-opacity:1;stroke-width:1.7362"
     inkscape:label="globe"
     d="M 125,0.00247711 C 55.96612,0.00163433 0.00187852,55.963629 0,124.99752 c -8.416154e-4,69.03581 55.964194,125.00085 125,125 69.0358,8.4e-4 125.00084,-55.96419 125,-125 C 249.99812,55.96363 194.03387,0.00163549 125,0.00247711 Z m 0,15.96198189 c 4.54392,0.123794 8.2749,3.330596 11.31115,6.402631 5.8255,6.15452 9.94668,13.699613 13.33303,21.410661 1.41698,3.254363 2.61476,6.585932 3.73901,9.943408 0.009,0.0019 0.0182,0.003 0.0272,0.005 5.45308,-5.471898 10.89043,-9.694349 16.0611,-12.931632 -1.66259,-4.232203 -3.47751,-8.404815 -5.50071,-12.478195 l -3.17653,-6.573601 c 2.45527,1.007277 4.91371,2.013223 7.36896,3.020436 5.67651,2.481387 11.11109,5.489976 16.28658,8.900255 3.53867,-1.156777 6.74845,-1.859583 9.3859,-2.130907 10.51581,-1.081802 8.94676,4.071061 8.62026,16.202327 -0.003,0.132791 -0.0324,0.37007 -0.0372,0.507949 3.72164,3.726126 7.1801,7.712346 10.30518,11.95538 4.66626,6.250768 8.42472,13.107512 11.95538,20.045393 -8.72646,0.0048 -17.4539,-0.0098 -26.18042,-0.01982 3.58298,4.044224 6.41791,8.034079 8.35018,11.583709 1.36519,2.507951 2.47702,5.21896 3.40944,8.015682 5.96923,-8.6e-4 11.93783,-5.47e-4 17.90706,-0.0046 1.50265,-0.247079 3.12031,0.813505 3.47635,2.299415 1.1874,5.4822 1.95077,11.07918 2.25232,16.68796 0.59967,10.51658 -0.47935,21.06445 -2.59178,31.36645 -7.06333,0.001 -14.12683,0.005 -21.19013,0.007 -0.33862,5.066 0.0186,10.40354 1.45693,15.24838 0.47401,1.59659 0.76797,3.00529 0.96635,4.32623 4.06841,-7.4e-4 8.13749,-0.002 12.20564,-0.002 -0.42613,0.82305 -0.85246,1.64731 -1.27855,2.47038 -8.27995,16.80037 -20.73609,31.56132 -36.10153,42.30097 -8.1947,5.92271 -17.53003,9.92697 -26.66607,14.13337 1.10518,-2.29442 2.2126,-4.5889 3.31778,-6.88333 2.63768,-5.30846 4.86826,-10.79108 6.88085,-16.35347 -7.03562,1.42338 -14.61501,2.4142 -22.34727,3.1022 -0.87779,1.90009 -1.79135,3.78516 -2.79248,5.62957 -3.4145,6.06827 -7.26914,12.11576 -12.7681,16.51452 -2.80842,2.44771 -6.70176,4.02165 -10.43154,3.04521 -3.46789,-1.09499 -6.37204,-3.49379 -8.89034,-6.05078 -5.04812,-5.43709 -8.78155,-11.89067 -11.90335,-18.60331 -1.10267,-0.0697 -2.261225,-0.12056 -3.330159,-0.20071 -4.319553,-0.32387 -7.309982,-1.6765 -9.232278,-3.66218 -1.569927,-0.18733 -4.528286,-0.67378 -6.566167,-1.05059 -1.004846,0.81587 -2.130778,1.41777 -3.389628,1.73942 1.615424,4.30685 3.377241,8.55743 5.322311,12.72597 1.502441,3.1661 3.163636,6.64551 4.727642,9.93102 -1.828006,-0.80561 -3.65785,-1.61263 -5.485847,-2.41833 -17.361495,-7.25008 -32.899096,-18.88017 -44.555782,-33.66585 -5.608686,-6.94702 -9.875498,-14.82502 -14.014429,-22.69913 h 4.668173 c 1.409953,-1.2e-4 2.819771,-0.002 4.229603,-0.002 -0.676366,-4.34789 -0.43486,-8.37754 -0.522817,-11.96034 0.04288,-2.13934 0.2209,-4.77659 0.483171,-7.62171 -3.3782,0.002 -6.757038,0.009 -10.134197,0 -1.78675,0.23023 -3.553091,-0.0811 -5.265324,-0.58724 -1.338498,-6.1124 -2.252648,-12.32011 -2.579387,-18.57109 -0.73298,-10.46161 0.560044,-20.94232 2.623988,-31.188058 3.945295,-8.1e-5 7.888677,-4.07e-4 11.833967,0 6.511409,-0.02836 13.02342,-0.01383 19.534968,-0.02232 2.434557,-4.250015 5.177495,-8.529044 8.36505,-12.787913 1.430947,-1.91188 2.868443,-3.688284 4.31137,-5.394168 -0.180111,-0.458702 -0.37742,-0.920345 -0.550073,-1.377657 H 25.233904 L 26.534749,77.76095 C 32.52727,65.71497 40.564238,54.663766 50.388518,45.455407 c 1.514151,-1.419287 3.071881,-2.792996 4.663218,-4.128014 0.113374,-4.485549 0.632215,-7.707276 1.360313,-8.709462 1.834984,-2.525761 3.070836,-3.146384 6.080518,-1.479246 0.663577,0.367571 1.793222,1.246648 3.134415,2.336564 5.318784,-3.467489 10.942685,-6.460395 16.811866,-8.877953 0.233438,-0.09182 0.484152,-0.141255 0.738384,-0.153624 0.762677,-0.03712 1.564235,0.264549 2.091263,0.795372 0.391486,0.586013 1.918101,0.91476 1.449513,1.694816 -2.935962,5.711133 -5.446482,11.626215 -7.641533,17.656795 4.83076,3.921288 10.236248,8.128249 16.447627,12.388995 0.367769,-1.174056 0.721373,-2.352181 1.132358,-3.513518 3.93388,-11.373633 9.04943,-22.677246 17.39911,-31.527514 2.89389,-3.031388 6.63075,-5.734167 10.94443,-5.973973 z" /><g
     id="g1513"
     transform="matrix(1.3151773,0,0,1.3151773,40.417593,37.503328)"
     inkscape:label="cozy"
     style="display:inline"><g
       inkscape:label="Base"
       id="g1499"
       style="display:inline"
       transform="matrix(1.0501297,0,0,1.0501297,-3.6806776,-2.2160772)"><path
         id="path1477"
         style="display:inline;fill:#ff8702;fill-opacity:1;stroke:none;stroke-width:0.711682px;stroke-linecap:butt;stroke-linejoin:miter;stroke-opacity:0.4501"
         inkscape:label="body"
         d="m 69.225776,33.403206 c 0.307781,0.08005 0.616652,0.158318 0.920184,0.244641 -0.304649,-0.08406 -0.61045,-0.16648 -0.920184,-0.244641 z m -10.940739,2.823103 c -0.806586,0.0034 -1.623766,0.03082 -2.450582,0.08479 -4.409681,0.287811 -9.099167,1.313805 -13.973732,3.297095 -9.634382,3.919893 -14.509525,10.493906 -16.937226,17.354228 -2.427701,6.860321 -2.220064,14.042616 -1.405296,18.534343 0.740731,4.08357 4.468515,7.91808 8.590238,11.867873 4.121723,3.949799 8.72409,8.034372 9.878774,12.726892 0.126263,0.51313 0.179237,1.06486 0.272442,1.59712 3.277712,-3.7713 7.687014,-6.69378 12.756087,-6.92223 9.494411,-0.42788 25.3606,-2.151688 33.169716,-12.255684 C 91.940448,77.652264 93.2153,71.25721 92.56954,64.863217 91.901078,58.244448 89.247972,52.171042 85.477728,47.816181 80.137633,41.648056 70.38382,36.174975 58.285037,36.226309 Z"
         sodipodi:nodetypes="cccssssssscsssss" /><path
         sodipodi:nodetypes="cssscc"
         style="display:inline;fill:#313131;fill-opacity:1;stroke:none;stroke-width:0.821268px;stroke-linecap:butt;stroke-linejoin:miter;stroke-opacity:1"
         d="M 24.149941,38.669658 C 16.917948,21.941416 17.419133,5.851394 18.970863,3.7155191 20.193537,2.032572 21.016216,1.6197175 23.021606,2.7305525 25.388893,4.041851 34.602232,13.067661 46.649026,21.069764 c 5.209111,3.46016 -7.136878,2.429046 -0.574387,4.855176 -11.47461,0.780853 -16.003494,6.073727 -21.924698,12.744718 z"
         id="path1479"
         inkscape:label="left-ear" /><path
         style="display:inline;fill:none;stroke:#ffffff;stroke-width:4.5727;stroke-linecap:round;stroke-linejoin:round;stroke-dasharray:none;stroke-opacity:1"
         d="M 5.9939018,93.220666 C 4.6300755,109.74515 18.151986,117.42462 31.767983,119.2875 39.440611,120.33724 41.893201,108.53081 39.943525,100.59382 37.993849,92.656835 23.280936,85.540464 21.449954,75.888851 19.618971,66.237238 20.711772,45.941225 41.068048,37.658966 61.372863,29.397645 78.867844,36.964932 87.069122,46.43789 95.270399,55.910849 98.19295,73.05884 89.847708,83.802403 81.502469,94.54597 64.769157,96.43325 55.110601,96.86853 42.097251,97.455 30.821574,119.93434 46.96692,121.14492 c 28.845363,2.16285 76.99268,-1.21687 74.09881,-22.19488"
         id="path1481"
         sodipodi:nodetypes="cssssssssc"
         inkscape:label="blanket-line" /><path
         id="path1483"
         style="display:inline;stroke-width:0.187475"
         class="cls-1"
         d="M 66.25812,33.511441 C 41.957082,27.013429 26.070468,27.808135 6.7934884,42.970516 -12.483491,58.132897 -20.183545,77.171629 -22.828339,86.305828 c -1.383774,5.722595 -4.656239,12.632299 2.40452,23.226252 4.912111,7.37011 9.326446,10.31652 13.8826085,12.91398 4.5561602,2.59745 7.14413476,3.68993 9.9479197,0.12991 0.8468517,-2.50145 2.012614,-4.76086 3.4147793,-6.29959 C 9.9857372,107.28644 6.0863943,103.55405 4.4138448,100.38924 3.0501667,97.808875 -2.6075032,90.272865 -3.7041508,82.925507 -4.8838057,75.022013 -0.56269051,61.165553 8.2717091,52.908534 17.474438,44.307258 37.07181,39.806187 54.727264,47.861713 c 21.145611,9.647956 27.166083,30.374258 21.099554,47.497369 -4.980752,14.058458 -18.022901,20.434068 -37.39451,18.862758 -7.348817,-0.5961 -10.175868,-1.74247 -14.152536,-2.24733 -3.518253,-0.44667 -12.966338,3.42617 -15.527152,8.88965 -2.8005131,5.97488 -0.5706066,7.82413 3.880836,9.84578 3.387485,1.53845 25.099004,7.50499 39.592692,9.72925 16.126067,2.47479 28.247321,0.26985 33.697514,-2.77131 7.382151,-4.11916 10.358623,-5.89408 10.142071,-13.97425 -0.177378,-6.61855 2.468319,-13.76051 5.511377,-18.33502 3.04305,-4.5745 7.55826,-20.143502 4.63115,-32.278173 C 103.28113,60.945765 90.559158,40.009454 66.25812,33.511441 Z"
         transform="matrix(0.91981574,-0.24646388,0.24646388,0.91981574,3.5049743,2.110289)"
         inkscape:label="blanket" /><g
         id="g1493"
         transform="matrix(0.91747585,-0.2550363,0.2550363,0.91747585,157.59992,45.892123)"
         style="display:inline"
         inkscape:label="patches"><path
           id="path1485"
           style="stroke-width:0.182314"
           class="cls-2"
           d="m -41.360831,-22.581991 -3.588101,-3.3e-5 4.55e-4,3.207126 a 1.8874121,1.8874121 0 0 1 -3.774824,7.69e-4 l 6.8e-5,-3.209008 -5.500186,0.0016 a 1.6718224,1.6718224 0 0 0 -1.670991,1.672153 l -2.81e-4,5.499663 3.209009,6.8e-5 a 1.8874121,1.8874121 0 0 1 7.69e-4,3.774824 l -3.209009,-6.8e-5 9.8e-4,7.1724376 3.209532,-0.00181 a 1.8871506,1.8871506 0 0 1 -0.0011,3.7743011 l -3.207127,4.5523e-4 -2.8e-4,5.49966327 a 1.6736456,1.6736456 0 0 0 1.67163,1.6728727 l 15.656539,-0.00224 c 1.364035,-6.20547033 1.983979,-13.5943947 0.490781,-20.0482129 -0.614762,-2.65708 -1.725045,-5.750801 -3.287851,-9.014558 z m -103.061709,-5.67e-4 -8.31484,-0.0024 c -0.92653,-1.95e-4 -1.6732,0.746982 -1.67339,1.673512 l -0.006,25.7292517 c -1.9e-4,0.9265288 0.74699,1.6732012 1.67352,1.6733958 l 8.91714,0.00154 c -1.82186,-3.2789568 -3.69263,-7.28061791 -4.24605,-11.2411966 -0.6537,-4.6783002 0.64697,-11.4157569 3.64993,-17.8341329 z m 104.884735,32.859101 -14.68267,-7.16e-4 a 1.6736456,1.6736456 0 0 0 -1.670468,1.670272 l -8.04e-4,5.501545 3.209009,6.7e-5 a 1.8871511,1.8871511 0 0 1 -0.0011,3.774302 l -3.209008,-6.8e-5 -9.02e-4,7.171914 3.209008,6.8e-5 a 1.8871506,1.8871506 0 0 1 -0.0011,3.774301 l -3.208485,-0.0019 -8.03e-4,5.501545 a 1.6718224,1.6718224 0 0 0 1.671629,1.672872 l 5.461295,-2.49e-4 c 0.01516,-0.187973 0.02858,-0.380728 0.03879,-0.5771 l 0.0015,-2.630855 a 1.8869535,1.8869535 0 0 1 0.06704,-0.153674 c 0.145503,-6.337857 2.713755,-12.987218 5.64974,-17.312696 1.095344,-1.613728 2.379962,-4.649987 3.467323,-8.389579 z m -102.081455,-0.01189 -11.13054,-0.0026 c -0.92653,-1.95e-4 -1.6732,0.746982 -1.6734,1.673511 l -0.004,20.850398 c 1.04713,0.703933 2.09408,1.34326 3.14926,1.957934 4.53173,2.639855 7.1094,3.756435 9.94628,0.222742 0.87015,-2.493446 2.05695,-4.741879 3.47341,-6.267455 3.248,-8.960022 -0.61634,-12.728633 -2.25929,-15.908917 -0.30208,-0.584739 -0.8684,-1.492832 -1.50147,-2.525642 z m 49.115373,16.419999 c -4.139988,0.613861 -8.718943,0.708291 -13.725993,0.255081 -7.34294,-0.664645 -10.15917,-1.837345 -14.13095,-2.379299 -0.34494,-0.04707 -0.7598,-0.04196 -1.20764,-0.0093 l -0.002,13.10514 a 1.6718224,1.6718224 0 0 0 1.67216,1.670991 l 5.50154,8.03e-4 7e-5,-3.209008 a 1.8887765,1.8887765 0 0 1 3.7743,0.0011 l -7e-5,3.209008 7.17004,3.79e-4 0.002,-3.208485 a 1.8887765,1.8887765 0 0 1 1.88651,-1.885915 1.8887765,1.8887765 0 0 1 1.892083,1.886192 l -6.8e-5,3.209008 5.495376,0.0011 a 1.6699993,1.6699993 0 0 0 1.670991,-1.672153 l 8.04e-4,-5.501545 -3.207127,4.55e-4 a 1.8871506,1.8871506 0 1 1 0.0011,-3.774301 l 3.206604,0.0014 z m -32.846573,-1.261044 c -4.05659,1.374335 -8.87039,4.23771 -10.6198,7.881203 -1.31584,2.740487 -1.5437,4.609323 -0.98669,6.036338 l 9.93074,0.0015 c 0.92653,1.95e-4 1.67268,-0.745101 1.67287,-1.67163 z"
           inkscape:label="purple" /><path
           id="path1487"
           style="stroke-width:0.182314"
           class="cls-3"
           d="m -60.701156,-22.454342 a 1.6718224,1.6718224 0 0 0 -0.639708,-0.127144 l -9.505749,0.0011 c 4.994573,9.018222 5.731559,19.5165893 2.800834,29.0638169 l 6.708034,-3.337e-4 a 1.6736456,1.6736456 0 0 0 1.672873,-1.6716299 l -0.0016,-5.50018633 -3.209008,-6.786e-5 a 1.8869533,1.8869533 0 0 1 5.9e-4,-3.77241931 l 3.207649,-0.00234 -9.8e-4,-7.1724378 -3.207649,0.0023 a 1.8874121,1.8874121 0 1 1 -7.69e-4,-3.774824 l 3.209008,6.8e-5 -0.0016,-5.500186 a 1.6718224,1.6718224 0 0 0 -1.031922,-1.545729 z m 0.0035,32.855481 a 1.6736456,1.6736456 0 0 0 -0.639708,-0.127144 l -8.090268,-7.57e-4 c -3.584849,8.173083 -10.155018,13.410867 -19.308369,15.662708 l -6.61e-4,2.452705 3.212772,0.0011 a 1.8871506,1.8871506 0 1 1 -0.0011,3.774301 l -3.206603,-0.0014 -0.0027,5.501022 a 1.6699993,1.6699993 0 0 0 1.672153,1.670991 l 25.721725,0.0042 a 1.6718224,1.6718224 0 0 0 1.67099,-1.672153 l 2.81e-4,-5.499664 -3.207127,4.56e-4 a 1.8874121,1.8874121 0 1 1 -7.68e-4,-3.774824 l 3.209008,6.7e-5 9.01e-4,-7.171914 -3.209008,-6.8e-5 a 1.8871506,1.8871506 0 0 1 0.0011,-3.774301 l 3.209008,6.8e-5 2.81e-4,-5.499664 a 1.6736456,1.6736456 0 0 0 -1.031922,-1.545728 z m 11.101827,32.71126 -4.625847,-6.42e-4 a 1.6718224,1.6718224 0 0 0 -1.672873,1.67163 l 1.45e-4,4.324017 c 3.181301,-1.851638 5.237566,-3.450156 6.298575,-5.995005 z"
           inkscape:label="pink" /><path
           id="path1489"
           style="display:inline;stroke-width:0.182314"
           class="cls-4"
           d="m -77.652144,-53.507496 c -0.04694,-0.01302 -0.09101,-0.02334 -0.137892,-0.0363 l -6.63e-4,1.329646 a 1.8874121,1.8874121 0 0 1 -3.774824,7.69e-4 l -3.04e-4,-2.32526 c -1.268767,-0.320114 -2.508931,-0.608681 -3.734202,-0.881926 l -1.765613,-2.2e-4 a 1.6718224,1.6718224 0 0 0 -1.672873,1.671629 l 0.0024,5.504473 3.207127,-4.55e-4 a 1.8869533,1.8869533 0 1 1 0.0013,3.772943 l -3.213295,7.67e-4 4.53e-4,5.489732 c 1.102169,0.533139 2.170203,1.090895 3.187266,1.682665 l 0.02227,1.09e-4 a 1.8887765,1.8887765 0 0 1 1.427236,0.889342 c 4.491706,2.847676 8.088835,6.270124 10.843894,10.054741 l 11.918203,-0.0015 a 1.6718224,1.6718224 0 0 0 1.670991,-1.672153 l -4.84e-4,-16.683832 c -2.953147,-2.176398 -6.189741,-4.155486 -9.773476,-5.796079 a 1.8869533,1.8869533 0 0 1 -0.301179,-0.1344 c -2.484181,-1.11924 -5.114422,-2.09018 -7.906363,-2.864722 z m 16.94977,96.749687 a 1.6718224,1.6718224 0 0 0 -0.639708,-0.127144 l -25.72413,-0.0029 a 1.6699993,1.6699993 0 0 0 -1.67235,1.669748 l -2.8e-4,5.499663 3.209008,6.8e-5 a 1.8887765,1.8887765 0 0 1 2.46e-4,3.776706 l -1.283227,7.8e-5 c 12.568177,1.252525 22.127948,-0.445869 27.142335,-2.87479 l 5.51e-4,-6.397629 a 1.6718224,1.6718224 0 0 0 -1.032445,-1.543847 z"
           inkscape:label="light-blue" /><path
           id="path1491"
           style="display:inline;stroke-width:0.182314"
           class="cls-5"
           d="m -93.545261,-55.294121 a 1.6718224,1.6718224 0 0 0 -0.639708,-0.127144 l -23.149311,0.0034 c -1.39207,0.429925 -2.78252,0.933417 -4.17186,1.502011 a 1.6736456,1.6736456 0 0 0 -0.0718,0.17061 l 0.002,11.705446 c 8.62808,-2.346858 19.05337,-2.365154 29.065446,1.430344 l -8.58e-4,-3.862017 -3.207126,4.55e-4 a 1.8869533,1.8869533 0 1 1 -0.0013,-3.772942 l 3.207126,-4.56e-4 -0.0011,-5.502068 a 1.6718224,1.6718224 0 0 0 -1.031399,-1.54761 z m -31.799909,3.126835 c -3.87105,1.945018 -7.78578,4.422159 -11.85728,7.563566 -7.0716,5.456155 -12.59746,11.437966 -16.9165,17.282394 a 1.6718224,1.6718224 0 0 0 1.38331,0.974437 l 10.30419,-9e-5 c 1.81204,-3.054668 4.01756,-5.923231 6.61442,-8.305361 2.70705,-2.483209 6.31163,-4.591994 10.47228,-6.154509 z m -32.91816,30.967446 c -4.86244,7.881064 -7.58009,15.0352128 -8.96404,19.6531335 -0.60486,2.40301453 -1.53917,5.0182793 -1.90792,8.0304286 l 9.29059,-6.74e-5 a 1.6736456,1.6736456 0 0 0 1.67099,-1.672153 l -0.003,-25.7256987 a 1.6718224,1.6718224 0 0 0 -0.0868,-0.285643 z m -0.94194,31.589226 a 1.6736456,1.6736456 0 0 0 -0.63971,-0.127144 l -9.39388,-2.65e-4 c 0.22244,3.294493 1.32674,7.040806 4.19917,11.438994 2.37445,3.635664 4.63878,6.198522 6.86492,8.186461 l 0.001,-17.952317 a 1.6736456,1.6736456 0 0 0 -1.03192,-1.545729 z m 65.663726,32.848643 a 1.6699993,1.6699993 0 0 0 -0.639708,-0.127144 l -5.499664,-2.81e-4 4.56e-4,3.207127 a 1.8887765,1.8887765 0 1 1 -3.77618,-0.0016 l 10e-4,-3.206604 -7.17191,-9.01e-4 4.5e-4,3.207126 a 1.8887765,1.8887765 0 1 1 -3.77618,-0.0016 l 10e-4,-3.206603 -5.50155,-8.04e-4 a 1.6718224,1.6718224 0 0 0 -1.67099,1.672153 l 5.1e-4,1.792169 c 6.94221,1.961665 16.01063,4.253749 23.988391,5.816782 a 1.8887765,1.8887765 0 0 1 1.866681,-2.106306 l 3.207126,-4.55e-4 0.0022,-5.49914 a 1.6699993,1.6699993 0 0 0 -1.032445,-1.543847 z m -32.833216,0.0036 a 1.6736456,1.6736456 0 0 0 -0.63918,-0.129026 l -5.31723,-2.46e-4 c 0.0527,0.02478 0.0963,0.04921 0.1497,0.07405 0.96045,0.447052 3.50207,1.285589 6.83924,2.284282 l -8e-5,-0.68521 a 1.6736456,1.6736456 0 0 0 -1.03245,-1.543847 z"
           inkscape:label="dark-blue" /></g><path
         d="M 110.53691,2.9917295 C 102.91315,3.7760151 88.703022,9.286177 76.02448,26.687873 c -0.900729,1.236278 2.596637,2.668532 4.670495,2.795473 16.778646,3.531472 20.309285,-18.515419 27.210055,-17.89 -0.68923,13.479972 -3.66337,22.21312 -3.50386,34.425078 0.0258,0.730271 0.0443,1.413538 0.16442,1.990982 0.16463,0.217722 0.34244,0.428752 0.53397,0.630017 2.35138,2.470895 4.05179,-0.569462 5.14106,-3.410552 0.32846,-0.872059 0.66278,-1.805177 1.03538,-3.003566 3.12274,-10.043514 4.85161,-22.763076 5.00432,-28.437017 0.21755,-8.083212 1.26341,-11.5173768 -5.74341,-10.7965585 z"
         id="path1495"
         style="display:inline;fill:#313131;fill-opacity:1;stroke:none;stroke-width:0.833509px;stroke-linecap:butt;stroke-linejoin:miter;stroke-opacity:0.4501"
         inkscape:label="right-ear"
         sodipodi:nodetypes="ssccccsccss" /><path
         id="path1497"
         style="display:inline;fill:#ebdccc;fill-opacity:1;stroke:none;stroke-width:0.833509px;stroke-linecap:butt;stroke-linejoin:miter;stroke-opacity:1"
         inkscape:label="right-ear-fluff"
         d="m 110.85924,5.580842 c -2.81854,0.02831 -7.6333,2.3538 -9.87321,4.56061 -2.98656,2.942414 -6.879923,5.34309 -8.526302,12.411365 -0.747574,3.209508 -3.067263,5.421647 -6.060426,6.350939 -2.145273,0.547861 -3.770424,0.696292 -6.107687,0.528203 1.864332,2.176122 7.901273,1.249922 15.733482,10.661348 2.693073,3.236085 7.107493,6.732867 8.442893,7.190501 -0.72633,-8.988552 5.24837,-15.905157 7.40734,-22.38188 1.38693,-4.160666 2.22129,-15.414126 1.10228,-18.248001 -0.37184,-0.941688 -0.97505,-1.084569 -2.11837,-1.073085 z"
         sodipodi:nodetypes="sssccscsss" /></g><g
       id="g1511"
       inkscape:label="Features"
       style="display:inline"><path
         inkscape:label="left-eye"
         style="display:inline;fill:#313131;fill-opacity:1;stroke:none;stroke-width:0.800271;stroke-linecap:butt;stroke-linejoin:miter;stroke-miterlimit:4;stroke-dasharray:none;stroke-opacity:0.46432"
         d="m 33.729129,54.971703 c 0.356141,-4.743985 4.120808,-8.231046 7.164834,-8.253802 3.16684,-0.02369 5.295404,3.135909 5.222637,5.521972 -0.144038,4.722983 -2.608665,9.008648 -7.146656,9.154503 -2.753234,0.08842 -5.506219,-2.88734 -5.240815,-6.422673 z"
         sodipodi:nodetypes="sssss"
         id="path1501" /><path
         sodipodi:nodetypes="sssss"
         d="m 67.680787,58.959173 c 0.772007,-5.31785 4.735875,-8.058423 7.713074,-7.829138 3.09732,0.238529 5.525818,3.852127 5.178105,6.989692 -0.566268,5.109684 -3.593016,8.370995 -8.04063,8.138585 C 69.83294,66.11723 67.18117,62.400713 67.680787,58.959173 Z"
         style="display:inline;fill:#313131;fill-opacity:1;stroke:none;stroke-width:0.783767px;stroke-linecap:butt;stroke-linejoin:miter;stroke-opacity:0.46432"
         id="path1503"
         inkscape:label="right-eye" /><path
         d="m 38.449744,73.634924 c -1.365628,-2.816479 -1.385491,-5.582625 0.390415,-7.440454 1.775906,-1.85783 5.698787,-4.32949 5.44744,-13.071227"
         sodipodi:nodetypes="csc"
         inkscape:label="nose-outline"
         id="path1505"
         style="display:inline;fill:none;fill-opacity:1;stroke:#313131;stroke-width:3.25786;stroke-linecap:round;stroke-linejoin:miter;stroke-miterlimit:4;stroke-dasharray:none;stroke-opacity:1" /><path
         id="path1507"
         style="display:inline;fill:#313131;fill-opacity:1;stroke:none;stroke-width:0.739644px;stroke-linecap:butt;stroke-linejoin:miter;stroke-opacity:1"
         sodipodi:nodetypes="ssss"
         d="m 43.180428,67.783673 c 2.671419,-1.457335 10.760812,-1.974331 12.626602,1.905178 0.298329,0.620306 -4.523474,5.284016 -7.475492,5.277467 -2.854326,-0.0064 -5.821143,-6.817121 -5.15111,-7.182645 z"
         inkscape:label="nose" /><path
         inkscape:label="mouth"
         id="path1509"
         style="display:inline;fill:none;stroke:#313131;stroke-width:3.29458;stroke-linecap:round;stroke-linejoin:round;stroke-miterlimit:4;stroke-dasharray:none;stroke-opacity:1"
         d="m 35.709816,77.690339 c 1.613676,4.749264 3.109797,7.742867 4.58507,9.623367 2.77556,-2.379227 6.315463,-5.676505 7.71674,-7.115251 2.263347,3.576035 5.35162,7.693697 6.611496,9.376278 3.597517,-2.945328 7.043494,-6.075114 8.456448,-7.715366"
         sodipodi:nodetypes="ccccc" /></g></g></svg>
