<?xml version="1.0" encoding="UTF-8" standalone="no"?>
<!-- Created with Inkscape (http://www.inkscape.org/) -->

<svg
   width="250"
   height="250"
   viewBox="0 0 250 250"
   version="1.1"
   id="svg5"
   inkscape:version="1.2.2 (b0a8486541, 2022-12-01)"
   sodipodi:docname="mappings.svg"
   inkscape:export-filename="500px/mappings.png"
   inkscape:export-xdpi="192"
   inkscape:export-ydpi="192"
   xml:space="preserve"
   xmlns:inkscape="http://www.inkscape.org/namespaces/inkscape"
   xmlns:sodipodi="http://sodipodi.sourceforge.net/DTD/sodipodi-0.dtd"
   xmlns="http://www.w3.org/2000/svg"
   xmlns:svg="http://www.w3.org/2000/svg"><sodipodi:namedview
     id="namedview7"
     pagecolor="#20172e"
     bordercolor="#999999"
     borderopacity="1"
     inkscape:showpageshadow="0"
     inkscape:pageopacity="0"
     inkscape:pagecheckerboard="0"
     inkscape:deskcolor="#d1d1d1"
     inkscape:document-units="mm"
     showgrid="false"
     inkscape:zoom="1"
     inkscape:cx="-26.499999"
     inkscape:cy="-0.49999999"
     inkscape:window-width="1758"
     inkscape:window-height="1080"
     inkscape:window-x="2243"
     inkscape:window-y="103"
     inkscape:window-maximized="0"
     inkscape:current-layer="svg5"
     showguides="false"><sodipodi:guide
       position="181.98371,151.86206"
       orientation="1,0"
       id="guide70496"
       inkscape:locked="false" /></sodipodi:namedview><defs
     id="defs2"><inkscape:path-effect
       effect="mirror_symmetry"
       start_point="121.5,27.705829"
       end_point="121.5,172.35943"
       center_point="121.48719,100.02972"
       id="path-effect75993"
       is_visible="true"
       lpeversion="1.2"
       lpesatellites=""
       mode="X"
       discard_orig_path="false"
       fuse_paths="true"
       oposite_fuse="false"
       split_items="false"
       split_open="false"
       link_styles="false" /><style
       id="style40072">.cls-1{fill:#34f;}</style><style
       id="style447">.cls-1{fill:#34f;}</style><style
       id="style567">.cls-1{fill:#34f;}</style><mask
       maskUnits="userSpaceOnUse"
       id="mask1517"><g
         id="g1523"
         style="display:inline"><rect
           style="display:inline;fill:#ffffff;fill-opacity:1;stroke-width:1.11118"
           id="rect1519"
           width="250"
           height="250"
           x="0"
           y="0"
           ry="8.7170057" /><path
           id="path1521"
           style="display:inline;fill:#000000;fill-opacity:1;stroke-width:13.0037"
           inkscape:label="pen"
           d="m 86.730506,83.738244 c 3.178382,7.023852 6.100198,14.359791 9.121854,21.452916 3.549204,8.64087 6.40631,17.60081 7.95495,26.82711 0.42089,2.12819 0.68161,4.29381 1.19401,6.3998 0.47333,1.39504 2.14385,1.61276 3.33037,2.12758 4.88176,2.13959 8.80598,5.85439 12.92222,9.1438 3.73645,3.14475 7.4229,6.34816 11.14843,9.50586 -0.68363,3.49244 -1.36995,6.98435 -2.05468,10.47657 6.21948,4.27944 12.66632,8.25097 18.59382,12.93839 3.36874,2.7661 5.36458,6.71097 7.75186,10.26736 11.37288,17.35354 24.75229,33.26275 38.14797,49.0661 2.87991,3.32317 5.66568,6.7462 8.79757,9.83707 7.40708,6.60511 18.91137,8.15243 27.75461,3.59808 8.07706,-3.98585 13.80603,-12.51662 14.05857,-21.5696 0.31432,-7.09131 -2.55427,-14.22039 -7.60036,-19.19722 -12.30426,-13.91543 -24.77639,-27.62502 -38.31013,-40.34766 -4.62084,-4.29326 -9.36675,-8.31982 -14.17718,-12.38444 -2.85638,-2.52113 -5.06603,-5.68217 -6.82884,-9.04058 -3.03456,-5.32483 -5.72301,-10.84248 -8.49258,-16.30227 -0.69459,-0.98003 -1.9914,-1.25832 -3.11172,-1.00316 -2.69975,0.16823 -5.39939,0.33819 -8.09922,0.50511 -4.73198,-7.47172 -9.91902,-14.68569 -13.95208,-22.5756 -1.0059,-1.97253 -1.44738,-4.15383 -2.07917,-6.25643 -0.54997,-1.16323 -1.86064,-1.53377 -3.01332,-1.77368 -8.20007,-2.44903 -16.27086,-5.436343 -23.82197,-9.493454 C 106.11771,90.671576 96.894406,84.569815 87.184855,79.055542 L 83.69535,77.046838 Z"
           sodipodi:nodetypes="cccccccccccccccccccccccccccc" /></g></mask><mask
       maskUnits="userSpaceOnUse"
       id="mask1525"><g
         id="g1531"
         style="display:inline"><rect
           style="display:inline;fill:#ffffff;fill-opacity:1;stroke-width:1.11118"
           id="rect1527"
           width="250"
           height="250"
           x="0"
           y="0"
           ry="8.7170057" /><path
           id="path1529"
           style="display:inline;fill:#000000;fill-opacity:1;stroke-width:13.0037"
           inkscape:label="pen"
           d="m 86.730506,83.738244 c 3.178382,7.023852 6.100198,14.359791 9.121854,21.452916 3.549204,8.64087 6.40631,17.60081 7.95495,26.82711 0.42089,2.12819 0.68161,4.29381 1.19401,6.3998 0.47333,1.39504 2.14385,1.61276 3.33037,2.12758 4.88176,2.13959 8.80598,5.85439 12.92222,9.1438 3.73645,3.14475 7.4229,6.34816 11.14843,9.50586 -0.68363,3.49244 -1.36995,6.98435 -2.05468,10.47657 6.21948,4.27944 12.66632,8.25097 18.59382,12.93839 3.36874,2.7661 5.36458,6.71097 7.75186,10.26736 11.37288,17.35354 24.75229,33.26275 38.14797,49.0661 2.87991,3.32317 5.66568,6.7462 8.79757,9.83707 7.40708,6.60511 18.91137,8.15243 27.75461,3.59808 8.07706,-3.98585 13.80603,-12.51662 14.05857,-21.5696 0.31432,-7.09131 -2.55427,-14.22039 -7.60036,-19.19722 -12.30426,-13.91543 -24.77639,-27.62502 -38.31013,-40.34766 -4.62084,-4.29326 -9.36675,-8.31982 -14.17718,-12.38444 -2.85638,-2.52113 -5.06603,-5.68217 -6.82884,-9.04058 -3.03456,-5.32483 -5.72301,-10.84248 -8.49258,-16.30227 -0.69459,-0.98003 -1.9914,-1.25832 -3.11172,-1.00316 -2.69975,0.16823 -5.39939,0.33819 -8.09922,0.50511 -4.73198,-7.47172 -9.91902,-14.68569 -13.95208,-22.5756 -1.0059,-1.97253 -1.44738,-4.15383 -2.07917,-6.25643 -0.54997,-1.16323 -1.86064,-1.53377 -3.01332,-1.77368 -8.20007,-2.44903 -16.27086,-5.436343 -23.82197,-9.493454 C 106.11771,90.671576 96.894406,84.569815 87.184855,79.055542 L 83.69535,77.046838 Z"
           sodipodi:nodetypes="cccccccccccccccccccccccccccc" /></g></mask><mask
       maskUnits="userSpaceOnUse"
       id="mask2080"><g
         id="g2086"
         style="display:inline;opacity:1"><rect
           style="display:inline;fill:#ffffff;fill-opacity:1;stroke-width:1.11118"
           id="rect2082"
           width="250"
           height="250"
           x="0"
           y="0"
           ry="8.7170057" /><path
           id="path2084"
           style="display:inline;fill:#000000;fill-opacity:1;stroke-width:13.0037"
           inkscape:label="pen"
           d="m 86.730506,83.738244 c 3.178382,7.023852 6.100198,14.359791 9.121854,21.452916 -12.324379,5.50201 -16.443434,18.90265 5.31814,15.20989 1.0838,3.82158 1.97852,7.69533 2.63681,11.61722 0.42089,2.12819 0.68161,4.29381 1.19401,6.3998 0.47333,1.39504 2.14385,1.61276 3.33037,2.12758 4.88176,2.13959 8.80598,5.85439 12.92222,9.1438 3.73645,3.14475 7.4229,6.34816 11.14843,9.50586 -0.68363,3.49244 -1.36995,6.98435 -2.05468,10.47657 6.21948,4.27944 12.66632,8.25097 18.59382,12.93839 3.36874,2.7661 5.36458,6.71097 7.75186,10.26736 11.37288,17.35354 24.75229,33.26275 38.14797,49.0661 2.87991,3.32317 5.66568,6.7462 8.79757,9.83707 7.40708,6.60511 18.91137,8.15243 27.75461,3.59808 8.07706,-3.98585 13.80603,-12.51662 14.05857,-21.5696 0.31432,-7.09131 -2.55427,-14.22039 -7.60036,-19.19722 -12.30426,-13.91543 -24.77639,-27.62502 -38.31013,-40.34766 -4.62084,-4.29326 -9.36675,-8.31982 -14.17718,-12.38444 -2.85638,-2.52113 -5.06603,-5.68217 -6.82884,-9.04058 -3.03456,-5.32483 -5.72301,-10.84248 -8.49258,-16.30227 -0.69459,-0.98003 -1.9914,-1.25832 -3.11172,-1.00316 -2.69975,0.16823 -5.39939,0.33819 -8.09922,0.50511 -4.73198,-7.47172 -9.91902,-14.68569 -13.95208,-22.5756 -1.0059,-1.97253 -1.44738,-4.15383 -2.07917,-6.25643 -0.54997,-1.16323 -1.86064,-1.53377 -3.01332,-1.77368 -6.26587,-1.87136 -12.45626,-4.05702 -18.39699,-6.79412 0.99858,-5.876145 -2.07798,-4.523851 -5.42498,-2.699334 C 106.11771,90.671576 96.894406,84.569815 87.184855,79.055542 L 83.69535,77.046838 Z"
           sodipodi:nodetypes="cccccccccccccccccccccccccccccc" /></g></mask></defs><g
     id="g4102"
     transform="matrix(1.3344993,-0.46140427,0.46140427,1.3344993,-66.920948,24.404186)"
     inkscape:label="quilt-map"><path
       class="cls-1"
       d="m 103.54821,52.872912 a 6.3805889,6.3805889 0 0 0 6.3806,6.380587 h 10.82572 v 24.198384 h -10.84168 a 6.3805889,6.3805889 0 1 0 0,12.729271 h 10.82574 v 18.556886 a 5.641504,5.641504 0 0 1 -5.64151,5.64681 H 96.540211 v -10.84168 a 6.3805889,6.3805889 0 1 0 -12.72928,0 v 10.82574 H 59.607225 v -10.82574 a 6.3805889,6.3805889 0 1 0 -12.723953,0 v 10.82574 H 28.326393 a 5.6521383,5.6521384 0 0 1 -5.646822,-5.64683 V 96.175832 h 10.825734 a 6.3805889,6.3805889 0 0 0 0,-12.761171 H 22.679571 V 59.242862 h 10.825734 a 6.3805889,6.3805889 0 0 0 0,-12.729273 H 22.679571 V 27.951392 a 5.641504,5.641504 0 0 1 5.646822,-5.641502 h 18.551562 v 10.825733 a 6.3805889,6.3805889 0 1 0 12.72927,0 V 22.30989 h 24.203706 v 10.825733 a 6.3805889,6.3805889 0 1 0 12.72397,0 V 22.30989 h 18.562179 a 5.6361868,5.6361868 0 0 1 5.64151,5.641502 v 18.55156 h -10.82574 a 6.3805889,6.3805889 0 0 0 -6.36464,6.36996 z"
       id="path571"
       style="display:inline;stroke-width:0.531716;fill:#499bf9;fill-opacity:1"
       inkscape:label="light-blue"
       transform="matrix(0.6693305,0.23142159,-0.23142159,0.6693305,50.439887,-0.84751379)"
       mask="url(#mask2080)" /><path
       id="path571-3"
       style="display:inline;fill:#3344ff;stroke-width:0.531716"
       class="cls-1"
       d="m 134.88086,22.300781 a 5.641504,5.641504 0 0 0 -5.64648,5.642578 v 18.560547 h 10.82421 a 6.3805889,6.3805889 0 0 1 0,12.730469 H 129.23438 V 83.40625 h 10.82421 a 6.3808595,6.3808595 0 0 1 0,12.761719 h -10.82421 v 18.544921 a 5.6521383,5.6521384 0 0 0 5.64648,5.64649 h 18.55664 v -10.82422 a 6.3805889,6.3805889 0 1 1 12.72461,0 v 10.82422 h 24.20312 v -10.82422 a 6.3805889,6.3805889 0 1 1 12.72852,0 v 10.84179 h 18.55664 a 5.641504,5.641504 0 0 0 5.64258,-5.64843 V 96.171875 H 216.4668 a 6.3805889,6.3805889 0 1 1 0,-12.728516 h 10.84179 V 59.244141 h -10.82617 a 6.3805889,6.3805889 0 0 1 -6.38086,-6.38086 6.3805889,6.3805889 0 0 1 6.36524,-6.36914 h 10.82617 V 27.943359 a 5.6361868,5.6361868 0 0 0 -5.64258,-5.642578 h -18.56055 v 10.826172 a 6.3805889,6.3805889 0 1 1 -12.72461,0 V 22.300781 h -24.20312 v 10.826172 a 6.3805889,6.3805889 0 1 1 -12.73047,0 V 22.300781 Z M 28.349609,129.64062 a 5.641504,5.641504 0 0 0 -5.648437,5.64063 v 18.5625 h 10.826172 a 6.3805889,6.3805889 0 0 1 0,12.72852 H 22.701172 v 24.17187 h 10.826172 a 6.38086,6.38086 0 0 1 0,12.76172 H 22.701172 v 18.54687 a 5.6521383,5.6521384 0 0 0 5.648437,5.64649 H 46.90625 v -10.82617 a 6.3805889,6.3805889 0 1 1 12.722656,0 v 10.82617 h 24.205078 v -10.82617 a 6.3805889,6.3805889 0 1 1 12.728516,0 v 10.84179 h 18.55664 a 5.641504,5.641504 0 0 0 5.64258,-5.64648 v -18.55664 h -10.82617 a 6.3805889,6.3805889 0 1 1 0,-12.73047 h 10.84179 v -24.19727 h -10.82617 a 6.3805889,6.3805889 0 0 1 -6.38086,-6.38086 6.3805889,6.3805889 0 0 1 6.36524,-6.37109 h 10.82617 v -18.55078 a 5.6361868,5.6361868 0 0 0 -5.64258,-5.64063 H 96.556641 v 10.82422 a 6.3805889,6.3805889 0 1 1 -12.722657,0 V 129.64062 H 59.628906 v 10.82422 a 6.3805889,6.3805889 0 1 1 -12.728515,0 v -10.82422 z"
       inkscape:label="dark-blue"
       transform="matrix(0.6693305,0.23142159,-0.23142159,0.6693305,50.439887,-0.84751379)"
       mask="url(#mask1525)" /><path
       class="cls-1"
       d="m 210.10228,160.20295 a 6.3805889,6.3805889 0 0 0 6.3806,6.38059 h 10.82572 v 24.19838 h -10.84168 a 6.3805889,6.3805889 0 1 0 0,12.72927 h 10.82574 v 18.55689 a 5.641504,5.641504 0 0 1 -5.64151,5.64681 h -18.55687 v -10.84168 a 6.3805889,6.3805889 0 1 0 -12.72928,0 v 10.82574 h -24.20371 v -10.82574 a 6.3805889,6.3805889 0 1 0 -12.72395,0 v 10.82574 h -18.55688 a 5.6521383,5.6521384 0 0 1 -5.64682,-5.64683 v -18.54625 h 10.82573 a 6.3805889,6.3805889 0 0 0 0,-12.76117 h -10.82573 v -24.1718 h 10.82573 a 6.3805889,6.3805889 0 0 0 0,-12.72927 h -10.82573 v -18.5622 a 5.641504,5.641504 0 0 1 5.64682,-5.6415 h 18.55156 v 10.82573 a 6.3805889,6.3805889 0 1 0 12.72927,0 V 129.63993 H 190.365 v 10.82573 a 6.3805889,6.3805889 0 1 0 12.72397,0 v -10.82573 h 18.56218 a 5.6361868,5.6361868 0 0 1 5.64151,5.6415 v 18.55156 h -10.82574 a 6.3805889,6.3805889 0 0 0 -6.36464,6.36996 z"
       id="path612"
       style="display:inline;fill:#8f13fa;stroke-width:0.531716;fill-opacity:1"
       inkscape:label="purple"
       transform="matrix(0.6693305,0.23142159,-0.23142159,0.6693305,50.439887,-0.84751379)"
       mask="url(#mask1517)" /></g><path
     id="rect74506"
     style="display:inline;fill:#d034d8;fill-opacity:1;stroke-width:13.0037"
     d="m 104.5873,98.856415 16.36443,18.585005 a 5.9523867,5.9523867 0 0 1 2.60041,-0.69451 5.9523867,5.9523867 0 0 1 5.95152,5.95152 5.9523867,5.9523867 0 0 1 -5.95152,5.95153 5.9523867,5.9523867 0 0 1 -5.95151,-5.95153 5.9523867,5.9523867 0 0 1 1.41821,-3.53314 L 102.6634,100.59152 c 4.78239,12.06671 7.25006,19.15254 9.53186,32.92213 6.6988,2.64333 18.94991,14.43879 28.97545,22.56991 l -1.95089,9.91845 c 33.20168,22.09682 3.28799,3.63 68.0334,78.09567 6.26579,7.20652 17.14354,7.90036 24.32524,1.60475 7.18157,-6.29428 7.90638,-17.15627 1.60025,-24.32749 -62.48053,-71.0518 -49.37966,-39.75863 -68.50087,-77.68662 l -10.08701,0.63382 c -6.74644,-11.00448 -16.83616,-24.69621 -18.57827,-31.68374 -13.36497,-4.07172 -20.06848,-7.4466 -31.42526,-13.781985 z"
     inkscape:label="pen" /></svg>
