<?xml version="1.0" encoding="UTF-8" standalone="no"?>
<!-- Created with Inkscape (http://www.inkscape.org/) -->

<svg
   width="250"
   height="250"
   viewBox="0 0 250 250"
   version="1.1"
   id="svg5"
   inkscape:version="1.2.2 (b0a8486541, 2022-12-01)"
   sodipodi:docname="mappings.svg"
   inkscape:export-filename="500px/mappings.png"
   inkscape:export-xdpi="192"
   inkscape:export-ydpi="192"
   xml:space="preserve"
   xmlns:inkscape="http://www.inkscape.org/namespaces/inkscape"
   xmlns:sodipodi="http://sodipodi.sourceforge.net/DTD/sodipodi-0.dtd"
   xmlns="http://www.w3.org/2000/svg"
   xmlns:svg="http://www.w3.org/2000/svg"><sodipodi:namedview
     id="namedview7"
     pagecolor="#20172e"
     bordercolor="#999999"
     borderopacity="1"
     inkscape:showpageshadow="0"
     inkscape:pageopacity="0"
     inkscape:pagecheckerboard="0"
     inkscape:deskcolor="#d1d1d1"
     inkscape:document-units="mm"
     showgrid="false"
     inkscape:zoom="1.4142136"
     inkscape:cx="196.22213"
     inkscape:cy="175.00892"
     inkscape:window-width="1760"
     inkscape:window-height="1080"
     inkscape:window-x="2241"
     inkscape:window-y="103"
     inkscape:window-maximized="0"
     inkscape:current-layer="svg5"
     showguides="false"><sodipodi:guide
       position="181.98371,151.86206"
       orientation="1,0"
       id="guide70496"
       inkscape:locked="false" /></sodipodi:namedview><defs
     id="defs2"><inkscape:path-effect
       effect="mirror_symmetry"
       start_point="121.5,27.705829"
       end_point="121.5,172.35943"
       center_point="121.48719,100.02972"
       id="path-effect75993"
       is_visible="true"
       lpeversion="1.2"
       lpesatellites=""
       mode="X"
       discard_orig_path="false"
       fuse_paths="true"
       oposite_fuse="false"
       split_items="false"
       split_open="false"
       link_styles="false" /><style
       id="style40072">.cls-1{fill:#34f;}</style><style
       id="style447">.cls-1{fill:#34f;}</style></defs><g
     id="g4102"
     transform="matrix(1.1975454,-0.41405233,0.41405233,1.1975454,-47.224924,34.727905)"
     inkscape:label="quilt-map"><path
       id="path451"
       style="fill:#499bf9;fill-opacity:1;stroke-width:0.376525"
       class="cls-1"
       d="m 122.30813,40.718458 -12.42325,-4.291597 -2.50342,7.245963 c -0.66858,2.543539 -3.35973,3.980808 -5.84546,3.121912 -2.485734,-0.858896 -3.715517,-3.650967 -2.671215,-6.064682 L 101.36821,33.484091 85.169708,27.8872 82.66461,35.132584 c -0.674074,2.537195 -3.361153,3.967739 -5.842416,3.110387 -2.481263,-0.857352 -3.711996,-3.641619 -2.675932,-6.053736 l 2.503421,-7.245964 -12.418225,-4.289858 c -2.085985,-0.722035 -4.362195,0.384566 -5.082794,2.471047 l -4.293273,12.422674 7.245963,2.503422 c 5.165531,2.201969 2.479113,9.976732 -2.943929,8.520024 l -7.245963,-2.503421 -5.589936,16.178382 7.245964,2.503421 c 5.693211,1.96736 2.743423,10.509757 -2.949788,8.542397 l -7.245963,-2.503421 -4.289796,12.412616 c -0.719149,2.087359 0.38772,4.362838 2.47382,5.08563 l 12.419902,4.290438 2.503421,-7.245964 c 0.668572,-2.543549 3.359726,-3.980829 5.845466,-3.12193 2.48574,0.858899 3.715521,3.650982 2.671206,6.0647 l -2.503421,7.245963 16.200174,5.597471 2.503422,-7.245964 c 1.326594,-4.484416 7.757115,-4.246236 8.748332,0.32403 1.172936,-12.551129 0.770951,-13.330951 1.093731,-16.475493 2.840976,3.157486 5.185721,5.111105 7.673754,7.320805 0.892761,-2.412385 3.61649,-3.593818 5.98789,-2.59728 l 7.25602,2.506899 5.59573,-16.195145 -7.24596,-2.503422 c -2.35793,-0.815554 -3.60852,-3.387944 -2.7935,-5.746061 0.81605,-2.350443 3.37878,-3.598832 5.73259,-2.792528 l 7.24596,2.503421 4.28928,-12.416549 c 0.72313,-2.085786 -0.38431,-4.362434 -2.47163,-5.081117 z M 89.971066,92.861074 c -36.65769,-83.6662109 -18.328845,-41.833105 0,0 z"
       sodipodi:nodetypes="cccsccccsccccccccccccccccscccccccccccccccccc"
       inkscape:label="light-blue" /><path
       id="path451-5"
       style="fill:#3b38fa;fill-opacity:1;stroke-width:0.376525"
       class="cls-1"
       d="m 193.62048,65.365654 -12.42531,-4.292479 -2.50343,7.24574 a 4.5182979,4.5182979 0 1 1 -8.51489,-2.942238 l 2.50343,-7.245741 -16.20075,-5.597839 -2.50343,7.24574 a 4.5182979,4.5182979 0 1 1 -8.51969,-2.943898 l 2.50343,-7.245741 -12.41571,-4.289159 a 3.9949284,3.9949284 0 0 0 -5.08455,2.470569 l -4.29193,12.423714 7.24574,2.503429 a 4.5182979,4.5182979 0 0 1 -2.94389,8.51969 l -7.24575,-2.503429 -5.59009,16.178344 7.24574,2.503429 a 4.5188388,4.5188388 0 0 1 -2.95164,8.542096 l -7.24519,-2.505029 -1.42494,4.126485 c 2.47752,2.10354 5.11307,4.132783 7.75108,6.032333 0.80237,0.47751 1.59632,1.1708 1.64553,2.17973 -0.20754,1.68019 -0.22955,3.38846 -0.003,5.07147 0.18277,1.23659 0.4033,2.46526 0.64118,3.69054 l 1.99575,0.69003 2.50343,-7.24574 a 4.5182979,4.5182979 0 1 1 8.51649,2.94279 l -2.50343,7.24574 16.19755,5.59673 2.50342,-7.24574 a 4.5182979,4.5182979 0 1 1 8.51969,2.9439 l -2.50514,7.2559 12.42051,4.29082 a 3.9949284,3.9949284 0 0 0 5.08085,-2.47543 l 4.29242,-12.41996 -7.24574,-2.50343 a 4.5182979,4.5182979 0 1 1 2.9439,-8.51969 l 7.25535,2.50675 5.59562,-16.19435 -7.24519,-2.50503 a 4.5182979,4.5182979 0 0 1 -2.79577,-5.74527 4.5182979,4.5182979 0 0 1 5.73345,-2.792697 l 7.24574,2.503429 4.29076,-12.415159 a 3.9911631,3.9911631 71.565051 0 0 -2.47168,-5.081349 z m -104.158328,44.421126 -4.398559,-1.51902 -2.503429,7.24575 a 4.5182979,4.5182979 0 1 1 -8.514889,-2.94224 l 2.501829,-7.2463 -16.19915,-5.597284 -2.503429,7.245744 a 4.5182979,4.5182979 0 1 1 -8.51969,-2.9439 l 2.503429,-7.245742 -12.417312,-4.289713 a 3.9949284,3.9949284 0 0 0 -5.08455,2.470569 l -4.291926,12.423716 7.24574,2.50343 a 4.5182979,4.5182979 0 0 1 -2.943898,8.51969 l -7.245741,-2.50343 -5.590093,16.17834 7.247341,2.50399 a 4.5183023,4.5183023 0 0 1 -2.951092,8.54049 l -7.247341,-2.50398 -4.287005,12.41466 a 4.0024589,4.0024589 45 0 0 2.474323,5.08406 l 12.41836,4.29187 2.503429,-7.24574 a 4.5182979,4.5182979 0 1 1 8.516489,2.94279 l -2.503429,7.24574 16.199149,5.59728 2.50343,-7.24574 a 4.5182979,4.5182979 0 1 1 8.51969,2.9439 l -2.50675,7.25534 12.422114,4.29138 a 3.9949284,3.9949284 0 0 0 5.079255,-2.47599 l 4.29242,-12.41996 -7.245741,-2.50342 a 4.5182979,4.5182979 0 1 1 2.943898,-8.51969 l 7.256944,2.5073 5.595626,-16.19435 -7.246787,-2.50558 a 4.5182979,4.5182979 0 0 1 -2.794179,-5.74472 4.5182979,4.5182979 0 0 1 5.731854,-2.79325 l 7.245741,2.50343 0.396754,-1.14752 c -0.700929,-1.12982 -1.427379,-2.28761 -2.109764,-3.34005 -1.575415,-2.5045 -3.535085,-4.7777 -5.911614,-6.5538 0.195535,-1.16744 0.387918,-2.33665 0.58098,-3.50449 0.312814,-1.89384 0.601312,-3.81003 0.837573,-5.72356 z"
       inkscape:label="dark-blue" /><path
       id="path589"
       style="fill:#8f13fa;fill-opacity:1;stroke-width:0.376525"
       class="cls-1"
       d="m 168.8002,137.19893 -12.42268,-4.29327 -2.50342,7.24596 a 4.5182979,4.5182979 0 1 1 -8.51667,-2.94276 l 2.50284,-7.24429 -16.1985,-5.59689 -2.50509,7.24538 a 4.5182979,4.5182979 0 0 1 -0.19722,0.33157 c 2.13013,0.58993 4.26029,1.17977 6.39026,1.77027 0.42074,3.01787 0.82334,6.03809 1.26343,9.05321 0.73955,4.50652 1.18311,9.17274 3.15701,13.35267 1.87248,3.42251 3.96827,6.72002 5.87146,10.12657 1.94862,3.51881 3.80301,7.08622 5.58529,10.68826 l 7.22082,2.49473 5.59631,-16.19683 -7.24596,-2.50342 a 4.5182979,4.5182979 0 0 1 -2.7935,-5.74606 4.5182979,4.5182979 0 0 1 5.732,-2.79085 l 7.24597,2.50342 4.28928,-12.41655 a 3.9911631,3.9911631 0 0 0 -2.47163,-5.08112 z m -65.92179,4.89402 -4.474881,-1.54531 -5.589356,16.1767 7.245387,2.5051 a 4.5183028,4.5183028 0 0 1 -2.950888,8.54014 l -7.244287,-2.50284 -4.289796,12.41262 a 4.0024589,4.0024589 45 0 0 2.473821,5.08562 l 12.4199,4.29044 2.50342,-7.24596 a 4.5182979,4.5182979 0 1 1 8.51667,2.94277 l -2.50342,7.24596 10.00364,3.45689 c -2.22698,-6.47378 -4.28151,-13.00411 -6.00344,-19.63502 -1.0731,-3.77866 -1.46072,-7.85878 -3.58258,-11.25328 -0.86311,-1.40456 -1.93648,-2.9988 -2.96309,-4.41962 -2.31689,-3.18158 -4.89751,-6.43562 -7.267565,-9.68214 1.234875,-2.12438 2.470715,-4.2482 3.706465,-6.37207 z"
       inkscape:label="purple" /></g><path
     id="rect74506"
     style="display:inline;fill:#d034d8;fill-opacity:1;stroke-width:13.0037"
     d="m 104.5873,98.856415 16.36443,18.585005 a 5.9523867,5.9523867 0 0 1 2.60041,-0.69451 5.9523867,5.9523867 0 0 1 5.95152,5.95152 5.9523867,5.9523867 0 0 1 -5.95152,5.95153 5.9523867,5.9523867 0 0 1 -5.95151,-5.95153 5.9523867,5.9523867 0 0 1 1.41821,-3.53314 L 102.6634,100.59152 c 4.78239,12.06671 7.25006,19.15254 9.53186,32.92213 6.6988,2.64333 18.94991,14.43879 28.97545,22.56991 l -1.95089,9.91845 c 33.20168,22.09682 3.28799,3.63 68.0334,78.09567 6.26579,7.20652 17.14354,7.90036 24.32524,1.60475 7.18157,-6.29428 7.90638,-17.15627 1.60025,-24.32749 -62.48053,-71.0518 -49.37966,-39.75863 -68.50087,-77.68662 l -10.08701,0.63382 c -6.74644,-11.00448 -16.83616,-24.69621 -18.57827,-31.68374 -13.36497,-4.07172 -20.06848,-7.4466 -31.42526,-13.781985 z"
     inkscape:label="pen" /></svg>
