<?xml version="1.0" encoding="UTF-8" standalone="no"?>
<!-- Created with Inkscape (http://www.inkscape.org/) -->

<svg
   width="250"
   height="250"
   viewBox="0 0 250 250"
   version="1.1"
   id="svg5"
   inkscape:version="1.2.2 (b0a8486541, 2022-12-01)"
   sodipodi:docname="qsl.svg"
   inkscape:export-filename="500px/qsl.png"
   inkscape:export-xdpi="192"
   inkscape:export-ydpi="192"
   xml:space="preserve"
   xmlns:inkscape="http://www.inkscape.org/namespaces/inkscape"
   xmlns:sodipodi="http://sodipodi.sourceforge.net/DTD/sodipodi-0.dtd"
   xmlns="http://www.w3.org/2000/svg"
   xmlns:svg="http://www.w3.org/2000/svg"><sodipodi:namedview
     id="namedview7"
     pagecolor="#20172e"
     bordercolor="#999999"
     borderopacity="1"
     inkscape:showpageshadow="0"
     inkscape:pageopacity="0"
     inkscape:pagecheckerboard="0"
     inkscape:deskcolor="#d1d1d1"
     inkscape:document-units="mm"
     showgrid="false"
     inkscape:zoom="1.7"
     inkscape:cx="167.64706"
     inkscape:cy="140"
     inkscape:window-width="2113"
     inkscape:window-height="1411"
     inkscape:window-x="1955"
     inkscape:window-y="0"
     inkscape:window-maximized="0"
     inkscape:current-layer="svg5"
     showguides="true" /><defs
     id="defs2"><style
       id="style40072">.cls-1{fill:#34f;}</style></defs><path
     id="rect20892"
     style="display:inline;opacity:1;fill:#8f13fa;fill-opacity:1;stroke-width:1.96455"
     d="m 18.898952,14.749925 c -2.142567,0 -3.865123,1.722557 -3.865123,3.865124 v 22.954726 c 0.200647,-0.03052 0.399402,-0.06157 0.608842,-0.06157 H 82.724793 V 18.615049 c 0,-2.142567 -1.726006,-3.865124 -3.868536,-3.865124 z M 15.033829,50.644264 V 199.68067 H 82.724793 V 50.705833 H 15.642671 c -0.20944,0 -0.408195,-0.03103 -0.608842,-0.06157 z m 0,158.230616 v 22.50665 c 0,2.14258 1.722556,3.86855 3.865123,3.86855 h 59.957305 c 2.14253,0 3.868536,-1.72597 3.868536,-3.86855 v -22.50665 z" /><path
     id="rect20935"
     style="display:inline;opacity:1;fill:#d034d8;fill-opacity:1;stroke-width:1.96455"
     d="m 95.007673,50.705833 c -2.142565,0 -3.868536,1.722555 -3.868536,3.865124 V 76.574795 H 158.8472 V 54.570957 c 0,-2.142569 -1.72598,-3.865124 -3.86855,-3.865124 z M 91.139137,85.772421 V 199.68067 H 158.8472 V 85.772421 Z m 0,123.102459 v 22.50665 c 0,2.14258 1.725971,3.86855 3.868536,3.86855 h 59.970977 c 2.14257,0 3.86855,-1.72597 3.86855,-3.86855 v -22.50665 z" /><path
     id="rect21663"
     style="display:inline;opacity:1;fill:#499bf9;fill-opacity:1;stroke-width:1.96455"
     d="m 171.13008,15.420337 c -2.14256,0 -3.86855,1.722555 -3.86855,3.865123 v 22.222747 h 67.70465 V 19.28546 c 0,-2.142568 -1.72256,-3.865123 -3.86513,-3.865123 z m -3.86855,35.285496 v 25.868962 h 67.70465 V 50.705833 Z m 0,35.066588 V 199.68067 h 67.70465 V 85.772421 Z m 0,123.102459 v 22.50665 c 0,2.14258 1.72599,3.86855 3.86855,3.86855 h 59.97097 c 2.14257,0 3.86513,-1.72597 3.86513,-3.86855 v -22.50665 z" /></svg>
