<?xml version="1.0" encoding="UTF-8" standalone="no"?>
<svg
   viewBox="0 0 159.44 159.44"
   version="1.1"
   id="svg4"
   sodipodi:docname="quilt_patch_missing_texture.svg"
   inkscape:version="1.1 (c4e8f9ed74, 2021-05-24)"
   inkscape:export-filename="/home/apple/Pictures/quilt_patch_missing_texture_200dpi.png"
   inkscape:export-xdpi="616.56"
   inkscape:export-ydpi="616.56"
   xmlns:inkscape="http://www.inkscape.org/namespaces/inkscape"
   xmlns:sodipodi="http://sodipodi.sourceforge.net/DTD/sodipodi-0.dtd"
   xmlns="http://www.w3.org/2000/svg"
   xmlns:svg="http://www.w3.org/2000/svg">
  <defs
     id="defs8">
    <clipPath
       clipPathUnits="userSpaceOnUse"
       id="clipPath1567">
      <path
         d="m 131.44,49.69 a 10.35,10.35 0 0 0 10.35,10.35 h 17.65 v 39.34 h -17.6 a 10.35,10.35 0 0 0 0,20.7 h 17.6 v 30.17 a 9.18,9.18 0 0 1 -9.17,9.17 h -30.19 v -17.6 a 10.35,10.35 0 1 0 -20.7,0 v 17.62 H 60.04 v -17.6 a 10.35,10.35 0 0 0 -20.7,0 v 17.6 H 9.17 A 9.17,9.17 0 0 1 0,150.27 v -30.19 h 17.59 a 10.35,10.35 0 1 0 0,-20.7 H 0 V 60.04 h 17.59 a 10.36,10.36 0 1 0 0,-20.71 H 0 V 9.17 A 9.16,9.16 0 0 1 9.17,0 h 30.17 v 17.6 a 10.35,10.35 0 0 0 20.7,0 V 0 h 39.34 v 17.6 a 10.35,10.35 0 1 0 20.7,0 V 0 h 30.17 a 9.17,9.17 0 0 1 9.17,9.17 v 30.16 h -17.6 a 10.35,10.35 0 0 0 -10.38,10.36 z"
         style="fill:#ffffff"
         id="path1569" />
    </clipPath>
    <clipPath
       clipPathUnits="userSpaceOnUse"
       id="clipPath1571">
      <path
         d="m 131.44,49.69 a 10.35,10.35 0 0 0 10.35,10.35 h 17.65 v 39.34 h -17.6 a 10.35,10.35 0 0 0 0,20.7 h 17.6 v 30.17 a 9.18,9.18 0 0 1 -9.17,9.17 h -30.19 v -17.6 a 10.35,10.35 0 1 0 -20.7,0 v 17.62 H 60.04 v -17.6 a 10.35,10.35 0 0 0 -20.7,0 v 17.6 H 9.17 A 9.17,9.17 0 0 1 0,150.27 v -30.19 h 17.59 a 10.35,10.35 0 1 0 0,-20.7 H 0 V 60.04 h 17.59 a 10.36,10.36 0 1 0 0,-20.71 H 0 V 9.17 A 9.16,9.16 0 0 1 9.17,0 h 30.17 v 17.6 a 10.35,10.35 0 0 0 20.7,0 V 0 h 39.34 v 17.6 a 10.35,10.35 0 1 0 20.7,0 V 0 h 30.17 a 9.17,9.17 0 0 1 9.17,9.17 v 30.16 h -17.6 a 10.35,10.35 0 0 0 -10.38,10.36 z"
         style="fill:#ffffff"
         id="path1573" />
    </clipPath>
    <clipPath
       clipPathUnits="userSpaceOnUse"
       id="clipPath1575">
      <path
         d="m 131.44,49.69 a 10.35,10.35 0 0 0 10.35,10.35 h 17.65 v 39.34 h -17.6 a 10.35,10.35 0 0 0 0,20.7 h 17.6 v 30.17 a 9.18,9.18 0 0 1 -9.17,9.17 h -30.19 v -17.6 a 10.35,10.35 0 1 0 -20.7,0 v 17.62 H 60.04 v -17.6 a 10.35,10.35 0 0 0 -20.7,0 v 17.6 H 9.17 A 9.17,9.17 0 0 1 0,150.27 v -30.19 h 17.59 a 10.35,10.35 0 1 0 0,-20.7 H 0 V 60.04 h 17.59 a 10.36,10.36 0 1 0 0,-20.71 H 0 V 9.17 A 9.16,9.16 0 0 1 9.17,0 h 30.17 v 17.6 a 10.35,10.35 0 0 0 20.7,0 V 0 h 39.34 v 17.6 a 10.35,10.35 0 1 0 20.7,0 V 0 h 30.17 a 9.17,9.17 0 0 1 9.17,9.17 v 30.16 h -17.6 a 10.35,10.35 0 0 0 -10.38,10.36 z"
         style="fill:#ffffff"
         id="path1577" />
    </clipPath>
  </defs>
  <sodipodi:namedview
     id="namedview6"
     pagecolor="#ffffff"
     bordercolor="#666666"
     borderopacity="1.0"
     inkscape:pageshadow="2"
     inkscape:pageopacity="0.0"
     inkscape:pagecheckerboard="true"
     showgrid="false"
     inkscape:zoom="5.6568543"
     inkscape:cx="87.327687"
     inkscape:cy="99.348502"
     inkscape:window-width="2560"
     inkscape:window-height="1415"
     inkscape:window-x="0"
     inkscape:window-y="25"
     inkscape:window-maximized="1"
     inkscape:current-layer="layer1">
    <sodipodi:guide
       position="0,159.44"
       orientation="0,159.44"
       id="guide852" />
    <sodipodi:guide
       position="159.44,159.44"
       orientation="159.44,0"
       id="guide854" />
    <sodipodi:guide
       position="159.44,0"
       orientation="0,-159.44"
       id="guide856" />
    <sodipodi:guide
       position="0,0"
       orientation="-159.44,0"
       id="guide858" />
  </sodipodi:namedview>
  <g
     inkscape:groupmode="layer"
     id="layer2"
     inkscape:label="Layer 2">
    <rect
       style="fill:#f800f8;fill-opacity:1;stroke:#5da426;stroke-width:0"
       id="rect860"
       width="159.44"
       height="159.44"
       x="0"
       y="0"
       clip-path="url(#clipPath1575)" />
  </g>
  <g
     inkscape:groupmode="layer"
     id="layer3"
     inkscape:label="Layer 3"
     style="display:inline">
    <rect
       style="fill:#000000;fill-opacity:1;stroke:#000000;stroke-width:0"
       id="rect1241"
       width="79.720001"
       height="79.720001"
       x="0"
       y="0"
       clip-path="url(#clipPath1571)" />
    <rect
       style="fill:#000000;fill-opacity:1;stroke:#000000;stroke-width:0"
       id="rect1243"
       width="79.720001"
       height="79.720001"
       x="79.720001"
       y="79.720001"
       clip-path="url(#clipPath1567)" />
  </g>
  <g
     inkscape:groupmode="layer"
     id="layer1"
     inkscape:label="Layer 1"
     style="display:inline"
     sodipodi:insensitive="true" />
</svg>
