<svg id="Layer_1" data-name="Layer 1" xmlns="http://www.w3.org/2000/svg" viewBox="0 0 2327.03 637.05"><defs><style>.cls-1{fill:#1b112b;}.cls-2{fill:#9722ff;}.cls-3{fill:#dc29dd;}.cls-4{fill:#27a2fd;}.cls-5{fill:#34f;}.cls-6{fill:#fff;}</style></defs><rect class="cls-1" x="8.68" y="10" width="2308.34" height="617.05" rx="81.98"/><path class="cls-2" d="M2235.05,20a72.06,72.06,0,0,1,72,72V545.07a72.06,72.06,0,0,1-72,72H90.66a72.06,72.06,0,0,1-72-72V92a72.06,72.06,0,0,1,72-72H2235.05m0-20H90.66a92,92,0,0,0-92,92V545.07a92,92,0,0,0,92,92H2235.05a92,92,0,0,0,92-92V92a92,92,0,0,0-92-92Z"/><path class="cls-2" d="M284.46,133.59a8,8,0,0,0,8,7.95h13.52v30.23H292.41a7.95,7.95,0,0,0,0,15.9h13.52v23.19a7,7,0,0,1-7,7H275.7V204.38a7.95,7.95,0,0,0-15.9,0V217.9H229.57V204.38a8,8,0,0,0-15.9,0V217.9H190.49a7.05,7.05,0,0,1-7.05-7V102.46a7,7,0,0,1,7.05-7h108.4a7,7,0,0,1,7,7v23.17H292.41A8,8,0,0,0,284.46,133.59Z"/><path class="cls-3" d="M422.86,133.59a8,8,0,0,0,7.95,7.95h13.53v30.23H430.81a7.95,7.95,0,0,0,0,15.9h13.53v23.19a7.05,7.05,0,0,1-7,7H328.89a7.05,7.05,0,0,1-7.05-7V187.67h13.52a8,8,0,1,0,0-15.9H321.84V141.54h13.52a8,8,0,1,0,0-15.91H321.84V102.46a7,7,0,0,1,7.05-7h108.4a7,7,0,0,1,7,7v23.17H430.81A8,8,0,0,0,422.86,133.59Z"/><path class="cls-4" d="M582.74,102.46v108.4a7.05,7.05,0,0,1-7,7H552.51V204.38a8,8,0,0,0-15.91,0V217.9H506.38V204.38a8,8,0,0,0-15.91,0V217.9H467.29a7.05,7.05,0,0,1-7.05-7V187.67h13.53a7.95,7.95,0,1,0,0-15.9H460.24V141.54h13.53a8,8,0,0,0,0-15.91H460.24V102.46a7,7,0,0,1,7.05-7h108.4A7,7,0,0,1,582.74,102.46Z"/><path class="cls-3" d="M305.93,240.85v108.4a7,7,0,0,1-7,7.05H275.7V342.78a8,8,0,1,0-15.9,0V356.3H229.57V342.78a8,8,0,1,0-15.9,0V356.3H190.49a7,7,0,0,1-7.05-7.05V240.85a7,7,0,0,1,7.05-7h23.18v13.52a8,8,0,1,0,15.9,0V233.81H259.8v13.52a7.95,7.95,0,0,0,15.9,0V233.81h23.19A7,7,0,0,1,305.93,240.85Z"/><path class="cls-4" d="M422.86,272a8,8,0,0,0,7.95,7.95h13.53v30.23H430.81a7.95,7.95,0,0,0,0,15.9h13.53v23.18a7,7,0,0,1-7,7.05H414.11V342.78a8,8,0,1,0-15.9,0V356.3H368V342.78a8,8,0,0,0-15.92,0V356.3H328.89a7,7,0,0,1-7.05-7.05V240.85a7,7,0,0,1,7.05-7h108.4a7,7,0,0,1,7,7V264H430.81A8,8,0,0,0,422.86,272Z"/><path class="cls-5" d="M582.74,240.85v108.4a7,7,0,0,1-7,7.05H467.29a7,7,0,0,1-7.05-7.05V326.07h13.53a7.95,7.95,0,1,0,0-15.9H460.24V279.94h13.53a8,8,0,0,0,0-15.91H460.24V240.85a7,7,0,0,1,7.05-7h23.18v13.52a8,8,0,0,0,15.91,0V233.81H536.6v13.52a8,8,0,0,0,15.91,0V233.81h23.18A7,7,0,0,1,582.74,240.85Z"/><path class="cls-2" d="M284.46,410.39a8,8,0,0,0,8,7.95h13.52v30.22H292.41a8,8,0,0,0,0,15.92h13.52v23.18a7,7,0,0,1-7,7H190.49a7,7,0,0,1-7.05-7V379.26a7,7,0,0,1,7.05-7.05h23.18v13.52a8,8,0,1,0,15.9,0V372.21H259.8v13.52a8,8,0,1,0,15.9,0V372.21h23.19a7,7,0,0,1,7,7.05v23.17H292.41A8,8,0,0,0,284.46,410.39Z"/><path class="cls-5" d="M444.34,379.26v108.4a7,7,0,0,1-7,7H328.89a7,7,0,0,1-7.05-7V464.48h13.52a8,8,0,0,0,0-15.92H321.84V418.34h13.52a8,8,0,1,0,0-15.91H321.84V379.26a7,7,0,0,1,7.05-7.05h23.17v13.52a8,8,0,0,0,15.92,0V372.21h30.23v13.52a8,8,0,1,0,15.9,0V372.21h23.18A7,7,0,0,1,444.34,379.26Z"/><rect class="cls-2" x="485.61" y="397.58" width="122.49" height="122.49" rx="9.17" transform="translate(-164.27 521.07) rotate(-45)"/><path class="cls-6" d="M764.21,223.61h-39.3l-6.3,18.6H691.76l38.1-105.3h29.7l38.1,105.3H770.51Zm-6.6-19.8-13.05-38.55-12.9,38.55Z"/><path class="cls-6" d="M908.06,136.91l-37.35,105.3h-32.1l-37.35-105.3h27.3l26.1,79.5,26.25-79.5Z"/><path class="cls-6" d="M984.26,223.61H945l-6.3,18.6H911.81l38.1-105.3h29.7l38.1,105.3H990.56Zm-6.6-19.8-13-38.55-12.9,38.55Z"/><path class="cls-6" d="M1054.91,136.91v105.3h-25.65V136.91Z"/><path class="cls-6" d="M1099.16,222.41h33.6v19.8h-59.25V136.91h25.65Z"/><path class="cls-6" d="M1210.61,223.61h-39.3l-6.3,18.6h-26.85l38.1-105.3H1206l38.1,105.3h-27.15Zm-6.6-19.8-13-38.55-12.9,38.55Z"/><path class="cls-6" d="M1334.06,197.28a25.84,25.84,0,0,1,5.55,16.28q0,13.2-9.23,20.92t-25.72,7.73h-49.05V136.91H1303q16,0,25.12,7.35t9.08,20q0,9.3-4.88,15.45a25.2,25.2,0,0,1-13,8.55A24.54,24.54,0,0,1,1334.06,197.28Zm-52.8-17.77h16.8q6.3,0,9.67-2.78t3.38-8.17q0-5.4-3.38-8.25t-9.67-2.85h-16.8Zm28.87,39.07q3.52-2.93,3.53-8.47a10.85,10.85,0,0,0-3.68-8.7q-3.68-3.15-10.12-3.15h-18.6v23.25h18.9Q1306.6,221.51,1310.13,218.58Z"/><path class="cls-6" d="M1380.11,222.41h33.6v19.8h-59.25V136.91h25.65Z"/><path class="cls-6" d="M1451.65,157.46v21.3H1486v19.8h-34.35v23.1h38.85v20.55H1426V136.91h64.5v20.55Z"/><path class="cls-6" d="M1607.5,136.91v20.55h-42.9v22.2h32.1v20h-32.1v42.6H1539V136.91Z"/><path class="cls-6" d="M1643.57,236.36a51.59,51.59,0,0,1-19.65-19.28,56.73,56.73,0,0,1,0-55.57,51.74,51.74,0,0,1,19.65-19.2,57.16,57.16,0,0,1,54.45,0,50.66,50.66,0,0,1,19.5,19.2,57.46,57.46,0,0,1-.07,55.57,51.21,51.21,0,0,1-19.5,19.28,57,57,0,0,1-54.38,0Zm47.4-24.9q7.58-8.4,7.58-22.2T1691,167q-7.58-8.32-20.17-8.32-12.75,0-20.33,8.25t-7.57,22.35q0,14,7.57,22.27t20.33,8.33Q1683.4,219.86,1691,211.46Z"/><path class="cls-6" d="M1792.6,242.21l-21.9-39.75h-6.15v39.75H1738.9V136.91h43q12.45,0,21.22,4.35a30,30,0,0,1,13.13,11.92,33.29,33.29,0,0,1,4.35,16.88,31.35,31.35,0,0,1-5.93,18.75q-5.92,8.25-17.47,11.7l24.3,41.7Zm-28-57.9h15.9q7,0,10.57-3.45t3.53-9.75q0-6-3.53-9.45t-10.57-3.45h-15.9Z"/><path class="cls-6" d="M821.91,490.51,800.68,462a93.55,93.55,0,0,1-18.4,1.89A86.43,86.43,0,0,1,739.48,453a81,81,0,0,1-30.9-30.31Q697.14,403.25,697.14,379t11.44-43.63a81.42,81.42,0,0,1,30.9-30.19,89.86,89.86,0,0,1,85.61,0,79.75,79.75,0,0,1,30.66,30.19Q867,354.67,867,379a87,87,0,0,1-8.61,38.8,80,80,0,0,1-23.93,29.13l36.32,43.63ZM750.33,414q11.89,13.08,31.95,13.09,19.82,0,31.72-13.21T825.91,379q0-21.93-11.91-35t-31.72-13.09q-20,0-31.95,13T738.41,379Q738.41,400.9,750.33,414Z"/><path class="cls-6" d="M1019.78,330.6V462.21H979.45V444.28a44.32,44.32,0,0,1-16.62,14,50.76,50.76,0,0,1-23.24,5.3q-15.09,0-26.65-6.72A45.25,45.25,0,0,1,895,437.44q-6.37-12.74-6.37-29.95V330.6h40.1v71.47q0,13.2,6.83,20.52T954,429.9q11.79,0,18.63-7.31t6.84-20.52V330.6Z"/><path class="cls-6" d="M1051.74,310.68a20.27,20.27,0,0,1-6.72-15.45,20.53,20.53,0,0,1,6.72-15.69q6.72-6.24,17.34-6.25,10.37,0,17.09,6.25a20.51,20.51,0,0,1,6.73,15.69,20.24,20.24,0,0,1-6.73,15.45q-6.72,6.24-17.09,6.25Q1058.46,316.93,1051.74,310.68Zm37.38,19.92V462.21h-40.33V330.6Z"/><path class="cls-6" d="M1158.7,287.68V462.21h-40.33V287.68Z"/><path class="cls-6" d="M1261.29,428v34.2h-20.52q-21.93,0-34.2-10.73t-12.26-35V364.1h-16V330.6h16V298.53h40.33V330.6h26.42v33.5h-26.42v52.83q0,5.9,2.83,8.49t9.43,2.59Z"/><path class="cls-6" d="M1374,431.08h52.83v31.13h-93.16V296.64H1374Z"/><path class="cls-6" d="M1471.31,455.84A60.36,60.36,0,0,1,1447,432.26q-8.85-15.33-8.85-35.85,0-20.28,9-35.73A61,61,0,0,1,1471.66,337a78,78,0,0,1,69.81,0A60.82,60.82,0,0,1,1566,360.68q9,15.45,9,35.73t-9.08,35.73a61.31,61.31,0,0,1-24.76,23.7,74,74,0,0,1-35,8.26Q1486.75,464.1,1471.31,455.84Zm54.48-35.14q8.13-8.49,8.14-24.29t-7.9-24.3a26.8,26.8,0,0,0-39-.11q-7.79,8.37-7.78,24.41,0,15.79,7.66,24.29a24.82,24.82,0,0,0,19.23,8.49A26.27,26.27,0,0,0,1525.79,420.7Z"/><path class="cls-6" d="M1596.07,360.56q7.67-15.33,20.87-23.59a54.55,54.55,0,0,1,29.49-8.25q13.9,0,24.41,5.66A41.62,41.62,0,0,1,1687,349.24V330.6h40.33V462.21H1687V443.58a43.67,43.67,0,0,1-16.39,14.86q-10.5,5.65-24.41,5.66a53.48,53.48,0,0,1-29.25-8.38q-13.2-8.37-20.87-23.82t-7.66-35.73Q1588.41,375.89,1596.07,360.56Zm82.55,12a28.34,28.34,0,0,0-40.8-.12q-8.38,8.61-8.38,23.7t8.38,23.94a28.09,28.09,0,0,0,40.8.12q8.37-8.73,8.37-23.82T1678.62,372.59Z"/><path class="cls-6" d="M1756.21,360.56q7.66-15.33,20.87-23.59a54.52,54.52,0,0,1,29.48-8.25,51.9,51.9,0,0,1,23.71,5.42,43.21,43.21,0,0,1,16.86,14.63V287.68h40.33V462.21h-40.33V443.34a41.11,41.11,0,0,1-16.16,15.1q-10.48,5.65-24.41,5.66a53.86,53.86,0,0,1-29.48-8.38q-13.2-8.37-20.87-23.82t-7.67-35.73Q1748.54,375.89,1756.21,360.56Zm82.55,12a28.34,28.34,0,0,0-40.8-.12q-8.39,8.61-8.38,23.7t8.38,23.94a28.09,28.09,0,0,0,40.8.12q8.37-8.73,8.37-23.82T1838.76,372.59Z"/><path class="cls-6" d="M2040.05,406.08h-91.27q.95,12.26,7.9,18.75a24.16,24.16,0,0,0,17.1,6.48q15.09,0,21-12.73h42.92a58.87,58.87,0,0,1-11.91,23.35,59.58,59.58,0,0,1-21.58,16.27,69.35,69.35,0,0,1-29,5.9q-19.34,0-34.43-8.26a58.71,58.71,0,0,1-23.59-23.58q-8.49-15.33-8.49-35.85t8.38-35.85A58,58,0,0,1,1940.52,337q15.09-8.25,34.67-8.25,19.11,0,34,8a57.64,57.64,0,0,1,23.23,22.87q8.37,14.86,8.37,34.67A103.43,103.43,0,0,1,2040.05,406.08Zm-40.56-22.41q0-10.38-7.08-16.51T1974.72,361a25.56,25.56,0,0,0-17.1,5.9q-7,5.9-8.61,16.74Z"/><path class="cls-6" d="M2120,335.44a45.6,45.6,0,0,1,23.59-6.25v42.69H2132.5q-15.09,0-22.64,6.48t-7.54,22.76v61.09H2062V330.6h40.33v21.94A53.22,53.22,0,0,1,2120,335.44Z"/></svg>