<svg id="Layer_1" data-name="Layer 1" xmlns="http://www.w3.org/2000/svg" viewBox="0 0 913.53 913.53"><path d="M0,0V913.53H913.53V0ZM553.68,313.52h17.6a10.35,10.35,0,1,0,0-20.7h-17.6V253.47h17.6a10.35,10.35,0,1,0,0-20.7h-17.6V202.61a9.18,9.18,0,0,1,9.17-9.18H703.93a9.17,9.17,0,0,1,9.17,9.18V343.68a9.17,9.17,0,0,1-9.17,9.18H673.76v-17.6a10.35,10.35,0,0,0-20.7,0v17.6H613.72v-17.6a10.35,10.35,0,0,0-20.7,0v17.6H562.85a9.18,9.18,0,0,1-9.17-9.18ZM352.85,593h-17.6a10.35,10.35,0,0,0,0,20.7h17.6v39.34h-17.6a10.36,10.36,0,0,0,0,20.71h17.6v30.16a9.17,9.17,0,0,1-9.17,9.18H202.6a9.18,9.18,0,0,1-9.17-9.18V562.86a9.18,9.18,0,0,1,9.17-9.18h30.17v17.6a10.35,10.35,0,1,0,20.7,0v-17.6h39.34v17.6a10.35,10.35,0,1,0,20.7,0v-17.6h30.17a9.17,9.17,0,0,1,9.17,9.18Zm0-69.21a9.16,9.16,0,0,1-9.17,9.16H313.51v-17.6a10.35,10.35,0,0,0-20.7,0V533H253.47v-17.6a10.35,10.35,0,0,0-20.7,0V533H202.6a9.17,9.17,0,0,1-9.17-9.16V382.72a9.17,9.17,0,0,1,9.17-9.16h30.17v17.6a10.35,10.35,0,0,0,20.7,0v-17.6h39.34v17.6a10.35,10.35,0,1,0,20.7,0v-17.6h30.17a9.16,9.16,0,0,1,9.17,9.16Zm0-291h-17.6a10.35,10.35,0,0,0,0,20.7h17.6v39.35h-17.6a10.35,10.35,0,1,0,0,20.7h17.6v30.16a9.17,9.17,0,0,1-9.17,9.18H313.51v-17.6a10.35,10.35,0,0,0-20.7,0v17.6H253.47v-17.6a10.35,10.35,0,0,0-20.7,0v17.6H202.6a9.18,9.18,0,0,1-9.17-9.18V202.61a9.18,9.18,0,0,1,9.17-9.18H343.68a9.17,9.17,0,0,1,9.17,9.18ZM533,703.93a9.18,9.18,0,0,1-9.17,9.18H382.73a9.17,9.17,0,0,1-9.17-9.18V673.77h17.59a10.36,10.36,0,1,0,0-20.71H373.56V613.72h17.59a10.35,10.35,0,1,0,0-20.7H373.56V562.86a9.17,9.17,0,0,1,9.17-9.18h30.16v17.6a10.36,10.36,0,1,0,20.71,0v-17.6h39.34v17.6a10.35,10.35,0,1,0,20.7,0v-17.6h30.17a9.18,9.18,0,0,1,9.17,9.18Zm0-291h-17.6a10.36,10.36,0,0,0,0,20.71H533v39.33h-17.6a10.36,10.36,0,0,0,0,20.71H533v30.17a9.17,9.17,0,0,1-9.17,9.16H493.64v-17.6a10.35,10.35,0,0,0-20.7,0V533H433.6v-17.6a10.36,10.36,0,0,0-20.71,0V533H382.73a9.16,9.16,0,0,1-9.17-9.16V382.72a9.16,9.16,0,0,1,9.17-9.16H523.81a9.17,9.17,0,0,1,9.17,9.16Zm0-180.12h-17.6a10.35,10.35,0,0,0,0,20.7H533v39.35h-17.6a10.35,10.35,0,1,0,0,20.7H533v30.16a9.18,9.18,0,0,1-9.17,9.18H382.73a9.17,9.17,0,0,1-9.17-9.18V313.52h17.59a10.35,10.35,0,1,0,0-20.7H373.56V253.47h17.59a10.35,10.35,0,1,0,0-20.7H373.56V202.61a9.17,9.17,0,0,1,9.17-9.18H523.81a9.18,9.18,0,0,1,9.17,9.18Zm20.7,291V493.64h17.6a10.36,10.36,0,0,0,0-20.71h-17.6V433.6h17.6a10.36,10.36,0,0,0,0-20.71h-17.6V382.72a9.17,9.17,0,0,1,9.17-9.16H593v17.6a10.35,10.35,0,0,0,20.7,0v-17.6h39.34v17.6a10.35,10.35,0,0,0,20.7,0v-17.6h30.17a9.16,9.16,0,0,1,9.17,9.16V523.81a9.16,9.16,0,0,1-9.17,9.16H562.85A9.17,9.17,0,0,1,553.68,523.81Zm219,149.08L672.9,772.65a9.17,9.17,0,0,1-13,0l-99.76-99.76a9.17,9.17,0,0,1,0-13l99.76-99.76a9.17,9.17,0,0,1,13,0l99.76,99.76A9.17,9.17,0,0,1,772.66,672.89Z"/></svg>