<?xml version="1.0" encoding="utf-8"?>
<svg viewBox="0 0 159.44 159.44" xmlns="http://www.w3.org/2000/svg">
  <path d="M131.44,49.69a10.35,10.35,0,0,0,10.35,10.35H159.44v39.34h-17.6a10.35,10.35,0,0,0,0,20.7H159.44v30.17a9.18,9.18,0,0,1-9.17,9.17H120.08v-17.6a10.35,10.35,0,1,0-20.7,0V159.44H60.04v-17.6a10.35,10.35,0,0,0-20.7,0V159.44H9.17a9.17,9.17,0,0,1-9.17-9.17V120.08h17.59a10.35,10.35,0,1,0,0-20.7H0V60.04h17.59a10.36,10.36,0,1,0,0-20.71H0V9.17a9.16,9.16,0,0,1,9.17-9.17H39.34v17.6a10.35,10.35,0,0,0,20.7,0v-17.6h39.34v17.6a10.35,10.35,0,1,0,20.7,0v-17.6H150.25a9.17,9.17,0,0,1,9.17,9.17v30.16h-17.6A10.35,10.35,0,0,0,131.44,49.69Z" style="fill: rgb(255, 255, 255);"/>
</svg>