<svg id="Layer_1" data-name="Layer 1" xmlns="http://www.w3.org/2000/svg" viewBox="0 0 2321.7 637.05"><defs><style>.cls-1{fill:#fff;}.cls-2{fill:#9722ff;}.cls-3{fill:#dc29dd;}.cls-4{fill:#27a2fd;}.cls-5{fill:#34f;}.cls-6{fill:#161616;}</style></defs><rect class="cls-1" x="8.67" y="9.99" width="2303.05" height="617.07" rx="81.88"/><path class="cls-2" d="M2229.83,20a72,72,0,0,1,71.9,71.89V545.18a72,72,0,0,1-71.9,71.89H90.55a72,72,0,0,1-71.89-71.89V91.87A72,72,0,0,1,90.55,20H2229.83m0-20H90.55A91.87,91.87,0,0,0-1.32,91.87V545.18a91.87,91.87,0,0,0,91.87,91.87H2229.83a91.87,91.87,0,0,0,91.87-91.87V91.87A91.87,91.87,0,0,0,2229.83,0Z"/><path class="cls-2" d="M284.5,157.06a8,8,0,0,0,7.95,7.95H306v30.23H292.45a7.95,7.95,0,0,0,0,15.9H306v23.18a7,7,0,0,1-7,7.05H275.74V227.85a8,8,0,1,0-15.9,0v13.52H229.61V227.85a8,8,0,1,0-15.9,0v13.52H190.53a7.05,7.05,0,0,1-7.05-7.05V125.92a7,7,0,0,1,7.05-7h108.4a7,7,0,0,1,7,7V149.1H292.45A8,8,0,0,0,284.5,157.06Z"/><path class="cls-3" d="M422.9,157.06a8,8,0,0,0,8,7.95h13.53v30.23H430.85a7.95,7.95,0,0,0,0,15.9h13.53v23.18a7.05,7.05,0,0,1-7.05,7.05H328.93a7.05,7.05,0,0,1-7.05-7.05V211.14H335.4a8,8,0,1,0,0-15.9H321.88V165H335.4a8,8,0,1,0,0-15.91H321.88V125.92a7,7,0,0,1,7.05-7h108.4a7,7,0,0,1,7.05,7V149.1H430.85A8,8,0,0,0,422.9,157.06Z"/><path class="cls-4" d="M582.78,125.92v108.4a7.05,7.05,0,0,1-7,7.05H552.55V227.85a8,8,0,1,0-15.91,0v13.52H506.42V227.85a8,8,0,1,0-15.91,0v13.52H467.33a7.05,7.05,0,0,1-7.05-7.05V211.14h13.53a7.95,7.95,0,0,0,0-15.9H460.28V165h13.53a8,8,0,0,0,0-15.91H460.28V125.92a7,7,0,0,1,7.05-7h108.4A7,7,0,0,1,582.78,125.92Z"/><path class="cls-3" d="M306,264.32v108.4a7,7,0,0,1-7,7H275.74V366.24a7.95,7.95,0,1,0-15.9,0v13.53H229.61V366.24a7.95,7.95,0,0,0-15.9,0v13.53H190.53a7,7,0,0,1-7.05-7V264.32a7,7,0,0,1,7.05-7h23.18V270.8a8,8,0,0,0,15.9,0V257.28h30.23V270.8a8,8,0,1,0,15.9,0V257.28h23.19A7,7,0,0,1,306,264.32Z"/><path class="cls-4" d="M422.9,295.46a8,8,0,0,0,8,8h13.53v30.23H430.85a7.95,7.95,0,0,0,0,15.9h13.53v23.18a7,7,0,0,1-7.05,7H414.15V366.24a8,8,0,0,0-15.91,0v13.53H368V366.24a8,8,0,0,0-15.92,0v13.53H328.93a7,7,0,0,1-7.05-7V264.32a7,7,0,0,1,7.05-7h108.4a7,7,0,0,1,7.05,7V287.5H430.85A8,8,0,0,0,422.9,295.46Z"/><path class="cls-5" d="M582.78,264.32v108.4a7,7,0,0,1-7,7H467.33a7,7,0,0,1-7.05-7V349.54h13.53a7.95,7.95,0,0,0,0-15.9H460.28V303.41h13.53a8,8,0,0,0,0-15.91H460.28V264.32a7,7,0,0,1,7.05-7h23.18V270.8a8,8,0,0,0,15.91,0V257.28h30.22V270.8a8,8,0,0,0,15.91,0V257.28h23.18A7,7,0,0,1,582.78,264.32Z"/><path class="cls-2" d="M284.5,433.86a8,8,0,0,0,7.95,7.95H306V472H292.45a8,8,0,0,0,0,15.92H306v23.18a7,7,0,0,1-7,7H190.53a7,7,0,0,1-7.05-7V402.73a7,7,0,0,1,7.05-7.05h23.18V409.2a8,8,0,1,0,15.9,0V395.68h30.23V409.2a8,8,0,1,0,15.9,0V395.68h23.19a7,7,0,0,1,7,7.05V425.9H292.45A8,8,0,0,0,284.5,433.86Z"/><path class="cls-5" d="M444.38,402.73v108.4a7,7,0,0,1-7.05,7H328.93a7,7,0,0,1-7.05-7V488H335.4a8,8,0,1,0,0-15.92H321.88V441.81H335.4a8,8,0,1,0,0-15.91H321.88V402.73a7,7,0,0,1,7.05-7.05H352.1V409.2a8,8,0,0,0,15.92,0V395.68h30.22V409.2a8,8,0,1,0,15.91,0V395.68h23.18A7,7,0,0,1,444.38,402.73Z"/><rect class="cls-2" x="485.65" y="421.05" width="122.49" height="122.49" rx="9.17" transform="translate(-180.85 527.98) rotate(-45)"/><path class="cls-6" d="M772.09,244.45H733.16l-6.23,18.42h-26.6l37.74-104.29h29.41l37.74,104.29H778.33Zm-6.54-19.61-12.92-38.18-12.78,38.18Z"/><path class="cls-6" d="M914.56,158.58l-37,104.29H845.77l-37-104.29h27l25.85,78.74,26-78.74Z"/><path class="cls-6" d="M990,244.45H951.1l-6.24,18.42H918.27L956,158.58h29.42l37.73,104.29H996.26Zm-6.53-19.61-12.93-38.18-12.77,38.18Z"/><path class="cls-6" d="M1060,158.58V262.87h-25.41V158.58Z"/><path class="cls-6" d="M1103.82,243.26h33.28v19.61h-58.68V158.58h25.4Z"/><path class="cls-6" d="M1214.2,244.45h-38.92L1169,262.87h-26.59l37.73-104.29h29.41l37.74,104.29h-26.89Zm-6.54-19.61-12.92-38.18L1182,224.84Z"/><path class="cls-6" d="M1336.46,218.37a25.51,25.51,0,0,1,5.5,16.12q0,13.08-9.14,20.73t-25.47,7.65h-48.58V158.58h46.94q15.9,0,24.89,7.28t9,19.76q0,9.21-4.82,15.3a25,25,0,0,1-12.86,8.47A24.27,24.27,0,0,1,1336.46,218.37Zm-52.29-17.6h16.64q6.24,0,9.58-2.75t3.34-8.09c0-3.57-1.11-6.29-3.34-8.18s-5.42-2.82-9.58-2.82h-16.64Zm28.6,38.7c2.32-1.93,3.49-4.73,3.49-8.39a10.73,10.73,0,0,0-3.64-8.62q-3.64-3.12-10-3.12h-18.42v23h18.72Q1309.28,242.37,1312.77,239.47Z"/><path class="cls-6" d="M1382.07,243.26h33.28v19.61h-58.68V158.58h25.4Z"/><path class="cls-6" d="M1452.93,178.93V200h34v19.61h-34v22.88h38.48v20.35h-63.88V158.58h63.88v20.35Z"/><path class="cls-6" d="M1607.28,158.58v20.35h-42.49v22h31.8v19.76h-31.8v42.19h-25.4V158.58Z"/><path class="cls-6" d="M1643,257.07A51,51,0,0,1,1623.55,238a56.13,56.13,0,0,1,0-55,51.18,51.18,0,0,1,19.46-19,56.57,56.57,0,0,1,53.93,0,50.1,50.1,0,0,1,19.31,19,56.92,56.92,0,0,1-.07,55,50.67,50.67,0,0,1-19.32,19.09,56.41,56.41,0,0,1-53.85,0Zm47-24.66q7.49-8.31,7.5-22t-7.5-22.06q-7.51-8.25-20-8.25t-20.13,8.17q-7.5,8.18-7.5,22.14,0,13.81,7.5,22.06t20.13,8.24Q1682.45,240.73,1690,232.41Z"/><path class="cls-6" d="M1790.6,262.87l-21.69-39.37h-6.09v39.37h-25.4V158.58h42.64q12.33,0,21,4.31a29.74,29.74,0,0,1,13,11.81,33,33,0,0,1,4.3,16.71,31,31,0,0,1-5.86,18.57q-5.88,8.18-17.31,11.59l24.07,41.3Zm-27.78-57.35h15.75c4.65,0,8.15-1.13,10.47-3.41s3.5-5.5,3.5-9.66q0-5.94-3.5-9.36c-2.32-2.28-5.82-3.42-10.47-3.42h-15.75Z"/><path class="cls-6" d="M829.23,508.79l-21-28.27A92.47,92.47,0,0,1,790,482.39a85.63,85.63,0,0,1-42.4-10.74,80.46,80.46,0,0,1-30.6-30q-11.32-19.28-11.33-43.33T717,355.09a80.65,80.65,0,0,1,30.6-29.9,89,89,0,0,1,84.79,0,78.88,78.88,0,0,1,30.37,29.9q11.1,19.16,11.1,43.21a86.16,86.16,0,0,1-8.53,38.42,79.24,79.24,0,0,1-23.71,28.85l36,43.22ZM758.34,433q11.79,13,31.65,13,19.62,0,31.42-13.08T833.2,398.3q0-21.72-11.79-34.69t-31.42-13q-19.86,0-31.65,12.85t-11.8,34.8Q746.54,420,758.34,433Z"/><path class="cls-6" d="M1025.21,350.42V480.76H985.27V463a43.9,43.9,0,0,1-16.47,13.9,50.18,50.18,0,0,1-23,5.26q-15,0-26.4-6.66a44.92,44.92,0,0,1-17.75-19.27q-6.3-12.62-6.31-29.67V350.42H935v70.77q0,13.08,6.78,20.32T960,448.75q11.67,0,18.45-7.24t6.78-20.32V350.42Z"/><path class="cls-6" d="M1056.86,330.68a20.06,20.06,0,0,1-6.66-15.3,20.33,20.33,0,0,1,6.66-15.54q6.66-6.18,17.17-6.19,10.28,0,16.93,6.19a20.33,20.33,0,0,1,6.66,15.54,20.06,20.06,0,0,1-6.66,15.3q-6.66,6.19-16.93,6.19Q1063.51,336.87,1056.86,330.68Zm37,19.74V480.76h-39.94V350.42Z"/><path class="cls-6" d="M1162.79,307.9V480.76h-39.94V307.9Z"/><path class="cls-6" d="M1264.4,446.89v33.87h-20.32q-21.74,0-33.87-10.63t-12.15-34.69V383.58h-15.88V350.42h15.88V318.65H1238v31.77h26.16v33.16H1238v52.33c0,3.89.94,6.7,2.81,8.41s5,2.57,9.34,2.57Z"/><path class="cls-6" d="M1376.05,449.92h52.32v30.84H1336.1v-164h40Z"/><path class="cls-6" d="M1472.4,474.45a59.88,59.88,0,0,1-24.06-23.36q-8.76-15.18-8.76-35.5,0-20.1,8.88-35.39a60.23,60.23,0,0,1,24.29-23.48,77.22,77.22,0,0,1,69.14,0,60.3,60.3,0,0,1,24.29,23.48q8.88,15.3,8.88,35.39t-9,35.38a60.83,60.83,0,0,1-24.53,23.48,73.34,73.34,0,0,1-34.69,8.17Q1487.7,482.62,1472.4,474.45Zm54-34.81q8.06-8.4,8.06-24.05t-7.83-24.06a26.55,26.55,0,0,0-38.66-.12q-7.71,8.29-7.71,24.18,0,15.65,7.6,24.05a24.53,24.53,0,0,0,19,8.41A26,26,0,0,0,1526.36,439.64Z"/><path class="cls-6" d="M1596,380.08q7.59-15.18,20.68-23.36a54,54,0,0,1,29.19-8.17q13.79,0,24.18,5.6a41.36,41.36,0,0,1,16,14.72V350.42H1726V480.76H1686V462.3A43.15,43.15,0,0,1,1669.78,477q-10.4,5.61-24.18,5.6a53,53,0,0,1-29-8.29q-13.1-8.28-20.68-23.59t-7.59-35.39Q1588.37,395.27,1596,380.08ZM1677.72,392a28.07,28.07,0,0,0-40.41-.11q-8.3,8.52-8.29,23.47t8.29,23.71a27.81,27.81,0,0,0,40.41.12q8.28-8.64,8.29-23.59T1677.72,392Z"/><path class="cls-6" d="M1754.56,380.08q7.59-15.18,20.68-23.36a54,54,0,0,1,29.2-8.17,51.31,51.31,0,0,1,23.47,5.37,42.83,42.83,0,0,1,16.7,14.48V307.9h40V480.76h-40V462.07a40.72,40.72,0,0,1-16,14.95q-10.39,5.61-24.17,5.6a53.38,53.38,0,0,1-29.2-8.29q-13.1-8.28-20.68-23.59T1747,415.35Q1747,395.27,1754.56,380.08ZM1836.32,392a28.07,28.07,0,0,0-40.41-.11q-8.29,8.52-8.29,23.47t8.29,23.71a27.81,27.81,0,0,0,40.41.12q8.29-8.64,8.29-23.59T1836.32,392Z"/><path class="cls-6" d="M2035.68,425.16h-90.4q.93,12.15,7.83,18.57a23.87,23.87,0,0,0,16.93,6.43q15,0,20.79-12.62h42.52a58.5,58.5,0,0,1-11.8,23.13,59.11,59.11,0,0,1-21.37,16.11,68.59,68.59,0,0,1-28.73,5.84q-19.17,0-34.11-8.17A58.17,58.17,0,0,1,1914,451.09q-8.4-15.18-8.41-35.5t8.3-35.51a57.4,57.4,0,0,1,23.24-23.36q14.94-8.18,34.34-8.17,18.91,0,33.63,7.94a57,57,0,0,1,23,22.66q8.29,14.72,8.29,34.33A101.18,101.18,0,0,1,2035.68,425.16ZM1995.51,403q0-10.28-7-16.35T1971,380.55a25.33,25.33,0,0,0-16.94,5.84q-6.88,5.83-8.52,16.58Z"/><path class="cls-6" d="M2114.87,355.2a45.21,45.21,0,0,1,23.36-6.19v42.28h-11q-15,0-22.43,6.43t-7.47,22.54v60.5h-39.94V350.42h39.94v21.72A52.74,52.74,0,0,1,2114.87,355.2Z"/></svg>