<svg id="Calque_9" data-name="Calque 9" xmlns="http://www.w3.org/2000/svg" viewBox="0 0 2048 2048"><defs><style>.cls-1{fill:#9820ff;}.cls-2{fill:#29a1fd;}.cls-3{fill:#db2ade;}</style></defs><path class="cls-1" d="M1397.27,1257.16a58.88,58.88,0,0,1-58.88-58.88v-9.42a58.88,58.88,0,0,1,58.88-58.88h82.43V918h-82.43a58.88,58.88,0,0,1-58.88-58.88v-9.42a58.88,58.88,0,0,1,58.88-58.88h82.43V649.33a81,81,0,0,0-81-81H1257.16v82.43a58.88,58.88,0,0,1-58.88,58.88h-9.42A58.88,58.88,0,0,1,1130,650.73V568.3H918v82.43a58.88,58.88,0,0,1-58.88,58.88h-9.42a58.88,58.88,0,0,1-58.88-58.88V568.3H649.33a81,81,0,0,0-81,81V767.07H1131A149.91,149.91,0,0,1,1280.93,917V1479.7h117.74a81,81,0,0,0,81-81V1257.16Z"/><path class="cls-2" d="M1662.38,992a58.88,58.88,0,0,1-58.87-58.88v-9.42a58.87,58.87,0,0,1,58.87-58.87h82.43v-212h-82.43A58.88,58.88,0,0,1,1603.51,594v-9.42a58.88,58.88,0,0,1,58.87-58.88h82.43V384.21a81,81,0,0,0-81-81H1522.27v82.43a58.88,58.88,0,0,1-58.88,58.87H1454a58.88,58.88,0,0,1-58.88-58.87V303.19h-212v82.43a58.87,58.87,0,0,1-58.87,58.87h-9.42A58.88,58.88,0,0,1,1056,385.62V303.19H914.44a81,81,0,0,0-81,81V502h562.72A149.9,149.9,0,0,1,1546,651.86v562.72h117.75a81,81,0,0,0,81-81V992Z"/><path class="cls-3" d="M1133.56,833.42H384.21a81,81,0,0,0-81,81v749.35a81,81,0,0,0,81,81h749.35a81,81,0,0,0,81-81V914.44A81,81,0,0,0,1133.56,833.42Zm-716.45,312.5V976.61a29.28,29.28,0,0,1,29.27-29.27H615.69A29.27,29.27,0,0,1,645,976.61v169.31a29.27,29.27,0,0,1-29.27,29.27H446.38A29.28,29.28,0,0,1,417.11,1145.92Zm569.62,455.7a29.27,29.27,0,0,1-29.27,29.27H902.08a29.28,29.28,0,0,1-29.27-29.27v-55.38A29.28,29.28,0,0,0,843.54,1517H674.23A29.28,29.28,0,0,0,645,1546.24v55.38a29.27,29.27,0,0,1-29.27,29.27H560.31A29.27,29.27,0,0,1,531,1601.62V1318.39a29.27,29.27,0,0,1,29.27-29.28h55.38A29.26,29.26,0,0,0,645,1259.84v-55.38a29.28,29.28,0,0,1,29.27-29.27H843.54a29.28,29.28,0,0,1,29.27,29.27v55.38a29.27,29.27,0,0,0,29.27,29.27h55.38a29.27,29.27,0,0,1,29.27,29.28Zm113.93-455.7a29.28,29.28,0,0,1-29.27,29.27H902.08a29.28,29.28,0,0,1-29.27-29.27V976.61a29.28,29.28,0,0,1,29.27-29.27h169.31a29.28,29.28,0,0,1,29.27,29.27Z"/></svg>