<?xml version="1.0" encoding="UTF-8" standalone="no"?><!DOCTYPE svg PUBLIC "-//W3C//DTD SVG 1.1//EN" "http://www.w3.org/Graphics/SVG/1.1/DTD/svg11.dtd"><svg width="100%" height="100%" viewBox="0 0 2855 2855" version="1.1" xmlns="http://www.w3.org/2000/svg" xmlns:xlink="http://www.w3.org/1999/xlink" xml:space="preserve" xmlns:serif="http://www.serif.com/" style="fill-rule:evenodd;clip-rule:evenodd;stroke-linejoin:round;stroke-miterlimit:2;"><g transform="matrix(3.125,0,0,3.125,0,0)"><g id="Logo"><clipPath id="_clip1"><path d="M913.529,228.382c0,-126.047 -102.335,-228.382 -228.382,-228.382l-456.765,0c-126.047,0 -228.382,102.335 -228.382,228.382l0,456.765c0,126.047 102.335,228.382 228.382,228.382l456.765,0c126.047,0 228.382,-102.335 228.382,-228.382l0,-456.765Z"/></clipPath><g clip-path="url(#_clip1)"><g id="Trans-rights-" serif:id="Trans rights!" transform="matrix(2.22581,-2.22581,1.68027,1.68027,-594.168,168.968)"><g transform="matrix(0.74739,-4.81294e-33,-3.33903e-33,0.944867,52.2516,523.193)"><rect x="0" y="0" width="777" height="160" style="fill:#74d7ee;"/></g><g transform="matrix(0.747428,0,-1.11022e-16,1.03702,-30.7396,440.232)"><rect x="0" y="0" width="777" height="80" style="fill:#ffafc8;"/></g><g transform="matrix(0.74739,0,0,0.518511,-113.677,357.265)"><rect x="0" y="0" width="777" height="160" style="fill:#fff;"/></g><g transform="matrix(0.747428,0,0,1.03702,-196.668,274.303)"><rect x="0" y="0" width="777" height="80" style="fill:#ffafc8;"/></g><g transform="matrix(0.747489,-5.87419e-33,-1.35825e-33,0.34627,-279.487,108.284)"><rect x="0" y="0" width="777" height="480" style="fill:#74d7ee;"/></g></g><path id="Be-gay-do-crime" serif:id="Be gay do crime" d="M772.654,672.896l-99.759,99.759c-3.581,3.581 -9.387,3.581 -12.968,0l-99.759,-99.759c-3.581,-3.581 -3.581,-9.388 0,-12.969l99.759,-99.759c3.581,-3.581 9.387,-3.581 12.968,0l99.759,99.759c3.582,3.581 3.582,9.388 0,12.969Zm-239.672,-110.037l0,141.079c0,5.061 -4.11,9.171 -9.17,9.171l-141.08,-0c-5.07,-0 -9.17,-4.11 -9.17,-9.171l0,-30.17l17.59,-0c5.72,-0 10.36,-4.639 10.36,-10.349c0,-5.72 -4.64,-10.361 -10.36,-10.361l-17.59,-0l0,-39.33l17.59,-0c5.72,-0 10.36,-4.64 10.36,-10.349c0,-5.72 -4.64,-10.361 -10.36,-10.361l-17.59,0l0,-30.159c0,-5.07 4.1,-9.171 9.17,-9.171l30.16,0l0,17.591c0,5.72 4.64,10.359 10.36,10.359c5.71,0 10.35,-4.639 10.35,-10.359l0,-17.591l39.34,0l0,17.591c0,5.72 4.63,10.359 10.35,10.359c5.71,0 10.35,-4.639 10.35,-10.359l0,-17.591l30.17,0c5.06,0 9.17,4.101 9.17,9.171Zm-208.079,40.52c-0,5.71 4.64,10.35 10.35,10.35l17.6,-0l-0,39.33l-17.6,-0c-5.71,-0 -10.35,4.639 -10.35,10.36c-0,5.71 4.64,10.35 10.35,10.35l17.6,-0l-0,30.169c-0,5.061 -4.1,9.17 -9.17,9.17l-141.08,0c-5.06,0 -9.17,-4.109 -9.17,-9.169l-0,-141.08c-0,-5.07 4.11,-9.17 9.17,-9.17l30.17,-0l-0,17.59c-0,5.72 4.63,10.36 10.35,10.36c5.72,-0 10.35,-4.64 10.35,-10.361l-0,-17.589l39.34,-0l-0,17.59c-0,5.72 4.64,10.36 10.35,10.36c5.72,-0 10.35,-4.64 10.35,-10.361l-0,-17.589l30.17,-0c5.07,-0 9.17,4.1 9.17,9.17l-0,30.16l-17.6,-0c-5.71,-0 -10.35,4.64 -10.35,10.36Zm388.199,-220.651l0,141.08c0,5.07 -4.1,9.17 -9.17,9.17l-141.08,0c-5.06,0 -9.17,-4.1 -9.17,-9.17l0,-30.17l17.6,0c5.72,0 10.35,-4.63 10.35,-10.349c0,-5.72 -4.63,-10.351 -10.35,-10.351l-17.6,0l0,-39.34l17.6,0c5.72,0 10.35,-4.63 10.35,-10.349c0,-5.72 -4.63,-10.351 -10.35,-10.351l-17.6,0l0,-30.17c0,-5.06 4.11,-9.17 9.17,-9.17l30.17,0l0,17.601c0,5.719 4.63,10.349 10.35,10.349c5.72,0 10.35,-4.63 10.35,-10.349l0,-17.601l39.34,0l0,17.601c0,5.719 4.64,10.349 10.35,10.349c5.72,0 10.35,-4.63 10.35,-10.349l0,-17.601l30.17,0c5.07,0 9.17,4.11 9.17,9.17Zm-360.25,0l0,141.08c0,5.07 -4.1,9.17 -9.17,9.17l-30.17,0l0,-17.6c0,-5.71 -4.63,-10.349 -10.35,-10.349c-5.71,0 -10.35,4.639 -10.35,10.349l0,17.6l-39.34,0l0,-17.6c0,-5.71 -4.63,-10.349 -10.35,-10.349c-5.72,0 -10.35,4.639 -10.35,10.349l0,17.6l-30.17,0c-5.06,0 -9.17,-4.1 -9.17,-9.17l0,-141.08c0,-5.06 4.11,-9.17 9.17,-9.17l30.17,0l0,17.601c0,5.719 4.63,10.349 10.35,10.349c5.72,0 10.35,-4.63 10.35,-10.349l0,-17.601l39.34,0l0,17.601c0,5.719 4.64,10.349 10.35,10.349c5.72,0 10.35,-4.63 10.35,-10.349l0,-17.601l30.17,0c5.07,0 9.17,4.11 9.17,9.17Zm152.181,40.521c-0,5.72 4.63,10.35 10.35,10.35l17.6,-0l-0,39.339l-17.6,-0c-5.72,-0 -10.35,4.631 -10.35,10.351c-0,5.72 4.63,10.35 10.35,10.35l17.6,-0l-0,30.17c-0,5.07 -4.11,9.169 -9.17,9.169l-30.17,-0l-0,-17.599c-0,-5.71 -4.64,-10.35 -10.35,-10.35c-5.72,-0 -10.35,4.64 -10.35,10.35l-0,17.599l-39.34,-0l-0,-17.599c-0,-5.71 -4.64,-10.35 -10.35,-10.35c-5.72,-0 -10.36,4.64 -10.36,10.35l-0,17.599l-30.16,-0c-5.07,-0 -9.17,-4.099 -9.17,-9.169l-0,-141.081c-0,-5.059 4.1,-9.169 9.17,-9.169l141.08,-0c5.06,-0 9.17,4.11 9.17,9.169l-0,30.17l-17.6,-0c-5.72,-0 -10.35,4.631 -10.35,10.351Zm208.069,-220.64l0,141.079c0,5.061 -4.1,9.171 -9.17,9.171l-30.17,0l0,-17.601c0,-5.719 -4.63,-10.349 -10.35,-10.349c-5.71,0 -10.35,4.63 -10.35,10.349l0,17.601l-39.34,0l0,-17.601c0,-5.719 -4.63,-10.349 -10.35,-10.349c-5.72,0 -10.35,4.63 -10.35,10.349l0,17.601l-30.17,0c-5.06,0 -9.17,-4.11 -9.17,-9.171l0,-30.17l17.6,0c5.72,0 10.35,-4.639 10.35,-10.349c0,-5.72 -4.63,-10.35 -10.35,-10.35l-17.6,0l0,-39.341l17.6,0c5.72,0 10.35,-4.64 10.35,-10.349c0,-5.72 -4.63,-10.361 -10.35,-10.361l-17.6,0l0,-30.159c0,-5.07 4.11,-9.171 9.17,-9.171l141.08,0c5.07,0 9.17,4.101 9.17,9.171Zm-388.199,40.52c-0,5.71 4.64,10.35 10.35,10.35l17.6,-0l-0,39.34l-17.6,-0c-5.71,-0 -10.35,4.63 -10.35,10.35c-0,5.71 4.64,10.35 10.35,10.35l17.6,-0l-0,30.17c-0,5.06 -4.1,9.17 -9.17,9.17l-30.17,-0l-0,-17.6c-0,-5.72 -4.63,-10.35 -10.35,-10.35c-5.71,-0 -10.35,4.63 -10.35,10.35l-0,17.6l-39.34,-0l-0,-17.6c-0,-5.72 -4.63,-10.35 -10.35,-10.35c-5.72,-0 -10.35,4.63 -10.35,10.35l-0,17.6l-30.17,-0c-5.06,-0 -9.17,-4.11 -9.17,-9.17l-0,-141.08c-0,-5.07 4.11,-9.17 9.17,-9.17l141.08,-0c5.07,-0 9.17,4.1 9.17,9.17l-0,30.16l-17.6,-0c-5.71,-0 -10.35,4.64 -10.35,10.36Zm180.13,-0c-0,5.71 4.63,10.35 10.35,10.35l17.6,-0l-0,39.34l-17.6,-0c-5.72,-0 -10.35,4.63 -10.35,10.35c-0,5.71 4.63,10.35 10.35,10.35l17.6,-0l-0,30.17c-0,5.06 -4.11,9.17 -9.17,9.17l-141.08,-0c-5.07,-0 -9.17,-4.111 -9.17,-9.171l-0,-30.169l17.59,-0c5.72,-0 10.36,-4.641 10.36,-10.351c-0,-5.719 -4.64,-10.349 -10.36,-10.349l-17.59,-0l-0,-39.34l17.59,-0c5.72,-0 10.36,-4.641 10.36,-10.35c-0,-5.721 -4.64,-10.361 -10.36,-10.361l-17.59,0l-0,-30.16c-0,-5.07 4.1,-9.17 9.17,-9.17l141.08,0c5.06,0 9.17,4.1 9.17,9.17l-0,30.16l-17.6,0c-5.72,0 -10.35,4.64 -10.35,10.361Z" style="fill:#fff;fill-opacity:0;fill-rule:nonzero;"/><clipPath id="_clip2"><path id="Be-gay-do-crime1" serif:id="Be gay do crime" d="M772.654,672.896l-99.759,99.759c-3.581,3.581 -9.387,3.581 -12.968,0l-99.759,-99.759c-3.581,-3.581 -3.581,-9.388 0,-12.969l99.759,-99.759c3.581,-3.581 9.387,-3.581 12.968,0l99.759,99.759c3.582,3.581 3.582,9.388 0,12.969Zm-239.672,-110.037l0,141.079c0,5.061 -4.11,9.171 -9.17,9.171l-141.08,-0c-5.07,-0 -9.17,-4.11 -9.17,-9.171l0,-30.17l17.59,-0c5.72,-0 10.36,-4.639 10.36,-10.349c0,-5.72 -4.64,-10.361 -10.36,-10.361l-17.59,-0l0,-39.33l17.59,-0c5.72,-0 10.36,-4.64 10.36,-10.349c0,-5.72 -4.64,-10.361 -10.36,-10.361l-17.59,0l0,-30.159c0,-5.07 4.1,-9.171 9.17,-9.171l30.16,0l0,17.591c0,5.72 4.64,10.359 10.36,10.359c5.71,0 10.35,-4.639 10.35,-10.359l0,-17.591l39.34,0l0,17.591c0,5.72 4.63,10.359 10.35,10.359c5.71,0 10.35,-4.639 10.35,-10.359l0,-17.591l30.17,0c5.06,0 9.17,4.101 9.17,9.171Zm-208.079,40.52c-0,5.71 4.64,10.35 10.35,10.35l17.6,-0l-0,39.33l-17.6,-0c-5.71,-0 -10.35,4.639 -10.35,10.36c-0,5.71 4.64,10.35 10.35,10.35l17.6,-0l-0,30.169c-0,5.061 -4.1,9.17 -9.17,9.17l-141.08,0c-5.06,0 -9.17,-4.109 -9.17,-9.169l-0,-141.08c-0,-5.07 4.11,-9.17 9.17,-9.17l30.17,-0l-0,17.59c-0,5.72 4.63,10.36 10.35,10.36c5.72,-0 10.35,-4.64 10.35,-10.361l-0,-17.589l39.34,-0l-0,17.59c-0,5.72 4.64,10.36 10.35,10.36c5.72,-0 10.35,-4.64 10.35,-10.361l-0,-17.589l30.17,-0c5.07,-0 9.17,4.1 9.17,9.17l-0,30.16l-17.6,-0c-5.71,-0 -10.35,4.64 -10.35,10.36Zm388.199,-220.651l0,141.08c0,5.07 -4.1,9.17 -9.17,9.17l-141.08,0c-5.06,0 -9.17,-4.1 -9.17,-9.17l0,-30.17l17.6,0c5.72,0 10.35,-4.63 10.35,-10.349c0,-5.72 -4.63,-10.351 -10.35,-10.351l-17.6,0l0,-39.34l17.6,0c5.72,0 10.35,-4.63 10.35,-10.349c0,-5.72 -4.63,-10.351 -10.35,-10.351l-17.6,0l0,-30.17c0,-5.06 4.11,-9.17 9.17,-9.17l30.17,0l0,17.601c0,5.719 4.63,10.349 10.35,10.349c5.72,0 10.35,-4.63 10.35,-10.349l0,-17.601l39.34,0l0,17.601c0,5.719 4.64,10.349 10.35,10.349c5.72,0 10.35,-4.63 10.35,-10.349l0,-17.601l30.17,0c5.07,0 9.17,4.11 9.17,9.17Zm-360.25,0l0,141.08c0,5.07 -4.1,9.17 -9.17,9.17l-30.17,0l0,-17.6c0,-5.71 -4.63,-10.349 -10.35,-10.349c-5.71,0 -10.35,4.639 -10.35,10.349l0,17.6l-39.34,0l0,-17.6c0,-5.71 -4.63,-10.349 -10.35,-10.349c-5.72,0 -10.35,4.639 -10.35,10.349l0,17.6l-30.17,0c-5.06,0 -9.17,-4.1 -9.17,-9.17l0,-141.08c0,-5.06 4.11,-9.17 9.17,-9.17l30.17,0l0,17.601c0,5.719 4.63,10.349 10.35,10.349c5.72,0 10.35,-4.63 10.35,-10.349l0,-17.601l39.34,0l0,17.601c0,5.719 4.64,10.349 10.35,10.349c5.72,0 10.35,-4.63 10.35,-10.349l0,-17.601l30.17,0c5.07,0 9.17,4.11 9.17,9.17Zm152.181,40.521c-0,5.72 4.63,10.35 10.35,10.35l17.6,-0l-0,39.339l-17.6,-0c-5.72,-0 -10.35,4.631 -10.35,10.351c-0,5.72 4.63,10.35 10.35,10.35l17.6,-0l-0,30.17c-0,5.07 -4.11,9.169 -9.17,9.169l-30.17,-0l-0,-17.599c-0,-5.71 -4.64,-10.35 -10.35,-10.35c-5.72,-0 -10.35,4.64 -10.35,10.35l-0,17.599l-39.34,-0l-0,-17.599c-0,-5.71 -4.64,-10.35 -10.35,-10.35c-5.72,-0 -10.36,4.64 -10.36,10.35l-0,17.599l-30.16,-0c-5.07,-0 -9.17,-4.099 -9.17,-9.169l-0,-141.081c-0,-5.059 4.1,-9.169 9.17,-9.169l141.08,-0c5.06,-0 9.17,4.11 9.17,9.169l-0,30.17l-17.6,-0c-5.72,-0 -10.35,4.631 -10.35,10.351Zm208.069,-220.64l0,141.079c0,5.061 -4.1,9.171 -9.17,9.171l-30.17,0l0,-17.601c0,-5.719 -4.63,-10.349 -10.35,-10.349c-5.71,0 -10.35,4.63 -10.35,10.349l0,17.601l-39.34,0l0,-17.601c0,-5.719 -4.63,-10.349 -10.35,-10.349c-5.72,0 -10.35,4.63 -10.35,10.349l0,17.601l-30.17,0c-5.06,0 -9.17,-4.11 -9.17,-9.171l0,-30.17l17.6,0c5.72,0 10.35,-4.639 10.35,-10.349c0,-5.72 -4.63,-10.35 -10.35,-10.35l-17.6,0l0,-39.341l17.6,0c5.72,0 10.35,-4.64 10.35,-10.349c0,-5.72 -4.63,-10.361 -10.35,-10.361l-17.6,0l0,-30.159c0,-5.07 4.11,-9.171 9.17,-9.171l141.08,0c5.07,0 9.17,4.101 9.17,9.171Zm-388.199,40.52c-0,5.71 4.64,10.35 10.35,10.35l17.6,-0l-0,39.34l-17.6,-0c-5.71,-0 -10.35,4.63 -10.35,10.35c-0,5.71 4.64,10.35 10.35,10.35l17.6,-0l-0,30.17c-0,5.06 -4.1,9.17 -9.17,9.17l-30.17,-0l-0,-17.6c-0,-5.72 -4.63,-10.35 -10.35,-10.35c-5.71,-0 -10.35,4.63 -10.35,10.35l-0,17.6l-39.34,-0l-0,-17.6c-0,-5.72 -4.63,-10.35 -10.35,-10.35c-5.72,-0 -10.35,4.63 -10.35,10.35l-0,17.6l-30.17,-0c-5.06,-0 -9.17,-4.11 -9.17,-9.17l-0,-141.08c-0,-5.07 4.11,-9.17 9.17,-9.17l141.08,-0c5.07,-0 9.17,4.1 9.17,9.17l-0,30.16l-17.6,-0c-5.71,-0 -10.35,4.64 -10.35,10.36Zm180.13,-0c-0,5.71 4.63,10.35 10.35,10.35l17.6,-0l-0,39.34l-17.6,-0c-5.72,-0 -10.35,4.63 -10.35,10.35c-0,5.71 4.63,10.35 10.35,10.35l17.6,-0l-0,30.17c-0,5.06 -4.11,9.17 -9.17,9.17l-141.08,-0c-5.07,-0 -9.17,-4.111 -9.17,-9.171l-0,-30.169l17.59,-0c5.72,-0 10.36,-4.641 10.36,-10.351c-0,-5.719 -4.64,-10.349 -10.36,-10.349l-17.59,-0l-0,-39.34l17.59,-0c5.72,-0 10.36,-4.641 10.36,-10.35c-0,-5.721 -4.64,-10.361 -10.36,-10.361l-17.59,0l-0,-30.16c-0,-5.07 4.1,-9.17 9.17,-9.17l141.08,0c5.06,0 9.17,4.1 9.17,9.17l-0,30.16l-17.6,0c-5.72,0 -10.35,4.64 -10.35,10.361Z" clip-rule="nonzero"/></clipPath><g clip-path="url(#_clip2)"><g transform="matrix(1.5729,-1.1871e-32,1.18532e-32,1.57526,86.0984,-171.518)"><g transform="matrix(0.528485,-0.528485,0.183321,0.183321,176.615,574.822)"><rect x="0" y="0" width="777" height="320" style="fill:#ff8c00;"/></g><g transform="matrix(0.528485,-0.528485,0.244428,0.244428,59.3106,574.801)"><rect x="0" y="0" width="777" height="240" style="fill:#ffed00;"/></g><g transform="matrix(0.528485,-0.528485,0.366642,0.366642,-58.0149,574.801)"><rect x="0" y="0" width="777" height="160" style="fill:#008026;"/></g><g transform="matrix(0.528511,-0.528511,0.733285,0.733285,-175.361,574.822)"><rect x="0" y="0" width="777" height="80" style="fill:#004dff;"/></g><g transform="matrix(0.528555,-0.528555,0.122214,0.122214,-292.452,574.855)"><rect x="0" y="0" width="777" height="480" style="fill:#750787;"/></g><g transform="matrix(0.449556,0.448882,-0.449556,0.448882,708.011,121.704)"><g transform="matrix(0.206098,-2.18612e-17,-0.000597799,0.398554,0.23912,754.107)"><rect x="0" y="0" width="777" height="400"/></g><g transform="matrix(0.137065,-2.18612e-17,-0.000597799,0.398554,0.23912,754.107)"><rect x="0" y="0" width="777" height="400" style="fill:#613915;"/></g><g transform="matrix(0.0683784,-2.18612e-17,-0.000597799,0.398554,0.23912,754.107)"><rect x="0" y="0" width="777" height="400" style="fill:#e40303;"/></g></g></g></g><path id="Be-gay-do-crime2" serif:id="Be gay do crime" d="M772.654,672.896l-99.759,99.759c-3.581,3.581 -9.387,3.581 -12.968,0l-99.759,-99.759c-3.581,-3.581 -3.581,-9.388 0,-12.969l99.759,-99.759c3.581,-3.581 9.387,-3.581 12.968,0l99.759,99.759c3.582,3.581 3.582,9.388 0,12.969Zm-239.672,-110.037l0,141.079c0,5.061 -4.11,9.171 -9.17,9.171l-141.08,-0c-5.07,-0 -9.17,-4.11 -9.17,-9.171l0,-30.17l17.59,-0c5.72,-0 10.36,-4.639 10.36,-10.349c0,-5.72 -4.64,-10.361 -10.36,-10.361l-17.59,-0l0,-39.33l17.59,-0c5.72,-0 10.36,-4.64 10.36,-10.349c0,-5.72 -4.64,-10.361 -10.36,-10.361l-17.59,0l0,-30.159c0,-5.07 4.1,-9.171 9.17,-9.171l30.16,0l0,17.591c0,5.72 4.64,10.359 10.36,10.359c5.71,0 10.35,-4.639 10.35,-10.359l0,-17.591l39.34,0l0,17.591c0,5.72 4.63,10.359 10.35,10.359c5.71,0 10.35,-4.639 10.35,-10.359l0,-17.591l30.17,0c5.06,0 9.17,4.101 9.17,9.171Zm-208.079,40.52c-0,5.71 4.64,10.35 10.35,10.35l17.6,-0l-0,39.33l-17.6,-0c-5.71,-0 -10.35,4.639 -10.35,10.36c-0,5.71 4.64,10.35 10.35,10.35l17.6,-0l-0,30.169c-0,5.061 -4.1,9.17 -9.17,9.17l-141.08,0c-5.06,0 -9.17,-4.109 -9.17,-9.169l-0,-141.08c-0,-5.07 4.11,-9.17 9.17,-9.17l30.17,-0l-0,17.59c-0,5.72 4.63,10.36 10.35,10.36c5.72,-0 10.35,-4.64 10.35,-10.361l-0,-17.589l39.34,-0l-0,17.59c-0,5.72 4.64,10.36 10.35,10.36c5.72,-0 10.35,-4.64 10.35,-10.361l-0,-17.589l30.17,-0c5.07,-0 9.17,4.1 9.17,9.17l-0,30.16l-17.6,-0c-5.71,-0 -10.35,4.64 -10.35,10.36Zm388.199,-220.651l0,141.08c0,5.07 -4.1,9.17 -9.17,9.17l-141.08,0c-5.06,0 -9.17,-4.1 -9.17,-9.17l0,-30.17l17.6,0c5.72,0 10.35,-4.63 10.35,-10.349c0,-5.72 -4.63,-10.351 -10.35,-10.351l-17.6,0l0,-39.34l17.6,0c5.72,0 10.35,-4.63 10.35,-10.349c0,-5.72 -4.63,-10.351 -10.35,-10.351l-17.6,0l0,-30.17c0,-5.06 4.11,-9.17 9.17,-9.17l30.17,0l0,17.601c0,5.719 4.63,10.349 10.35,10.349c5.72,0 10.35,-4.63 10.35,-10.349l0,-17.601l39.34,0l0,17.601c0,5.719 4.64,10.349 10.35,10.349c5.72,0 10.35,-4.63 10.35,-10.349l0,-17.601l30.17,0c5.07,0 9.17,4.11 9.17,9.17Zm-360.25,0l0,141.08c0,5.07 -4.1,9.17 -9.17,9.17l-30.17,0l0,-17.6c0,-5.71 -4.63,-10.349 -10.35,-10.349c-5.71,0 -10.35,4.639 -10.35,10.349l0,17.6l-39.34,0l0,-17.6c0,-5.71 -4.63,-10.349 -10.35,-10.349c-5.72,0 -10.35,4.639 -10.35,10.349l0,17.6l-30.17,0c-5.06,0 -9.17,-4.1 -9.17,-9.17l0,-141.08c0,-5.06 4.11,-9.17 9.17,-9.17l30.17,0l0,17.601c0,5.719 4.63,10.349 10.35,10.349c5.72,0 10.35,-4.63 10.35,-10.349l0,-17.601l39.34,0l0,17.601c0,5.719 4.64,10.349 10.35,10.349c5.72,0 10.35,-4.63 10.35,-10.349l0,-17.601l30.17,0c5.07,0 9.17,4.11 9.17,9.17Zm152.181,40.521c-0,5.72 4.63,10.35 10.35,10.35l17.6,-0l-0,39.339l-17.6,-0c-5.72,-0 -10.35,4.631 -10.35,10.351c-0,5.72 4.63,10.35 10.35,10.35l17.6,-0l-0,30.17c-0,5.07 -4.11,9.169 -9.17,9.169l-30.17,-0l-0,-17.599c-0,-5.71 -4.64,-10.35 -10.35,-10.35c-5.72,-0 -10.35,4.64 -10.35,10.35l-0,17.599l-39.34,-0l-0,-17.599c-0,-5.71 -4.64,-10.35 -10.35,-10.35c-5.72,-0 -10.36,4.64 -10.36,10.35l-0,17.599l-30.16,-0c-5.07,-0 -9.17,-4.099 -9.17,-9.169l-0,-141.081c-0,-5.059 4.1,-9.169 9.17,-9.169l141.08,-0c5.06,-0 9.17,4.11 9.17,9.169l-0,30.17l-17.6,-0c-5.72,-0 -10.35,4.631 -10.35,10.351Zm208.069,-220.64l0,141.079c0,5.061 -4.1,9.171 -9.17,9.171l-30.17,0l0,-17.601c0,-5.719 -4.63,-10.349 -10.35,-10.349c-5.71,0 -10.35,4.63 -10.35,10.349l0,17.601l-39.34,0l0,-17.601c0,-5.719 -4.63,-10.349 -10.35,-10.349c-5.72,0 -10.35,4.63 -10.35,10.349l0,17.601l-30.17,0c-5.06,0 -9.17,-4.11 -9.17,-9.171l0,-30.17l17.6,0c5.72,0 10.35,-4.639 10.35,-10.349c0,-5.72 -4.63,-10.35 -10.35,-10.35l-17.6,0l0,-39.341l17.6,0c5.72,0 10.35,-4.64 10.35,-10.349c0,-5.72 -4.63,-10.361 -10.35,-10.361l-17.6,0l0,-30.159c0,-5.07 4.11,-9.171 9.17,-9.171l141.08,0c5.07,0 9.17,4.101 9.17,9.171Zm-388.199,40.52c-0,5.71 4.64,10.35 10.35,10.35l17.6,-0l-0,39.34l-17.6,-0c-5.71,-0 -10.35,4.63 -10.35,10.35c-0,5.71 4.64,10.35 10.35,10.35l17.6,-0l-0,30.17c-0,5.06 -4.1,9.17 -9.17,9.17l-30.17,-0l-0,-17.6c-0,-5.72 -4.63,-10.35 -10.35,-10.35c-5.71,-0 -10.35,4.63 -10.35,10.35l-0,17.6l-39.34,-0l-0,-17.6c-0,-5.72 -4.63,-10.35 -10.35,-10.35c-5.72,-0 -10.35,4.63 -10.35,10.35l-0,17.6l-30.17,-0c-5.06,-0 -9.17,-4.11 -9.17,-9.17l-0,-141.08c-0,-5.07 4.11,-9.17 9.17,-9.17l141.08,-0c5.07,-0 9.17,4.1 9.17,9.17l-0,30.16l-17.6,-0c-5.71,-0 -10.35,4.64 -10.35,10.36Zm180.13,-0c-0,5.71 4.63,10.35 10.35,10.35l17.6,-0l-0,39.34l-17.6,-0c-5.72,-0 -10.35,4.63 -10.35,10.35c-0,5.71 4.63,10.35 10.35,10.35l17.6,-0l-0,30.17c-0,5.06 -4.11,9.17 -9.17,9.17l-141.08,-0c-5.07,-0 -9.17,-4.111 -9.17,-9.171l-0,-30.169l17.59,-0c5.72,-0 10.36,-4.641 10.36,-10.351c-0,-5.719 -4.64,-10.349 -10.36,-10.349l-17.59,-0l-0,-39.34l17.59,-0c5.72,-0 10.36,-4.641 10.36,-10.35c-0,-5.721 -4.64,-10.361 -10.36,-10.361l-17.59,0l-0,-30.16c-0,-5.07 4.1,-9.17 9.17,-9.17l141.08,0c5.06,0 9.17,4.1 9.17,9.17l-0,30.16l-17.6,0c-5.72,0 -10.35,4.64 -10.35,10.361Z" style="fill:none;fill-rule:nonzero;stroke:#1b112b;stroke-width:10.67px;"/></g></g></g></svg>