<svg xmlns="http://www.w3.org/2000/svg" viewBox="0 0 2048 2048"><defs><style>.cls-1{fill:#19122c;}.cls-2{fill:#db2ade;}.cls-3{fill:#9820ff;}.cls-4{fill:#dbc799;}.cls-5{fill:#9e8f6d;}</style></defs><g id="Flat_3"><g id="flat_3_iteration_1"><rect class="cls-1" width="2048" height="2048"/><path class="cls-2" d="M1685.68,721.45c13.65,144.49-39.66,249.52-120.35,338.4-6.45,7.11-18.45,8.89-26.54,4.12l-39.22-23.11c-8.1-4.78-9.24-14.3-2.79-21.42q6.51-7.17,12.78-14.49c11.36-13.23,8.47-31.66-6-40.73a35.69,35.69,0,0,0-25.65-4.42,39.1,39.1,0,0,0-22.29,12.74q-6.43,7.51-13.13,14.89c-6.45,7.11-18.44,8.89-26.54,4.12l-59.83-35.27c-8.1-4.78-9.25-14.3-2.8-21.41q6.53-7.17,12.78-14.49c11.36-13.22,8.48-31.64-6-40.72a35.68,35.68,0,0,0-25.67-4.43A39.06,39.06,0,0,0,1312.1,888q-6.42,7.53-13.12,14.89c-6.45,7.12-18.45,8.89-26.54,4.12L1235,884.9c-8.11-4.78-9.25-14.3-2.8-21.41q15.27-16.82,29.16-34.46c5.86-7.46,16.93-9.79,25-5l15.46,9.11c14.78,8.71,35.38,5.15,45.05-9.09a29.57,29.57,0,0,0,4.08-24.42,32.1,32.1,0,0,0-14.69-19.38l-15.9-9.37a18.28,18.28,0,0,1-6.79-23.77,394,394,0,0,0,25.57-65.53c2.71-9.32,11.09-13.23,19.19-8.45q7.74,4.54,15.46,9.11c14.76,8.7,30.69,2.38,33.86-15.68,1.68-9.5-.42-20.25-4.91-29.73-4.35-9.18-10.92-17.15-18.41-21.57l-15.9-9.37c-8.11-4.78-14.06-17.14-13.86-27.93a466.16,466.16,0,0,0-2-52.86c-1.09-11.56,4.11-17.34,12.22-12.56l303.79,179.06C1676.65,696.36,1684.59,709.89,1685.68,721.45Z"/><path class="cls-3" d="M1261.77,578.64a53.26,53.26,0,0,0,3.56,28.92c3.65,8.77,9.55,16.35,17.06,20.77l17.67,10.42c8.09,4.77,12.85,16.42,10.14,25.74A394.06,394.06,0,0,1,1284.63,730a15.88,15.88,0,0,1-22.55,6.47l-17.23-10.15c-14.81-8.73-33.6-4.1-43.24,10.15a31.15,31.15,0,0,0-5,23.89,28.66,28.66,0,0,0,13.79,18.84l17.67,10.42c8.1,4.77,10.16,14.84,4.3,22.3q-13.85,17.67-29.15,34.47c-6.46,7.11-18.45,8.89-26.55,4.12L1136.8,827c-8.11-4.78-9.25-14.3-2.8-21.41q6.51-7.18,12.78-14.49c11.37-13.24,8.47-31.69-6-40.75a35.67,35.67,0,0,0-25.63-4.4,39.07,39.07,0,0,0-22.29,12.73q-6.43,7.53-13.12,14.89c-6.45,7.12-18.45,8.89-26.55,4.12l-59.83-35.27c-8.1-4.77-9.24-14.3-2.79-21.41q6.51-7.17,12.78-14.49c11.35-13.22,8.48-31.64-6-40.72a35.72,35.72,0,0,0-25.67-4.43,39.1,39.1,0,0,0-22.29,12.74Q942.9,681.65,936.2,689c-6.45,7.11-18.44,8.89-26.54,4.12L872.9,671.47c-8.11-4.78-9.25-14.3-2.79-21.41,80.69-88.89,134-193.91,120.34-338.41-1.08-11.55,4.11-17.34,12.22-12.56l303.79,179.07c8.1,4.77,16,18.3,17.12,29.85a464,464,0,0,1,2.05,52.86c-.2,10.8-7.38,15.41-15.48,10.64l-17.22-10.15C1278.1,552.62,1264.9,560.54,1261.77,578.64Z"/><path class="cls-2" d="M1020.77,924.48c-7.68,6-11.45,13.25-11.32,20.16.14,6.7,4,13.05,11.47,17.47l17.67,10.42c8.1,4.77,8.27,13.72.32,20-19.55,15.35-39.24,30.61-58.79,46-7.94,6.24-20.91,7.44-29,2.66L933.88,1031c-14.79-8.72-38.62-7.06-53.24,4.26-7.69,6-11.35,13.31-11.1,20.29.26,6.76,4.19,13.18,11.69,17.6l17.67,10.42c8.11,4.77,8.47,13.84.94,20.32Q882,1119.16,865,1135c-7.18,6.68-19.42,8.32-27.52,3.54L797.58,1115c-8.1-4.77-9-14.14-1.81-20.83q7.25-6.73,14.65-13.39c13.41-12,13.41-28.77-1-37.79-7.59-4.74-17.53-6.46-27.3-5.39-9.47,1-18.77,4.71-25.57,10.81q-7.6,6.82-15,13.75c-7.19,6.68-19.43,8.31-27.53,3.54L654.1,1030.4c-8.1-4.78-9-14.15-1.81-20.83q7.25-6.75,14.65-13.39c13.39-12,13.41-28.73-1-37.76-7.59-4.77-17.57-6.5-27.36-5.43-9.47,1-18.76,4.71-25.56,10.81q-7.62,6.83-15.06,13.75c-7.18,6.68-19.42,8.32-27.52,3.54l-36.76-21.67c-8.1-4.77-9-14.15-1.81-20.83,89.74-83.55,199.28-155.43,289-239,7.19-6.68,19.43-8.31,27.53-3.54l36.76,21.67c8.1,4.78,9,14.15,1.81,20.83q-7.25,6.75-14.65,13.39c-13.39,12-13.42,28.73,1,37.76,7.59,4.77,17.56,6.5,27.35,5.43,9.47-1,18.77-4.71,25.57-10.81q7.61-6.83,15-13.75c7.19-6.68,19.42-8.32,27.53-3.54l59.83,35.27c8.1,4.77,9,14.15,1.81,20.83q-7.24,6.75-14.65,13.39c-13.41,12-13.41,28.77,1,37.79,7.6,4.74,17.54,6.46,27.31,5.39,9.47-1,18.76-4.71,25.56-10.8q7.62-6.82,15.06-13.75c7.18-6.69,19.42-8.32,27.52-3.54l39.9,23.51c8.1,4.77,9,14.15,1.81,20.83q-17,15.82-34.84,31.12c-7.53,6.48-20.3,7.8-28.4,3L1073.56,920C1058.76,911.23,1035.39,913.16,1020.77,924.48Z"/><path class="cls-4" d="M383.51,1349.52c-5.39-3.18-12.33-14.22-13.22-23.72-6.37-67.43,1.57-128.4,24.28-186.39,19.61-50.07,50.36-97.79,94-145.88a14.19,14.19,0,0,1,10.3-4.17,12.34,12.34,0,0,1,6.26,1.56l36.76,21.67a5.66,5.66,0,0,1,3,3.84,6.62,6.62,0,0,1-2,5.3c-4.37,4.82-8.68,9.71-12.82,14.54a35.69,35.69,0,0,0-8.56,28.6,35.09,35.09,0,0,0,16.45,24.33l.78.47a42.65,42.65,0,0,0,21.7,5.77A47.41,47.41,0,0,0,596,1079.21c4.19-4.9,8.55-9.85,13-14.71a14.2,14.2,0,0,1,10.3-4.16,12.34,12.34,0,0,1,6.26,1.56l59.84,35.27a5.65,5.65,0,0,1,3,3.84,6.61,6.61,0,0,1-2,5.3c-4.4,4.84-8.71,9.73-12.83,14.53a35.7,35.7,0,0,0-8.55,28.64,35.12,35.12,0,0,0,16.51,24.34l.71.43a42.78,42.78,0,0,0,21.7,5.77,47.41,47.41,0,0,0,35.65-16.23c4.17-4.88,8.53-9.83,13-14.71a14.17,14.17,0,0,1,10.29-4.17,12.38,12.38,0,0,1,6.27,1.56l68.86,40.59a28.4,28.4,0,0,0,14.45,3.79,31.4,31.4,0,0,0,22.18-8.94c17.54-17.62,37-35.59,59.49-54.93a18.33,18.33,0,0,1,11.72-4,14.86,14.86,0,0,1,7.4,1.76l15.31,9c7.32,4.32,16.36,6.6,26.14,6.6,13.29,0,26.38-4.28,35.92-11.74,9.38-7.33,14.44-16.74,14.25-26.5s-5.82-18.56-15.4-24.21l-15.9-9.37c-.64-.38-2.15-1.4-2.23-2.59-.06-.91.64-2.49,2.79-4.18q14.65-11.5,29.37-23t29.42-23a20.38,20.38,0,0,1,12.25-3.88,15.6,15.6,0,0,1,7.76,1.82l15.31,9c7.44,4.39,16.66,6.7,26.68,6.7,13.34,0,26.39-4.2,35.8-11.54s14.42-17,14.05-26.81-6.06-18.57-15.61-24.2l-15.9-9.37c-.84-.5-2.28-1.53-2.4-2.88s.86-3,2.62-4.48c12.66-10.9,24.13-21.14,35.07-31.33a16.88,16.88,0,0,1,11.29-4.13,13.27,13.27,0,0,1,6.72,1.63l37.44,22.07c.94.55,2.54,1.74,2.72,3.47.16,1.43-.68,3.11-2.29,4.61-4.67,4.35-9.52,8.78-14.42,13.18-8.87,8-13.44,18.25-12.56,28.22.81,9.14,6,17.12,14.68,22.49l.77.47a49.43,49.43,0,0,0,25.1,6.38,60.23,60.23,0,0,0,6.43-.35c11.59-1.28,22.26-5.83,30-12.81,5.18-4.64,10.28-9.3,15.17-13.85a16.91,16.91,0,0,1,11.29-4.14,13.24,13.24,0,0,1,6.72,1.64l59.83,35.26c.94.56,2.54,1.74,2.73,3.47.16,1.43-.68,3.11-2.3,4.62-4.63,4.31-9.48,8.74-14.42,13.17-8.87,8-13.45,18.27-12.55,28.25.82,9.16,6.06,17.15,14.74,22.51l.68.41a49.42,49.42,0,0,0,25.12,6.4,58.05,58.05,0,0,0,6.44-.36c11.59-1.28,22.25-5.82,30-12.8,5.16-4.63,10.26-9.29,15.16-13.85a16.91,16.91,0,0,1,11.3-4.14,13.27,13.27,0,0,1,6.72,1.63l39.21,23.12c.94.55,2.54,1.74,2.72,3.46.16,1.43-.68,3.12-2.3,4.62-44.62,41.54-95.13,80.94-144,119-167.46,130.61-340.62,265.67-317.11,514.51a16.34,16.34,0,0,1-.14,5Z"/><path class="cls-5" d="M1199.74,922.77a5.73,5.73,0,0,1,2.66.52l33.77,19.91c-3.79,3.51-7.68,7-11.61,10.58-10.75,9.66-16.28,22.37-15.18,34.87,1,11.71,7.58,21.86,18.43,28.59l.92.56a57.41,57.41,0,0,0,29.17,7.49,69.34,69.34,0,0,0,7.32-.4c13.22-1.46,25.47-6.71,34.49-14.8,5.22-4.68,10.36-9.37,15.27-14a9.19,9.19,0,0,1,5.85-2,5.57,5.57,0,0,1,2.66.53l56.17,33.11c-3.76,3.47-7.66,7-11.62,10.57-10.76,9.67-16.29,22.4-15.17,34.92,1.05,11.72,7.63,21.88,18.55,28.62l.8.48a57.38,57.38,0,0,0,29.16,7.49,67.08,67.08,0,0,0,7.33-.4c13.22-1.46,25.47-6.71,34.49-14.8,5.22-4.68,10.36-9.37,15.27-13.94a9.11,9.11,0,0,1,5.85-2,5.52,5.52,0,0,1,2.65.53l19.61,11.55,15.94,9.4c-43.7,40.38-93,78.85-140.75,116.08-166.88,130.16-339.36,264.68-321,511.36L741.09,1551,387.57,1342.62c-3.13-1.84-8.67-10.63-9.32-17.57-6.25-66.16,1.52-125.93,23.77-182.72,19.25-49.15,49.5-96.07,92.5-143.43a6.33,6.33,0,0,1,4.37-1.54,4.64,4.64,0,0,1,2.2.45L535.4,1018c-3.91,4.33-7.75,8.7-11.44,13a43.63,43.63,0,0,0-10.4,35,43.06,43.06,0,0,0,20.11,29.9l1,.57a50.76,50.76,0,0,0,25.77,6.88,55.47,55.47,0,0,0,41.73-19c4.13-4.84,8.44-9.72,12.81-14.53a6.33,6.33,0,0,1,4.37-1.54,4.61,4.61,0,0,1,2.2.45l57.38,33.82c-3.92,4.35-7.77,8.73-11.44,13a43.69,43.69,0,0,0-10.39,35.09,43.1,43.1,0,0,0,20.25,29.94l.8.48a50.67,50.67,0,0,0,25.77,6.89,55.47,55.47,0,0,0,41.74-19c4.11-4.8,8.42-9.69,12.8-14.53a6.4,6.4,0,0,1,4.37-1.54,4.74,4.74,0,0,1,2.2.45l68.87,40.6a36.43,36.43,0,0,0,18.51,4.89,39.45,39.45,0,0,0,27.85-11.3c17.39-17.46,36.7-35.29,59-54.51a10.53,10.53,0,0,1,6.5-2,7.14,7.14,0,0,1,3.33.65l15.32,9c8.55,5,19,7.71,30.2,7.71,15,0,29.93-4.89,40.86-13.44,11.23-8.79,17.54-20.8,17.31-33-.27-12.56-7.32-23.83-19.33-30.91l-5.53-3.26-4.89-2.88c8.45-6.62,17-13.3,25.32-19.78,9.65-7.53,19.63-15.31,29.42-23a12.56,12.56,0,0,1,7.3-2.17,8.15,8.15,0,0,1,3.71.71l9.34,5.51,6,3.52c8.67,5.1,19.29,7.8,30.74,7.8,15.09,0,29.93-4.82,40.72-13.23,11.35-8.86,17.59-21,17.13-33.43s-7.6-23.74-19.55-30.78l-6.53-3.85-4.7-2.77c11.45-9.91,21.95-19.33,32-28.69a9.18,9.18,0,0,1,5.85-2m0-16a24.94,24.94,0,0,0-16.74,6.28q-17,15.81-34.84,31.11c-7.53,6.48-7.17,15.54.94,20.32l15.9,9.37c7.49,4.42,11.42,10.84,11.68,17.61.26,6.94-3.37,14.26-11,20.2-8.38,6.53-19.83,9.85-30.88,9.85-8.25,0-16.26-1.85-22.61-5.59l-15.32-9a23.36,23.36,0,0,0-11.83-2.93,28.4,28.4,0,0,0-17.18,5.59c-19.55,15.35-39.24,30.61-58.79,46-7.94,6.23-7.78,15.18.32,20l15.9,9.37c7.5,4.42,11.32,10.77,11.46,17.47.13,6.87-3.59,14.11-11.18,20-8.46,6.62-19.94,10-31,10-8,0-15.82-1.8-22.08-5.49l-15.31-9a22.68,22.68,0,0,0-11.46-2.87,26.42,26.42,0,0,0-16.94,5.89c-20.85,17.94-41,36.31-59.94,55.35a23.62,23.62,0,0,1-16.51,6.59,20.5,20.5,0,0,1-10.39-2.68l-68.86-40.59a20.4,20.4,0,0,0-10.33-2.67,22.11,22.11,0,0,0-16.22,6.79q-6.67,7.36-13.12,14.89a39.1,39.1,0,0,1-22.29,12.74,39.71,39.71,0,0,1-7.28.69,34.62,34.62,0,0,1-17.64-4.67c-.19-.11-.38-.22-.56-.34-14.66-9-17.53-27.66-6.09-41q6.21-7.26,12.67-14.37c6.46-7.11,5.31-16.63-2.79-21.41L629.63,1055a20.3,20.3,0,0,0-10.33-2.67,22.12,22.12,0,0,0-16.22,6.78Q596.39,1066.5,590,1074a39.41,39.41,0,0,1-29.57,13.43,34.65,34.65,0,0,1-17.65-4.67l-.61-.37c-14.61-9.06-17.45-27.64-6-40.93q6.23-7.24,12.68-14.36c6.45-7.11,5.31-16.63-2.8-21.41L509.21,984a20.34,20.34,0,0,0-10.32-2.67,22.09,22.09,0,0,0-16.22,6.79c-80.69,88.88-134,193.91-120.35,338.4,1.09,11.55,9,25.09,17.12,29.86l665.89,392.5a10.59,10.59,0,0,0,5.27,1.68c5,0,7.77-5.45,7-14.24-29.93-316.73,261.86-443.81,458.57-626.94,7.19-6.68,6.29-16.06-1.81-20.83l-39.21-23.12a21.32,21.32,0,0,0-10.78-2.74,25,25,0,0,0-16.75,6.28q-7.44,6.93-15,13.75c-6.81,6.1-16.1,9.76-25.57,10.81a52,52,0,0,1-5.57.3,41.72,41.72,0,0,1-21-5.27l-.55-.33c-14.61-9-14.53-25.9-1.06-38q7.35-6.59,14.53-13.27c7.18-6.69,6.29-16.06-1.81-20.84l-59.84-35.26a21.2,21.2,0,0,0-10.78-2.75,25,25,0,0,0-16.74,6.29q-7.44,6.92-15.06,13.75c-6.8,6.1-16.09,9.76-25.56,10.8a49.65,49.65,0,0,1-5.57.31,41.69,41.69,0,0,1-21-5.27l-.62-.38c-14.54-9-14.45-25.87-1-38q7.34-6.58,14.52-13.27c7.19-6.68,6.29-16.06-1.81-20.83l-37.44-22.07a21.22,21.22,0,0,0-10.78-2.74Z"/></g></g></svg>