<svg id="Calque_17" data-name="Calque 17" xmlns="http://www.w3.org/2000/svg" viewBox="0 0 2048 2048"><defs><style>.cls-1{fill:#29a1fd;}.cls-2{fill:#db2ade;}</style></defs><path class="cls-1" d="M1694.28,1212.15H1759V1106.32A52.92,52.92,0,0,0,1706,1053.4h-31.45L1487.89,1256a111.13,111.13,0,0,1-163.42,0L1137.76,1053.4h-31.44a52.92,52.92,0,0,0-52.92,52.92v105.83h64.67a52.92,52.92,0,0,1,52.92,52.92h0a52.92,52.92,0,0,1-47.25,52.61H873.87c-79.15,0-143.55-64.4-143.55-143.55v-42.77a31.13,31.13,0,0,1,30.82-26.81h70.62c27.13,0,41.27-32.28,22.89-52.22L664.71,846.25a31.11,31.11,0,0,0-45.77,0L429,1052.33c-18.38,19.94-4.23,52.22,22.89,52.22H522.5a31.12,31.12,0,0,1,30.82,26.81v42.77a320.37,320.37,0,0,0,320.55,320.55h249.86a52.91,52.91,0,0,1,47.26,52.61h0a52.92,52.92,0,0,1-52.92,52.92H1053.4V1706a52.92,52.92,0,0,0,52.92,52.92h105.83v-64.68a52.92,52.92,0,0,1,52.92-52.92h0a52.92,52.92,0,0,1,52.91,52.92V1759h176.39v-64.68a52.92,52.92,0,1,1,105.84,0V1759H1706A52.92,52.92,0,0,0,1759,1706V1600.21h-64.68a52.93,52.93,0,0,1-52.92-52.92h0a52.92,52.92,0,0,1,52.92-52.92H1759V1318h-64.68a52.92,52.92,0,0,1-52.92-52.91h0A52.92,52.92,0,0,1,1694.28,1212.15Z"/><path class="cls-2" d="M1596.12,943.45H1525.5a31.12,31.12,0,0,1-30.82-26.81V873.87a320.37,320.37,0,0,0-320.55-320.55H924.26A52.91,52.91,0,0,1,877,500.71h0a52.92,52.92,0,0,1,52.92-52.92H994.6V342A52.92,52.92,0,0,0,941.68,289H835.85v64.68a52.92,52.92,0,0,1-52.92,52.92h0A52.92,52.92,0,0,1,730,353.72V289H553.63v64.68a52.92,52.92,0,0,1-52.92,52.92h0a52.92,52.92,0,0,1-52.92-52.92V289H342A52.92,52.92,0,0,0,289,342V447.79h64.68a52.92,52.92,0,0,1,52.92,52.92h0a52.92,52.92,0,0,1-52.92,52.92H289V730h64.68a52.92,52.92,0,0,1,52.92,52.91h0a52.92,52.92,0,0,1-52.92,52.92H289V941.68A52.92,52.92,0,0,0,342,994.6h31.45L560.11,792a111.13,111.13,0,0,1,163.42,0L910.24,994.6h31.44a52.92,52.92,0,0,0,52.92-52.92V835.85H929.93A52.92,52.92,0,0,1,877,782.93h0a52.92,52.92,0,0,1,47.25-52.61h249.87c79.15,0,143.55,64.4,143.55,143.55v42.77a31.13,31.13,0,0,1-30.82,26.81h-70.62c-27.13,0-41.27,32.28-22.89,52.22l189.94,206.08a31.11,31.11,0,0,0,45.77,0l190-206.08C1637.39,975.73,1623.24,943.45,1596.12,943.45Z"/></svg>